<svg xmlns="http://www.w3.org/2000/svg" xmlns:xlink="http://www.w3.org/1999/xlink" width="690.586" height="531" viewBox="0 0 690.586 531">
  <defs>
    <clipPath id="clip-path">
      <path id="Path_3498" data-name="Path 3498" d="M83.561,82.951" transform="translate(-83.561 -82.951)" fill="#ebebeb"/>
    </clipPath>
  </defs>
  <g id="Group_2035" data-name="Group 2035" transform="translate(-73.256 -10.061)">
    <g id="Group_1670" data-name="Group 1670" transform="translate(73.256 56.572)">
      <g id="Group_1611" data-name="Group 1611" transform="translate(0 28.422)">
        <g id="Group_1608" data-name="Group 1608" transform="translate(9.893 5.498)">
          <g id="Group_1526" data-name="Group 1526" transform="translate(1.9 2.979)">
            <g id="Group_1525" data-name="Group 1525">
              <g id="Group_1524" data-name="Group 1524">
                <rect id="Rectangle_651" data-name="Rectangle 651" width="127.198" height="222.545" fill="#fafafa"/>
              </g>
            </g>
          </g>
          <g id="Group_1528" data-name="Group 1528" transform="translate(0 0.442)">
            <g id="Group_1527" data-name="Group 1527">
              <path id="Path_3458" data-name="Path 3458" d="M123.424,307.951s-13.932-100.124-21.236-111.126c0,0,41.674-31.29,42.95-116.091H81.9V307.951Z" transform="translate(-81.901 -80.734)" fill="#f5f5f5"/>
            </g>
          </g>
          <g id="Group_1530" data-name="Group 1530" transform="translate(67.743)">
            <g id="Group_1529" data-name="Group 1529">
              <path id="Path_3459" data-name="Path 3459" d="M162.815,307.564S176.747,207.44,184.05,196.437c0,0-41.674-31.289-42.95-116.089h63.236V307.564Z" transform="translate(-141.1 -80.348)" fill="#f5f5f5"/>
            </g>
          </g>
          <g id="Group_1607" data-name="Group 1607" transform="translate(1.9 2.979)">
            <g id="Group_1606" data-name="Group 1606">
              <path id="Path_3460" data-name="Path 3460" d="M83.561,82.951" transform="translate(-83.561 -82.951)" fill="#ebebeb"/>
              <g id="Group_1605" data-name="Group 1605" clip-path="url(#clip-path)">
                <g id="Group_1532" data-name="Group 1532">
                  <g id="Group_1531" data-name="Group 1531">
                    <path id="Path_3461" data-name="Path 3461" d="M83.561,82.951Z" transform="translate(-83.561 -82.951)" fill="#ebebeb"/>
                  </g>
                </g>
                <g id="Group_1534" data-name="Group 1534">
                  <g id="Group_1533" data-name="Group 1533">
                    <path id="Path_3462" data-name="Path 3462" d="M83.561,82.951Z" transform="translate(-83.561 -82.951)" fill="#ebebeb"/>
                  </g>
                </g>
                <g id="Group_1536" data-name="Group 1536">
                  <g id="Group_1535" data-name="Group 1535">
                    <path id="Path_3463" data-name="Path 3463" d="M83.561,82.951Z" transform="translate(-83.561 -82.951)" fill="#ebebeb"/>
                  </g>
                </g>
                <g id="Group_1538" data-name="Group 1538">
                  <g id="Group_1537" data-name="Group 1537">
                    <path id="Path_3464" data-name="Path 3464" d="M83.561,82.951Z" transform="translate(-83.561 -82.951)" fill="#ebebeb"/>
                  </g>
                </g>
                <g id="Group_1540" data-name="Group 1540">
                  <g id="Group_1539" data-name="Group 1539">
                    <path id="Path_3465" data-name="Path 3465" d="M83.561,82.951Z" transform="translate(-83.561 -82.951)" fill="#ebebeb"/>
                  </g>
                </g>
                <g id="Group_1542" data-name="Group 1542">
                  <g id="Group_1541" data-name="Group 1541">
                    <path id="Path_3466" data-name="Path 3466" d="M83.561,82.951Z" transform="translate(-83.561 -82.951)" fill="#ebebeb"/>
                  </g>
                </g>
                <g id="Group_1544" data-name="Group 1544">
                  <g id="Group_1543" data-name="Group 1543">
                    <path id="Path_3467" data-name="Path 3467" d="M83.561,82.951Z" transform="translate(-83.561 -82.951)" fill="#ebebeb"/>
                  </g>
                </g>
                <g id="Group_1546" data-name="Group 1546">
                  <g id="Group_1545" data-name="Group 1545">
                    <path id="Path_3468" data-name="Path 3468" d="M83.561,82.951Z" transform="translate(-83.561 -82.951)" fill="#ebebeb"/>
                  </g>
                </g>
                <g id="Group_1548" data-name="Group 1548">
                  <g id="Group_1547" data-name="Group 1547">
                    <path id="Path_3469" data-name="Path 3469" d="M83.561,82.951Z" transform="translate(-83.561 -82.951)" fill="#ebebeb"/>
                  </g>
                </g>
                <g id="Group_1550" data-name="Group 1550">
                  <g id="Group_1549" data-name="Group 1549">
                    <path id="Path_3470" data-name="Path 3470" d="M83.561,82.951Z" transform="translate(-83.561 -82.951)" fill="#ebebeb"/>
                  </g>
                </g>
                <g id="Group_1552" data-name="Group 1552">
                  <g id="Group_1551" data-name="Group 1551">
                    <path id="Path_3471" data-name="Path 3471" d="M83.561,82.951Z" transform="translate(-83.561 -82.951)" fill="#ebebeb"/>
                  </g>
                </g>
                <g id="Group_1554" data-name="Group 1554">
                  <g id="Group_1553" data-name="Group 1553">
                    <path id="Path_3472" data-name="Path 3472" d="M83.561,82.951Z" transform="translate(-83.561 -82.951)" fill="#ebebeb"/>
                  </g>
                </g>
                <g id="Group_1556" data-name="Group 1556">
                  <g id="Group_1555" data-name="Group 1555">
                    <path id="Path_3473" data-name="Path 3473" d="M83.561,82.951Z" transform="translate(-83.561 -82.951)" fill="#ebebeb"/>
                  </g>
                </g>
                <g id="Group_1558" data-name="Group 1558">
                  <g id="Group_1557" data-name="Group 1557">
                    <path id="Path_3474" data-name="Path 3474" d="M83.561,82.951Z" transform="translate(-83.561 -82.951)" fill="#ebebeb"/>
                  </g>
                </g>
                <g id="Group_1560" data-name="Group 1560">
                  <g id="Group_1559" data-name="Group 1559">
                    <path id="Path_3475" data-name="Path 3475" d="M83.561,82.951Z" transform="translate(-83.561 -82.951)" fill="#ebebeb"/>
                  </g>
                </g>
                <g id="Group_1562" data-name="Group 1562">
                  <g id="Group_1561" data-name="Group 1561">
                    <path id="Path_3476" data-name="Path 3476" d="M83.561,82.951Z" transform="translate(-83.561 -82.951)" fill="#ebebeb"/>
                  </g>
                </g>
                <g id="Group_1564" data-name="Group 1564">
                  <g id="Group_1563" data-name="Group 1563">
                    <path id="Path_3477" data-name="Path 3477" d="M83.561,82.951Z" transform="translate(-83.561 -82.951)" fill="#ebebeb"/>
                  </g>
                </g>
                <g id="Group_1566" data-name="Group 1566">
                  <g id="Group_1565" data-name="Group 1565">
                    <path id="Path_3478" data-name="Path 3478" d="M83.561,82.951Z" transform="translate(-83.561 -82.951)" fill="#ebebeb"/>
                  </g>
                </g>
                <g id="Group_1568" data-name="Group 1568">
                  <g id="Group_1567" data-name="Group 1567">
                    <path id="Path_3479" data-name="Path 3479" d="M83.561,82.951Z" transform="translate(-83.561 -82.951)" fill="#ebebeb"/>
                  </g>
                </g>
                <g id="Group_1570" data-name="Group 1570">
                  <g id="Group_1569" data-name="Group 1569">
                    <path id="Path_3480" data-name="Path 3480" d="M83.561,82.951Z" transform="translate(-83.561 -82.951)" fill="#ebebeb"/>
                  </g>
                </g>
                <g id="Group_1572" data-name="Group 1572">
                  <g id="Group_1571" data-name="Group 1571">
                    <path id="Path_3481" data-name="Path 3481" d="M83.561,82.951Z" transform="translate(-83.561 -82.951)" fill="#ebebeb"/>
                  </g>
                </g>
                <g id="Group_1574" data-name="Group 1574">
                  <g id="Group_1573" data-name="Group 1573">
                    <path id="Path_3482" data-name="Path 3482" d="M83.561,82.951Z" transform="translate(-83.561 -82.951)" fill="#ebebeb"/>
                  </g>
                </g>
                <g id="Group_1576" data-name="Group 1576">
                  <g id="Group_1575" data-name="Group 1575">
                    <path id="Path_3483" data-name="Path 3483" d="M83.561,82.951Z" transform="translate(-83.561 -82.951)" fill="#ebebeb"/>
                  </g>
                </g>
                <g id="Group_1578" data-name="Group 1578">
                  <g id="Group_1577" data-name="Group 1577">
                    <path id="Path_3484" data-name="Path 3484" d="M83.561,82.951Z" transform="translate(-83.561 -82.951)" fill="#ebebeb"/>
                  </g>
                </g>
                <g id="Group_1580" data-name="Group 1580">
                  <g id="Group_1579" data-name="Group 1579">
                    <path id="Path_3485" data-name="Path 3485" d="M83.561,82.951Z" transform="translate(-83.561 -82.951)" fill="#ebebeb"/>
                  </g>
                </g>
                <g id="Group_1582" data-name="Group 1582">
                  <g id="Group_1581" data-name="Group 1581">
                    <path id="Path_3486" data-name="Path 3486" d="M83.561,82.951Z" transform="translate(-83.561 -82.951)" fill="#ebebeb"/>
                  </g>
                </g>
                <g id="Group_1584" data-name="Group 1584">
                  <g id="Group_1583" data-name="Group 1583">
                    <path id="Path_3487" data-name="Path 3487" d="M83.561,82.951Z" transform="translate(-83.561 -82.951)" fill="#ebebeb"/>
                  </g>
                </g>
                <g id="Group_1586" data-name="Group 1586">
                  <g id="Group_1585" data-name="Group 1585">
                    <path id="Path_3488" data-name="Path 3488" d="M83.561,82.951Z" transform="translate(-83.561 -82.951)" fill="#ebebeb"/>
                  </g>
                </g>
                <g id="Group_1588" data-name="Group 1588">
                  <g id="Group_1587" data-name="Group 1587">
                    <path id="Path_3489" data-name="Path 3489" d="M83.561,82.951Z" transform="translate(-83.561 -82.951)" fill="#ebebeb"/>
                  </g>
                </g>
                <g id="Group_1590" data-name="Group 1590">
                  <g id="Group_1589" data-name="Group 1589">
                    <path id="Path_3490" data-name="Path 3490" d="M83.561,82.951Z" transform="translate(-83.561 -82.951)" fill="#ebebeb"/>
                  </g>
                </g>
                <g id="Group_1592" data-name="Group 1592">
                  <g id="Group_1591" data-name="Group 1591">
                    <path id="Path_3491" data-name="Path 3491" d="M83.561,82.951Z" transform="translate(-83.561 -82.951)" fill="#ebebeb"/>
                  </g>
                </g>
                <g id="Group_1594" data-name="Group 1594">
                  <g id="Group_1593" data-name="Group 1593">
                    <path id="Path_3492" data-name="Path 3492" d="M83.561,82.951Z" transform="translate(-83.561 -82.951)" fill="#ebebeb"/>
                  </g>
                </g>
                <g id="Group_1596" data-name="Group 1596">
                  <g id="Group_1595" data-name="Group 1595">
                    <path id="Path_3493" data-name="Path 3493" d="M83.561,82.951Z" transform="translate(-83.561 -82.951)" fill="#ebebeb"/>
                  </g>
                </g>
                <g id="Group_1598" data-name="Group 1598">
                  <g id="Group_1597" data-name="Group 1597">
                    <path id="Path_3494" data-name="Path 3494" d="M83.561,82.951Z" transform="translate(-83.561 -82.951)" fill="#ebebeb"/>
                  </g>
                </g>
                <g id="Group_1600" data-name="Group 1600">
                  <g id="Group_1599" data-name="Group 1599">
                    <path id="Path_3495" data-name="Path 3495" d="M83.561,82.951Z" transform="translate(-83.561 -82.951)" fill="#ebebeb"/>
                  </g>
                </g>
                <g id="Group_1602" data-name="Group 1602">
                  <g id="Group_1601" data-name="Group 1601">
                    <path id="Path_3496" data-name="Path 3496" d="M83.561,82.951Z" transform="translate(-83.561 -82.951)" fill="#ebebeb"/>
                  </g>
                </g>
                <g id="Group_1604" data-name="Group 1604">
                  <g id="Group_1603" data-name="Group 1603">
                    <path id="Path_3497" data-name="Path 3497" d="M83.561,82.951Z" transform="translate(-83.561 -82.951)" fill="#ebebeb"/>
                  </g>
                </g>
              </g>
            </g>
          </g>
        </g>
        <g id="Group_1610" data-name="Group 1610">
          <g id="Group_1609" data-name="Group 1609">
            <path id="Path_3499" data-name="Path 3499" d="M215.6,75.543H73.256V313.924H221.492V75.543ZM110.615,199.393V256.08H85.048V199.393Zm-25.566-4.1v-58.67h25.566v58.67Zm64.483,0v-58.67h31.98v58.67Zm31.98,4.1V256.08h-31.98V199.393Zm-69.758-4.1v-58.67h33.679v58.67Zm33.679,4.1V256.08H111.753V199.393Zm-33.679-63.785V84.02h33.679v51.588Zm33.679,121.486v49.491H111.753V257.095Zm4.1,0h31.98v49.491h-31.98Zm0-121.486V84.02h31.98v51.588Zm33.118,63.785H209.7V256.08H182.649Zm0-4.1v-58.67H209.7v58.67ZM209.7,135.609H182.649V84.02H209.7ZM110.615,84.02v51.588H85.048V84.02ZM85.048,257.095h25.566v49.491H85.048Zm97.6,49.491V257.095H209.7v49.491Z" transform="translate(-73.256 -75.543)" fill="#ebebeb"/>
          </g>
        </g>
      </g>
      <g id="Group_1622" data-name="Group 1622" transform="translate(185.076 80.985)">
        <g id="Group_1613" data-name="Group 1613">
          <g id="Group_1612" data-name="Group 1612">
            <rect id="Rectangle_652" data-name="Rectangle 652" width="387.02" height="259.212" fill="#f5f5f5"/>
          </g>
        </g>
        <g id="Group_1615" data-name="Group 1615">
          <g id="Group_1614" data-name="Group 1614">
            <rect id="Rectangle_653" data-name="Rectangle 653" width="387.02" height="25.893" fill="#ebebeb"/>
          </g>
        </g>
        <g id="Group_1617" data-name="Group 1617" transform="translate(10.507 10.038)">
          <g id="Group_1616" data-name="Group 1616">
            <path id="Path_3500" data-name="Path 3500" d="M250.428,133.157a3.136,3.136,0,1,1-3.127-2.908A3.024,3.024,0,0,1,250.428,133.157Z" transform="translate(-244.172 -130.249)" fill="#fafafa"/>
          </g>
        </g>
        <g id="Group_1619" data-name="Group 1619" transform="translate(20.603 10.038)">
          <g id="Group_1618" data-name="Group 1618">
            <path id="Path_3501" data-name="Path 3501" d="M259.249,133.157a3.136,3.136,0,1,1-3.127-2.908A3.023,3.023,0,0,1,259.249,133.157Z" transform="translate(-252.994 -130.249)" fill="#fafafa"/>
          </g>
        </g>
        <g id="Group_1621" data-name="Group 1621" transform="translate(30.697 10.038)">
          <g id="Group_1620" data-name="Group 1620">
            <path id="Path_3502" data-name="Path 3502" d="M268.071,133.157a3.136,3.136,0,1,1-3.127-2.908A3.023,3.023,0,0,1,268.071,133.157Z" transform="translate(-261.815 -130.249)" fill="#fafafa"/>
          </g>
        </g>
      </g>
      <g id="Group_1631" data-name="Group 1631" transform="translate(612.828 132.211)">
        <g id="Group_1624" data-name="Group 1624">
          <g id="Group_1623" data-name="Group 1623">
            <path id="Path_3503" data-name="Path 3503" d="M686.551,166.242H608.793v101.4l77.757,1.951Z" transform="translate(-608.793 -166.242)" fill="#ebebeb"/>
          </g>
        </g>
        <g id="Group_1626" data-name="Group 1626" transform="translate(4.601 3.608)">
          <g id="Group_1625" data-name="Group 1625">
            <path id="Path_3504" data-name="Path 3504" d="M680.854,169.395h-68.04v91.963l68.04,2.3Z" transform="translate(-612.814 -169.395)" fill="#fafafa"/>
          </g>
        </g>
        <g id="Group_1628" data-name="Group 1628" transform="translate(15.575 18.599)">
          <g id="Group_1627" data-name="Group 1627">
            <path id="Path_3505" data-name="Path 3505" d="M667.555,184.215,622.4,182.5v64.278h45.152Z" transform="translate(-622.404 -182.495)" fill="#ebebeb"/>
          </g>
        </g>
        <g id="Group_1630" data-name="Group 1630" transform="translate(15.575 18.599)">
          <g id="Group_1629" data-name="Group 1629">
            <path id="Path_3506" data-name="Path 3506" d="M622.4,246.773l45.152-33.023L622.4,182.5Z" transform="translate(-622.404 -182.495)" fill="#f5f5f5"/>
          </g>
        </g>
      </g>
      <g id="Group_1640" data-name="Group 1640" transform="translate(638.738 59.513)">
        <g id="Group_1633" data-name="Group 1633">
          <g id="Group_1632" data-name="Group 1632">
            <path id="Path_3507" data-name="Path 3507" d="M674.709,104.061l-43.274-1.348v56.433l43.274,1.086Z" transform="translate(-631.435 -102.712)" fill="#ebebeb"/>
          </g>
        </g>
        <g id="Group_1635" data-name="Group 1635" transform="translate(2.56 2.008)">
          <g id="Group_1634" data-name="Group 1634">
            <path id="Path_3508" data-name="Path 3508" d="M671.54,106.264l-37.868-1.8v51.182l37.868,1.278Z" transform="translate(-633.672 -104.467)" fill="#fafafa"/>
          </g>
        </g>
        <g id="Group_1637" data-name="Group 1637" transform="translate(8.667 10.351)">
          <g id="Group_1636" data-name="Group 1636">
            <path id="Path_3509" data-name="Path 3509" d="M664.139,112.715l-25.129-.957v35.774h25.129Z" transform="translate(-639.009 -111.758)" fill="#ebebeb"/>
          </g>
        </g>
        <g id="Group_1639" data-name="Group 1639" transform="translate(8.667 10.351)">
          <g id="Group_1638" data-name="Group 1638">
            <path id="Path_3510" data-name="Path 3510" d="M639.009,147.532l25.129-18.378-25.129-17.4Z" transform="translate(-639.009 -111.758)" fill="#f5f5f5"/>
          </g>
        </g>
      </g>
      <g id="Group_1669" data-name="Group 1669" transform="translate(344.407)">
        <g id="Group_1668" data-name="Group 1668">
          <g id="Group_1647" data-name="Group 1647" transform="translate(35.713 13.062)">
            <g id="Group_1642" data-name="Group 1642">
              <g id="Group_1641" data-name="Group 1641">
                <path id="Path_3511" data-name="Path 3511" d="M409.581,62.121l-4.146,38.472h53.117l4.405-38.472Z" transform="translate(-405.435 -62.121)" fill="#ebebeb"/>
              </g>
            </g>
            <g id="Group_1644" data-name="Group 1644" transform="translate(2.296 2.531)">
              <g id="Group_1643" data-name="Group 1643">
                <path id="Path_3512" data-name="Path 3512" d="M411.475,64.332,407.442,98h47.938l3.879-33.665Z" transform="translate(-407.442 -64.332)" fill="#fafafa"/>
              </g>
            </g>
            <g id="Group_1646" data-name="Group 1646" transform="translate(11.915 8.426)">
              <g id="Group_1645" data-name="Group 1645">
                <path id="Path_3513" data-name="Path 3513" d="M418.329,69.484l-2.482,22.34H446.1l1.552-22.34Z" transform="translate(-415.847 -69.484)" fill="#ebebeb"/>
              </g>
            </g>
          </g>
          <g id="Group_1654" data-name="Group 1654" transform="translate(103.605)">
            <g id="Group_1649" data-name="Group 1649">
              <g id="Group_1648" data-name="Group 1648">
                <path id="Path_3514" data-name="Path 3514" d="M470.317,50.706l-5.553,51.535h71.151l5.9-51.535Z" transform="translate(-464.764 -50.706)" fill="#ebebeb"/>
              </g>
            </g>
            <g id="Group_1651" data-name="Group 1651" transform="translate(3.075 3.391)">
              <g id="Group_1650" data-name="Group 1650">
                <path id="Path_3515" data-name="Path 3515" d="M472.855,53.668l-5.4,45.1h64.214l5.2-45.1Z" transform="translate(-467.452 -53.668)" fill="#fafafa"/>
              </g>
            </g>
            <g id="Group_1653" data-name="Group 1653" transform="translate(15.96 11.287)">
              <g id="Group_1652" data-name="Group 1652">
                <path id="Path_3516" data-name="Path 3516" d="M482.036,60.569l-3.325,29.925h40.523l2.079-29.925Z" transform="translate(-478.711 -60.569)" fill="#ebebeb"/>
              </g>
            </g>
          </g>
          <g id="Group_1667" data-name="Group 1667" transform="translate(0 51.535)">
            <g id="Group_1656" data-name="Group 1656">
              <g id="Group_1655" data-name="Group 1655">
                <rect id="Rectangle_654" data-name="Rectangle 654" width="207.21" height="5.932" fill="#ebebeb"/>
              </g>
            </g>
            <g id="Group_1661" data-name="Group 1661" transform="translate(26.385 5.932)">
              <g id="Group_1658" data-name="Group 1658">
                <g id="Group_1657" data-name="Group 1657">
                  <path id="Path_3517" data-name="Path 3517" d="M406.353,115.338l-9.07-14.414h13.474v14.414Z" transform="translate(-397.284 -100.924)" fill="#ebebeb"/>
                </g>
              </g>
              <g id="Group_1660" data-name="Group 1660" transform="translate(4.378)">
                <g id="Group_1659" data-name="Group 1659">
                  <path id="Path_3518" data-name="Path 3518" d="M401.11,100.924l8.022,14.414h1.074V100.924Z" transform="translate(-401.11 -100.924)" fill="#e0e0e0"/>
                </g>
              </g>
            </g>
            <g id="Group_1666" data-name="Group 1666" transform="translate(145.946 5.932)">
              <g id="Group_1663" data-name="Group 1663">
                <g id="Group_1662" data-name="Group 1662">
                  <path id="Path_3519" data-name="Path 3519" d="M510.835,115.338l-9.07-14.414h13.474v14.414Z" transform="translate(-501.765 -100.924)" fill="#ebebeb"/>
                </g>
              </g>
              <g id="Group_1665" data-name="Group 1665" transform="translate(4.378)">
                <g id="Group_1664" data-name="Group 1664">
                  <path id="Path_3520" data-name="Path 3520" d="M505.591,100.924l8.022,14.414h1.074V100.924Z" transform="translate(-505.591 -100.924)" fill="#e0e0e0"/>
                </g>
              </g>
            </g>
          </g>
        </g>
      </g>
    </g>
    <g id="Group_1688" data-name="Group 1688" transform="translate(94.259 331.248)">
      <g id="Group_1672" data-name="Group 1672">
        <g id="Group_1671" data-name="Group 1671">
          <path id="Path_3521" data-name="Path 3521" d="M167.15,420c19.068-12.481,23.91-36.377,23.7-57.965-.035-3.606.458-7.391-1.2-10.592s-5.654-5.456-8.959-4.017c-2.74,1.194-4,4.275-5.576,6.812a21.242,21.242,0,0,1-8.754,7.86c-2.352,1.135-5.243,1.794-7.507.491-3.106-1.789-3.371-6.088-3.26-9.67q.309-10.011.618-20.02c.11-3.581.211-7.238-.834-10.663s-3.462-6.643-6.89-7.68-7.746.825-8.561,4.314a32.573,32.573,0,0,0-.212,4.456c-.138,1.484-.88,3.113-2.321,3.492-1.459.384-2.885-.665-3.944-1.738-3.657-3.706-6.084-8.426-8.346-13.114s-4.451-9.485-7.753-13.511-7.926-7.263-13.115-7.677-10.8,2.618-12.241,7.622,1.419,10.211,4.567,14.376a80.537,80.537,0,0,0,16.474,16.268,6.6,6.6,0,0,1,2.749,3.06c.729,2.407-1.623,4.724-4.029,5.45-2.727.825-5.654.477-8.491.738s-5.933,1.42-7.07,4.034c-1.575,3.625,1.433,7.535,4.424,10.122a69.588,69.588,0,0,0,20.248,12.189c2.646,1.028,5.434,1.941,7.541,3.843s3.327,5.152,1.966,7.643-4.721,3.222-7.506,2.643-5.249-2.136-7.889-3.192c-4.941-1.979-11.389-1.792-14.687,2.385-2.167,2.745-2.448,6.635-1.468,9.993a26.092,26.092,0,0,0,5.284,8.982,69.734,69.734,0,0,0,29.284,21.374c11.471,4.235,22.162,5.563,33.76,1.689" transform="translate(-91.61 -290.739)" fill="#f63"/>
        </g>
      </g>
      <g id="Group_1675" data-name="Group 1675" transform="translate(5.745 2.872)">
        <g id="Group_1674" data-name="Group 1674">
          <g id="Group_1673" data-name="Group 1673">
            <path id="Path_3522" data-name="Path 3522" d="M96.631,293.249a2.728,2.728,0,0,0,.344.349l1.055.975c.93.851,2.3,2.109,4.021,3.774a134.991,134.991,0,0,1,13.5,15.094c2.618,3.384,5.331,7.209,8.17,11.368s5.827,8.635,8.8,13.449a161.239,161.239,0,0,1,8.578,15.518c1.332,2.77,2.508,5.666,3.71,8.618l3.631,8.972a325.93,325.93,0,0,1,12.086,34.771,158.028,158.028,0,0,1,5.328,29.53A115.858,115.858,0,0,1,165.7,455.9c-.248,2.379-.479,4.226-.68,5.47-.086.6-.153,1.068-.2,1.421a2.908,2.908,0,0,0-.047.486,2.512,2.512,0,0,0,.114-.475c.066-.35.156-.817.268-1.411.245-1.239.517-3.082.807-5.463a110.647,110.647,0,0,0,.367-20.3,155.408,155.408,0,0,0-5.206-29.656,318.056,318.056,0,0,0-12.06-34.857q-1.84-4.545-3.637-8.975c-1.2-2.944-2.391-5.862-3.733-8.648a159.922,159.922,0,0,0-8.645-15.563c-2.994-4.818-6.012-9.283-8.864-13.438s-5.6-7.968-8.255-11.344a127.842,127.842,0,0,0-13.691-14.992c-1.752-1.64-3.151-2.868-4.112-3.687-.463-.389-.826-.695-1.1-.926A2.873,2.873,0,0,0,96.631,293.249Z" transform="translate(-96.631 -293.249)" fill="#263238"/>
          </g>
        </g>
      </g>
      <g id="Group_1678" data-name="Group 1678" transform="translate(50.594 23.815)">
        <g id="Group_1677" data-name="Group 1677">
          <g id="Group_1676" data-name="Group 1676">
            <path id="Path_3523" data-name="Path 3523" d="M135.839,350.824a7.057,7.057,0,0,0,.393-1.518c.215-.986.477-2.421.777-4.2.6-3.554,1.26-8.489,1.966-13.932s1.435-10.358,2.09-13.893c.322-1.768.6-3.2.8-4.181a7.1,7.1,0,0,0,.24-1.549,7,7,0,0,0-.493,1.49c-.282.969-.628,2.387-1.009,4.149-.776,3.525-1.581,8.446-2.289,13.9-.682,5.374-1.3,10.235-1.771,13.949-.224,1.676-.414,3.09-.565,4.223A7.064,7.064,0,0,0,135.839,350.824Z" transform="translate(-135.823 -311.551)" fill="#263238"/>
          </g>
        </g>
      </g>
      <g id="Group_1681" data-name="Group 1681" transform="translate(4.17 53.337)">
        <g id="Group_1680" data-name="Group 1680">
          <g id="Group_1679" data-name="Group 1679">
            <path id="Path_3524" data-name="Path 3524" d="M95.254,337.381a10,10,0,0,0,1.855.265c1.195.133,2.925.317,5.053.613,4.261.556,10.12,1.53,16.538,2.883s12.171,2.844,16.3,4.031c2.07.58,3.733,1.094,4.884,1.442a10.182,10.182,0,0,0,1.809.485,9.915,9.915,0,0,0-1.726-.731c-1.128-.423-2.774-1.007-4.831-1.647-4.108-1.308-9.863-2.864-16.3-4.234a166.944,166.944,0,0,0-16.621-2.7c-2.142-.236-3.885-.35-5.089-.4A10.008,10.008,0,0,0,95.254,337.381Z" transform="translate(-95.254 -337.349)" fill="#263238"/>
          </g>
        </g>
      </g>
      <g id="Group_1684" data-name="Group 1684" transform="translate(69.675 56.494)">
        <g id="Group_1683" data-name="Group 1683">
          <g id="Group_1682" data-name="Group 1682">
            <path id="Path_3525" data-name="Path 3525" d="M152.5,398.352a2.347,2.347,0,0,0,.333-.554l.84-1.647c.721-1.433,1.711-3.533,2.9-6.145,2.38-5.22,5.438-12.534,8.7-20.649s6.249-15.451,8.516-20.713c1.11-2.558,2.024-4.662,2.7-6.226.29-.677.529-1.238.725-1.7a2.393,2.393,0,0,0,.212-.612,2.346,2.346,0,0,0-.333.554c-.228.445-.5.989-.84,1.647-.722,1.434-1.711,3.534-2.9,6.145-2.38,5.22-5.438,12.535-8.7,20.654s-6.248,15.446-8.515,20.709c-1.11,2.559-2.024,4.662-2.7,6.226-.29.679-.529,1.239-.726,1.7A2.409,2.409,0,0,0,152.5,398.352Z" transform="translate(-152.497 -340.108)" fill="#263238"/>
          </g>
        </g>
      </g>
      <g id="Group_1687" data-name="Group 1687" transform="translate(8.168 93.533)">
        <g id="Group_1686" data-name="Group 1686">
          <g id="Group_1685" data-name="Group 1685">
            <path id="Path_3526" data-name="Path 3526" d="M98.748,372.481a2.478,2.478,0,0,0,.609.265l1.786.638c1.649.571,3.877,1.343,6.587,2.281,5.56,1.928,13.21,4.678,21.659,7.729s16.135,5.733,21.738,7.549c2.8.909,5.076,1.62,6.658,2.08l1.824.518a2.445,2.445,0,0,0,.65.138,2.558,2.558,0,0,0-.61-.266l-1.785-.639-6.586-2.281c-5.56-1.928-13.211-4.678-21.663-7.73s-16.13-5.732-21.734-7.547c-2.8-.909-5.075-1.62-6.658-2.082l-1.824-.52A2.471,2.471,0,0,0,98.748,372.481Z" transform="translate(-98.748 -372.475)" fill="#263238"/>
          </g>
        </g>
      </g>
    </g>
    <g id="Group_1691" data-name="Group 1691" transform="translate(116.072 503.554)">
      <g id="Group_1690" data-name="Group 1690">
        <g id="Group_1689" data-name="Group 1689">
          <path id="Path_3527" data-name="Path 3527" d="M683.885,441.613c0,.164-128.328.3-286.591.3-158.321,0-286.621-.133-286.621-.3s128.3-.3,286.621-.3C555.557,441.314,683.885,441.448,683.885,441.613Z" transform="translate(-110.672 -441.314)" fill="#263238"/>
        </g>
      </g>
    </g>
    <g id="Group_1900" data-name="Group 1900" transform="translate(181.864 159.604)">
      <g id="Group_1696" data-name="Group 1696" transform="translate(0)">
        <g id="Group_1693" data-name="Group 1693">
          <g id="Group_1692" data-name="Group 1692">
            <path id="Path_3528" data-name="Path 3528" d="M569.886,140.743H180.326a12.159,12.159,0,0,0-12.16,12.16V428.058a12.16,12.16,0,0,0,12.16,12.161H329.838s9.51,29.409-19.972,44.626h139.8s-33.287-11.412-24.729-44.626H569.887a12.16,12.16,0,0,0,12.16-12.16V152.9A12.16,12.16,0,0,0,569.886,140.743Z" transform="translate(-168.166 -140.743)" fill="#263238"/>
          </g>
        </g>
        <g id="Group_1695" data-name="Group 1695" transform="translate(199.656 268.113)">
          <g id="Group_1694" data-name="Group 1694">
            <path id="Path_3529" data-name="Path 3529" d="M355.532,377.364c5.3,7.573-2.994,15.867-10.57,10.569a2.685,2.685,0,0,1-.65-.652c-5.286-7.572,3-15.856,10.569-10.569A2.67,2.67,0,0,1,355.532,377.364Z" transform="translate(-342.641 -375.041)" fill="#455a64"/>
          </g>
        </g>
      </g>
      <g id="Group_1899" data-name="Group 1899" transform="translate(9.196 13.896)">
        <g id="Group_1707" data-name="Group 1707">
          <g id="Group_1698" data-name="Group 1698">
            <g id="Group_1697" data-name="Group 1697">
              <path id="Rectangle_655" data-name="Rectangle 655" d="M3.272,0H392.215a3.273,3.273,0,0,1,3.273,3.273V231.316a3.273,3.273,0,0,1-3.273,3.273H3.272A3.272,3.272,0,0,1,0,231.316V3.272A3.272,3.272,0,0,1,3.272,0Z" fill="#e0e0e0"/>
            </g>
          </g>
          <g id="Group_1700" data-name="Group 1700" transform="translate(0 17.188)">
            <g id="Group_1699" data-name="Group 1699">
              <rect id="Rectangle_656" data-name="Rectangle 656" width="395.487" height="217.4" fill="#fafafa"/>
            </g>
          </g>
          <g id="Group_1702" data-name="Group 1702" transform="translate(26.119 5.901)">
            <g id="Group_1701" data-name="Group 1701">
              <path id="Path_3530" data-name="Path 3530" d="M205.344,161.2a3.158,3.158,0,1,1-3.158-3.158A3.158,3.158,0,0,1,205.344,161.2Z" transform="translate(-199.027 -158.043)" fill="#e8505b"/>
            </g>
          </g>
          <g id="Group_1704" data-name="Group 1704" transform="translate(6.976 5.901)">
            <g id="Group_1703" data-name="Group 1703">
              <path id="Path_3531" data-name="Path 3531" d="M188.616,161.2a3.159,3.159,0,1,1-3.158-3.158A3.159,3.159,0,0,1,188.616,161.2Z" transform="translate(-182.298 -158.043)" fill="#e8505b"/>
            </g>
          </g>
          <g id="Group_1706" data-name="Group 1706" transform="translate(16.165 5.901)">
            <g id="Group_1705" data-name="Group 1705">
              <path id="Path_3532" data-name="Path 3532" d="M196.646,161.2a3.159,3.159,0,1,1-3.159-3.158A3.159,3.159,0,0,1,196.646,161.2Z" transform="translate(-190.328 -158.043)" fill="#e8505b"/>
            </g>
          </g>
        </g>
        <g id="Group_1729" data-name="Group 1729" transform="translate(130.153 29.922)">
          <g id="Group_1710" data-name="Group 1710" transform="translate(0 88.173)">
            <g id="Group_1709" data-name="Group 1709">
              <g id="Group_1708" data-name="Group 1708">
                <path id="Path_3533" data-name="Path 3533" d="M354.656,256.41c0,.177-14.488.322-32.356.322s-32.36-.144-32.36-.322,14.486-.323,32.36-.323S354.656,256.23,354.656,256.41Z" transform="translate(-289.94 -256.087)" fill="#455a64"/>
              </g>
            </g>
          </g>
          <g id="Group_1713" data-name="Group 1713" transform="translate(0 96.833)">
            <g id="Group_1712" data-name="Group 1712">
              <g id="Group_1711" data-name="Group 1711">
                <path id="Path_3534" data-name="Path 3534" d="M354.656,263.977c0,.179-14.488.323-32.356.323s-32.36-.144-32.36-.323,14.486-.322,32.36-.322S354.656,263.8,354.656,263.977Z" transform="translate(-289.94 -263.655)" fill="#455a64"/>
              </g>
            </g>
          </g>
          <g id="Group_1716" data-name="Group 1716" transform="translate(0 105.493)">
            <g id="Group_1715" data-name="Group 1715">
              <g id="Group_1714" data-name="Group 1714">
                <path id="Path_3535" data-name="Path 3535" d="M328.727,271.545c0,.179-8.683.323-19.393.323s-19.394-.144-19.394-.323,8.682-.322,19.394-.322S328.727,271.367,328.727,271.545Z" transform="translate(-289.94 -271.223)" fill="#455a64"/>
              </g>
            </g>
          </g>
          <g id="Group_1718" data-name="Group 1718">
            <g id="Group_1717" data-name="Group 1717">
              <rect id="Rectangle_657" data-name="Rectangle 657" width="30.767" height="3.902" fill="#455a64"/>
            </g>
          </g>
          <g id="Group_1728" data-name="Group 1728" transform="translate(0 12.565)">
            <g id="Group_1720" data-name="Group 1720">
              <g id="Group_1719" data-name="Group 1719">
                <rect id="Rectangle_658" data-name="Rectangle 658" width="67.618" height="65.42" fill="#e0e0e0"/>
              </g>
            </g>
            <g id="Group_1722" data-name="Group 1722" transform="translate(5.243 26.156)">
              <g id="Group_1721" data-name="Group 1721">
                <path id="Path_3536" data-name="Path 3536" d="M294.521,246.537l18.705-33.664,15.3,21.517,9.3-11.426,13.831,23.574Z" transform="translate(-294.521 -212.873)" fill="#f63"/>
              </g>
            </g>
            <g id="Group_1724" data-name="Group 1724" transform="translate(36.033 14.743)">
              <g id="Group_1723" data-name="Group 1723">
                <circle id="Ellipse_27" data-name="Ellipse 27" cx="4.866" cy="4.866" r="4.866" fill="#f63"/>
              </g>
            </g>
            <g id="Group_1727" data-name="Group 1727" transform="translate(4.849 5.09)">
              <g id="Group_1726" data-name="Group 1726">
                <g id="Group_1725" data-name="Group 1725">
                  <path id="Path_3537" data-name="Path 3537" d="M351.7,249.376a1.863,1.863,0,0,1-.016-.268c0-.2-.009-.445-.015-.763-.008-.7-.018-1.679-.032-2.943-.017-2.6-.041-6.346-.072-11.11-.034-9.556-.084-23.163-.142-39.5l.277.277-57.128.046c-.077.068.605-.606.317-.314v3.71q0,1.854,0,3.693,0,3.677,0,7.284c0,4.807,0,9.515-.008,14.1-.01,9.163-.021,17.824-.03,25.793l-.282-.28,41.309.143c4.993.031,8.93.055,11.652.073l3.091.032.8.016a2.1,2.1,0,0,1,.281.016,1.339,1.339,0,0,1-.251.016l-.77.016-3.036.032-11.589.074-41.489.142h-.28v-.282c-.009-7.969-.019-16.63-.031-25.793,0-4.582,0-9.29-.008-14.1q0-3.6,0-7.284,0-1.838,0-3.693V194.8c-.287.283.391-.4.327-.331l57.128.045h.277v.276c-.058,16.411-.106,30.079-.141,39.676-.031,4.738-.055,8.469-.072,11.048q-.021,1.864-.032,2.891c-.007.306-.011.545-.016.733A1.156,1.156,0,0,1,351.7,249.376Z" transform="translate(-294.178 -194.463)" fill="#455a64"/>
                </g>
              </g>
            </g>
          </g>
        </g>
        <g id="Group_1751" data-name="Group 1751" transform="translate(212.585 29.922)">
          <g id="Group_1732" data-name="Group 1732" transform="translate(0 88.173)">
            <g id="Group_1731" data-name="Group 1731">
              <g id="Group_1730" data-name="Group 1730">
                <path id="Path_3538" data-name="Path 3538" d="M426.692,256.41c0,.177-14.488.322-32.358.322s-32.358-.144-32.358-.322,14.485-.323,32.358-.323S426.692,256.23,426.692,256.41Z" transform="translate(-361.976 -256.087)" fill="#455a64"/>
              </g>
            </g>
          </g>
          <g id="Group_1735" data-name="Group 1735" transform="translate(0 96.833)">
            <g id="Group_1734" data-name="Group 1734">
              <g id="Group_1733" data-name="Group 1733">
                <path id="Path_3539" data-name="Path 3539" d="M426.692,263.977c0,.179-14.488.323-32.358.323s-32.358-.144-32.358-.323,14.485-.322,32.358-.322S426.692,263.8,426.692,263.977Z" transform="translate(-361.976 -263.655)" fill="#455a64"/>
              </g>
            </g>
          </g>
          <g id="Group_1738" data-name="Group 1738" transform="translate(0 105.493)">
            <g id="Group_1737" data-name="Group 1737">
              <g id="Group_1736" data-name="Group 1736">
                <path id="Path_3540" data-name="Path 3540" d="M400.762,271.545c0,.179-8.683.323-19.393.323s-19.393-.144-19.393-.323,8.681-.322,19.393-.322S400.762,271.367,400.762,271.545Z" transform="translate(-361.976 -271.223)" fill="#455a64"/>
              </g>
            </g>
          </g>
          <g id="Group_1740" data-name="Group 1740">
            <g id="Group_1739" data-name="Group 1739">
              <rect id="Rectangle_659" data-name="Rectangle 659" width="30.767" height="3.902" fill="#455a64"/>
            </g>
          </g>
          <g id="Group_1750" data-name="Group 1750" transform="translate(0 12.565)">
            <g id="Group_1742" data-name="Group 1742">
              <g id="Group_1741" data-name="Group 1741">
                <rect id="Rectangle_660" data-name="Rectangle 660" width="67.617" height="65.42" fill="#e0e0e0"/>
              </g>
            </g>
            <g id="Group_1744" data-name="Group 1744" transform="translate(5.242 26.156)">
              <g id="Group_1743" data-name="Group 1743">
                <path id="Path_3541" data-name="Path 3541" d="M366.557,246.537l18.705-33.664,15.3,21.517,9.3-11.426,13.831,23.574Z" transform="translate(-366.557 -212.873)" fill="#e8505b"/>
              </g>
            </g>
            <g id="Group_1746" data-name="Group 1746" transform="translate(36.032 14.743)">
              <g id="Group_1745" data-name="Group 1745">
                <path id="Path_3542" data-name="Path 3542" d="M403.2,207.765a4.866,4.866,0,1,1-4.866-4.866A4.865,4.865,0,0,1,403.2,207.765Z" transform="translate(-393.463 -202.899)" fill="#e8505b"/>
              </g>
            </g>
            <g id="Group_1749" data-name="Group 1749" transform="translate(4.849 5.09)">
              <g id="Group_1748" data-name="Group 1748">
                <g id="Group_1747" data-name="Group 1747">
                  <path id="Path_3543" data-name="Path 3543" d="M423.739,249.376a2.112,2.112,0,0,1-.016-.268c0-.2-.009-.445-.014-.763-.008-.7-.019-1.679-.033-2.943-.016-2.6-.041-6.346-.072-11.11-.034-9.556-.084-23.163-.141-39.5l.276.277-57.127.046c-.078.068.6-.606.316-.314v3.71q0,1.854,0,3.693,0,3.677,0,7.284c0,4.807-.006,9.515-.008,14.1-.011,9.163-.022,17.824-.031,25.793l-.28-.28,41.309.143c4.993.031,8.929.055,11.65.073l3.092.032.8.016a2.073,2.073,0,0,1,.281.016,1.316,1.316,0,0,1-.249.016l-.771.016-3.036.032-11.587.074-41.489.142h-.28v-.282c-.01-7.969-.021-16.63-.031-25.793,0-4.582-.006-9.29-.008-14.1q0-3.6,0-7.284,0-1.838,0-3.693V194.8c-.287.283.391-.4.328-.331l57.127.045h.278v.276c-.059,16.411-.108,30.079-.142,39.676-.031,4.738-.055,8.469-.071,11.048q-.022,1.864-.033,2.891c-.007.306-.011.545-.015.733A1.192,1.192,0,0,1,423.739,249.376Z" transform="translate(-366.213 -194.463)" fill="#455a64"/>
                </g>
              </g>
            </g>
          </g>
        </g>
        <g id="Group_1764" data-name="Group 1764" transform="translate(132.319 147.805)">
          <g id="Group_1753" data-name="Group 1753">
            <g id="Group_1752" data-name="Group 1752">
              <rect id="Rectangle_661" data-name="Rectangle 661" width="30.767" height="3.902" fill="#455a64"/>
            </g>
          </g>
          <g id="Group_1763" data-name="Group 1763" transform="translate(0 12.565)">
            <g id="Group_1755" data-name="Group 1755">
              <g id="Group_1754" data-name="Group 1754">
                <rect id="Rectangle_662" data-name="Rectangle 662" width="67.618" height="65.42" fill="#e0e0e0"/>
              </g>
            </g>
            <g id="Group_1757" data-name="Group 1757" transform="translate(5.243 26.156)">
              <g id="Group_1756" data-name="Group 1756">
                <path id="Path_3544" data-name="Path 3544" d="M296.414,349.552l18.705-33.664,15.3,21.516,9.3-11.426,13.831,23.574Z" transform="translate(-296.414 -315.888)" fill="#e8505b"/>
              </g>
            </g>
            <g id="Group_1759" data-name="Group 1759" transform="translate(36.033 14.744)">
              <g id="Group_1758" data-name="Group 1758">
                <path id="Path_3545" data-name="Path 3545" d="M333.053,310.781a4.866,4.866,0,1,1-4.867-4.866A4.866,4.866,0,0,1,333.053,310.781Z" transform="translate(-323.321 -305.915)" fill="#e8505b"/>
              </g>
            </g>
            <g id="Group_1762" data-name="Group 1762" transform="translate(4.849 5.089)">
              <g id="Group_1761" data-name="Group 1761">
                <g id="Group_1760" data-name="Group 1760">
                  <path id="Path_3546" data-name="Path 3546" d="M353.6,352.391a2.255,2.255,0,0,1-.015-.268c0-.2-.009-.445-.016-.762q-.01-1.044-.032-2.944c-.017-2.594-.041-6.346-.072-11.109-.034-9.556-.082-23.163-.141-39.5l.276.276-57.128.046c-.076.069.605-.605.317-.312v7.4q0,3.675,0,7.284c0,4.807-.006,9.514-.008,14.1-.01,9.163-.022,17.824-.031,25.793l-.28-.28,41.309.143,11.65.073,3.091.033.8.016a2.507,2.507,0,0,1,.281.015,1.217,1.217,0,0,1-.249.016l-.77.017q-1.076.009-3.037.032c-2.706.017-6.622.041-11.587.074l-41.489.142h-.28v-.283c-.009-7.969-.021-16.63-.031-25.793,0-4.582-.006-9.288-.008-14.1q0-3.606,0-7.284v-7.4c-.287.283.391-.4.327-.332l57.128.046h.278v.277c-.058,16.41-.108,30.077-.142,39.676-.031,4.737-.055,8.468-.072,11.047q-.021,1.864-.031,2.892c-.007.3-.013.544-.016.732A1.084,1.084,0,0,1,353.6,352.391Z" transform="translate(-296.07 -297.478)" fill="#455a64"/>
                </g>
              </g>
            </g>
          </g>
        </g>
        <g id="Group_1777" data-name="Group 1777" transform="translate(214.809 147.805)">
          <g id="Group_1766" data-name="Group 1766">
            <g id="Group_1765" data-name="Group 1765">
              <rect id="Rectangle_663" data-name="Rectangle 663" width="30.767" height="3.902" fill="#455a64"/>
            </g>
          </g>
          <g id="Group_1776" data-name="Group 1776" transform="translate(0 12.565)">
            <g id="Group_1768" data-name="Group 1768">
              <g id="Group_1767" data-name="Group 1767">
                <rect id="Rectangle_664" data-name="Rectangle 664" width="67.617" height="65.42" fill="#e0e0e0"/>
              </g>
            </g>
            <g id="Group_1770" data-name="Group 1770" transform="translate(5.242 26.156)">
              <g id="Group_1769" data-name="Group 1769">
                <path id="Path_3547" data-name="Path 3547" d="M368.5,349.552l18.705-33.664,15.3,21.516,9.3-11.426,13.831,23.574Z" transform="translate(-368.5 -315.888)" fill="#e8505b"/>
              </g>
            </g>
            <g id="Group_1772" data-name="Group 1772" transform="translate(36.032 14.744)">
              <g id="Group_1771" data-name="Group 1771">
                <path id="Path_3548" data-name="Path 3548" d="M405.139,310.781a4.866,4.866,0,1,1-4.866-4.866A4.866,4.866,0,0,1,405.139,310.781Z" transform="translate(-395.407 -305.915)" fill="#e8505b"/>
              </g>
            </g>
            <g id="Group_1775" data-name="Group 1775" transform="translate(4.848 5.089)">
              <g id="Group_1774" data-name="Group 1774">
                <g id="Group_1773" data-name="Group 1773">
                  <path id="Path_3549" data-name="Path 3549" d="M425.682,352.391a1.985,1.985,0,0,1-.015-.268c0-.2-.009-.445-.016-.762q-.01-1.044-.031-2.944c-.017-2.594-.042-6.346-.073-11.109-.033-9.556-.082-23.163-.141-39.5l.276.276-57.127.046c-.078.069.6-.605.316-.312v7.4q0,3.675,0,7.284c0,4.807-.006,9.514-.008,14.1-.01,9.163-.022,17.824-.031,25.793l-.28-.28,41.309.143,11.652.073,3.091.033.8.016a2.535,2.535,0,0,1,.281.015,1.211,1.211,0,0,1-.251.016l-.769.017q-1.076.009-3.037.032c-2.706.017-6.622.041-11.589.074l-41.487.142h-.28v-.283c-.009-7.969-.021-16.63-.031-25.793,0-4.582-.006-9.288-.008-14.1q0-3.606,0-7.284v-7.4c-.287.283.391-.4.328-.332l57.127.046h.277v.277c-.057,16.41-.105,30.077-.141,39.676-.031,4.737-.054,8.468-.071,11.047q-.022,1.864-.032,2.892c-.007.3-.011.544-.016.732A1.193,1.193,0,0,1,425.682,352.391Z" transform="translate(-368.156 -297.478)" fill="#455a64"/>
                </g>
              </g>
            </g>
          </g>
        </g>
        <g id="Group_1790" data-name="Group 1790" transform="translate(299.927 147.805)">
          <g id="Group_1779" data-name="Group 1779">
            <g id="Group_1778" data-name="Group 1778">
              <rect id="Rectangle_665" data-name="Rectangle 665" width="30.767" height="3.902" fill="#455a64"/>
            </g>
          </g>
          <g id="Group_1789" data-name="Group 1789" transform="translate(0 12.565)">
            <g id="Group_1781" data-name="Group 1781">
              <g id="Group_1780" data-name="Group 1780">
                <rect id="Rectangle_666" data-name="Rectangle 666" width="67.618" height="65.42" fill="#e0e0e0"/>
              </g>
            </g>
            <g id="Group_1783" data-name="Group 1783" transform="translate(5.242 26.156)">
              <g id="Group_1782" data-name="Group 1782">
                <path id="Path_3550" data-name="Path 3550" d="M442.883,349.552l18.706-33.664,15.3,21.516,9.3-11.426,13.831,23.574Z" transform="translate(-442.883 -315.888)" fill="#e8505b"/>
              </g>
            </g>
            <g id="Group_1785" data-name="Group 1785" transform="translate(36.033 14.744)">
              <g id="Group_1784" data-name="Group 1784">
                <path id="Path_3551" data-name="Path 3551" d="M479.522,310.781a4.866,4.866,0,1,1-4.866-4.866A4.866,4.866,0,0,1,479.522,310.781Z" transform="translate(-469.791 -305.915)" fill="#e8505b"/>
              </g>
            </g>
            <g id="Group_1788" data-name="Group 1788" transform="translate(4.849 5.089)">
              <g id="Group_1787" data-name="Group 1787">
                <g id="Group_1786" data-name="Group 1786">
                  <path id="Path_3552" data-name="Path 3552" d="M500.066,352.391a1.84,1.84,0,0,1-.016-.268c0-.2-.008-.445-.015-.762q-.01-1.044-.032-2.944c-.016-2.594-.041-6.346-.072-11.109-.033-9.556-.082-23.163-.141-39.5l.276.276-57.128.046c-.077.069.6-.605.318-.312v7.4q0,3.675,0,7.284c0,4.807-.006,9.514-.008,14.1-.011,9.163-.022,17.824-.031,25.793l-.281-.28,41.31.143,11.652.073,3.091.033.8.016a2.536,2.536,0,0,1,.281.015,1.225,1.225,0,0,1-.251.016l-.77.017q-1.076.009-3.036.032c-2.706.017-6.622.041-11.589.074l-41.489.142h-.279v-.283c-.009-7.969-.018-16.63-.03-25.793,0-4.582-.006-9.288-.008-14.1q0-3.606,0-7.284,0-1.84,0-3.694v-3.709c-.287.283.391-.4.327-.332l57.128.046h.277v.277c-.058,16.41-.108,30.077-.141,39.676-.031,4.737-.055,8.468-.072,11.047q-.021,1.864-.032,2.892c-.006.3-.01.544-.015.732A1.191,1.191,0,0,1,500.066,352.391Z" transform="translate(-442.54 -297.478)" fill="#455a64"/>
                </g>
              </g>
            </g>
          </g>
        </g>
        <g id="Group_1825" data-name="Group 1825" transform="translate(302.859 29.831)">
          <g id="Group_1815" data-name="Group 1815" transform="translate(0 12.3)">
            <g id="Group_1793" data-name="Group 1793" transform="translate(58.355 58.354)">
              <g id="Group_1792" data-name="Group 1792">
                <g id="Group_1791" data-name="Group 1791">
                  <path id="Path_3553" data-name="Path 3553" d="M491.859,248.12c0-.177,3.323-.323,7.421-.323-.642.644-.177.177-.322.32v-.756c0-.248,0-.494,0-.737.007-.474.014-.936.018-1.393.024-.812.047-1.6.07-2.36a7.429,7.429,0,0,1,.228-2.174,7.483,7.483,0,0,1,.228,2.174c.023.763.045,1.547.069,2.36.007.457.013.919.019,1.393q0,.364,0,.737l0,.378v.379c-.144.144.323-.319-.323.324C495.182,248.442,491.859,248.3,491.859,248.12Z" transform="translate(-491.859 -240.698)" fill="#455a64"/>
                </g>
              </g>
            </g>
            <g id="Group_1796" data-name="Group 1796" transform="translate(24.635 65.454)">
              <g id="Group_1795" data-name="Group 1795">
                <g id="Group_1794" data-name="Group 1794">
                  <path id="Path_3554" data-name="Path 3554" d="M462.392,247.225c0-.177,3.774-.323,8.429-.323s8.43.145,8.43.323-3.773.322-8.43.322S462.392,247.4,462.392,247.225Z" transform="translate(-462.392 -246.902)" fill="#455a64"/>
                </g>
              </g>
            </g>
            <g id="Group_1799" data-name="Group 1799" transform="translate(0.031 58.354)">
              <g id="Group_1798" data-name="Group 1798">
                <g id="Group_1797" data-name="Group 1797">
                  <path id="Path_3555" data-name="Path 3555" d="M441.212,240.7c.179,0,.323,3.323.323,7.422-.644-.643-.177-.179-.32-.323h.756l.737,0,1.394.019,2.358.069a7.43,7.43,0,0,1,2.174.228,7.43,7.43,0,0,1-2.174.228l-2.358.069-1.394.019-.737,0h-.756c-.144-.143.32.323-.324-.322C440.891,244.021,441.035,240.7,441.212,240.7Z" transform="translate(-440.891 -240.698)" fill="#455a64"/>
                </g>
              </g>
            </g>
            <g id="Group_1802" data-name="Group 1802" transform="translate(0.031 24.635)">
              <g id="Group_1801" data-name="Group 1801">
                <g id="Group_1800" data-name="Group 1800">
                  <path id="Path_3556" data-name="Path 3556" d="M441.212,211.231c.179,0,.323,3.774.323,8.429s-.144,8.43-.323,8.43-.322-3.773-.322-8.43S441.035,211.231,441.212,211.231Z" transform="translate(-440.891 -211.231)" fill="#455a64"/>
                </g>
              </g>
            </g>
            <g id="Group_1805" data-name="Group 1805" transform="translate(0 0.03)">
              <g id="Group_1804" data-name="Group 1804">
                <g id="Group_1803" data-name="Group 1803">
                  <path id="Path_3557" data-name="Path 3557" d="M448.638,190.052c0,.179-3.323.323-7.422.323.644-.644.18-.177.323-.319v.755c0,.248,0,.493-.006.737-.007.474-.013.937-.019,1.394-.023.812-.046,1.6-.068,2.36a7.5,7.5,0,0,1-.229,2.173,7.426,7.426,0,0,1-.228-2.173c-.022-.764-.046-1.547-.069-2.36-.006-.457-.013-.92-.019-1.394,0-.244,0-.489,0-.737v-.755c.143-.145-.323.318.322-.325C445.315,189.73,448.638,189.874,448.638,190.052Z" transform="translate(-440.864 -189.73)" fill="#455a64"/>
                </g>
              </g>
            </g>
            <g id="Group_1808" data-name="Group 1808" transform="translate(24.635 0.03)">
              <g id="Group_1807" data-name="Group 1807">
                <g id="Group_1806" data-name="Group 1806">
                  <path id="Path_3558" data-name="Path 3558" d="M479.251,190.052c0,.179-3.774.323-8.429.323s-8.43-.144-8.43-.323,3.774-.322,8.43-.322S479.251,189.874,479.251,190.052Z" transform="translate(-462.392 -189.73)" fill="#455a64"/>
                </g>
              </g>
            </g>
            <g id="Group_1811" data-name="Group 1811" transform="translate(58.355)">
              <g id="Group_1810" data-name="Group 1810">
                <g id="Group_1809" data-name="Group 1809">
                  <path id="Path_3559" data-name="Path 3559" d="M499.281,197.477c-.177,0-.323-3.323-.323-7.421.643.642.177.177.319.322h-.755l-.737-.006-1.393-.019-2.361-.068a7.446,7.446,0,0,1-2.173-.229,7.475,7.475,0,0,1,2.173-.228l2.361-.069,1.393-.019.737,0h.755c.145.143-.318-.323.325.323C499.6,194.154,499.458,197.477,499.281,197.477Z" transform="translate(-491.859 -189.703)" fill="#455a64"/>
                </g>
              </g>
            </g>
            <g id="Group_1814" data-name="Group 1814" transform="translate(65.454 24.635)">
              <g id="Group_1813" data-name="Group 1813">
                <g id="Group_1812" data-name="Group 1812">
                  <path id="Path_3560" data-name="Path 3560" d="M498.386,228.09c-.177,0-.323-3.774-.323-8.429s.145-8.43.323-8.43.322,3.774.322,8.43S498.563,228.09,498.386,228.09Z" transform="translate(-498.063 -211.231)" fill="#455a64"/>
                </g>
              </g>
            </g>
          </g>
          <g id="Group_1824" data-name="Group 1824" transform="translate(0.11)">
            <g id="Group_1818" data-name="Group 1818" transform="translate(0 88.173)">
              <g id="Group_1817" data-name="Group 1817">
                <g id="Group_1816" data-name="Group 1816">
                  <path id="Path_3561" data-name="Path 3561" d="M505.677,256.33c0,.177-14.488.322-32.357.322s-32.36-.144-32.36-.322,14.487-.323,32.36-.323S505.677,256.151,505.677,256.33Z" transform="translate(-440.96 -256.007)" fill="#455a64"/>
                </g>
              </g>
            </g>
            <g id="Group_1821" data-name="Group 1821" transform="translate(0 96.833)">
              <g id="Group_1820" data-name="Group 1820">
                <g id="Group_1819" data-name="Group 1819">
                  <path id="Path_3562" data-name="Path 3562" d="M505.677,263.9c0,.177-14.488.322-32.357.322s-32.36-.144-32.36-.322,14.487-.323,32.36-.323S505.677,263.719,505.677,263.9Z" transform="translate(-440.96 -263.575)" fill="#455a64"/>
                </g>
              </g>
            </g>
            <g id="Group_1823" data-name="Group 1823" transform="translate(0.001)">
              <g id="Group_1822" data-name="Group 1822">
                <rect id="Rectangle_667" data-name="Rectangle 667" width="30.767" height="3.902" fill="#455a64"/>
              </g>
            </g>
          </g>
        </g>
        <g id="Group_1846" data-name="Group 1846" transform="translate(28.783 47.577)">
          <g id="Group_1827" data-name="Group 1827" transform="translate(3.595)">
            <g id="Group_1826" data-name="Group 1826">
              <path id="Path_3563" data-name="Path 3563" d="M270.811,227.62a33.157,33.157,0,1,1-33.157-33.157A33.158,33.158,0,0,1,270.811,227.62Z" transform="translate(-204.497 -194.463)" fill="#e0e0e0"/>
            </g>
          </g>
          <g id="Group_1830" data-name="Group 1830" transform="translate(0.406 105.108)">
            <g id="Group_1829" data-name="Group 1829">
              <g id="Group_1828" data-name="Group 1828">
                <path id="Path_3564" data-name="Path 3564" d="M277.779,286.637c0,.177-17.03.322-38.033.322s-38.036-.144-38.036-.322,17.026-.322,38.036-.322S277.779,286.459,277.779,286.637Z" transform="translate(-201.71 -286.315)" fill="#455a64"/>
              </g>
            </g>
          </g>
          <g id="Group_1833" data-name="Group 1833" transform="translate(0.406 113.524)">
            <g id="Group_1832" data-name="Group 1832">
              <g id="Group_1831" data-name="Group 1831">
                <path id="Path_3565" data-name="Path 3565" d="M277.779,293.991c0,.177-17.03.322-38.033.322s-38.036-.144-38.036-.322,17.026-.322,38.036-.322S277.779,293.812,277.779,293.991Z" transform="translate(-201.71 -293.669)" fill="#455a64"/>
              </g>
            </g>
          </g>
          <g id="Group_1836" data-name="Group 1836" transform="translate(0.406 121.937)">
            <g id="Group_1835" data-name="Group 1835">
              <g id="Group_1834" data-name="Group 1834">
                <path id="Path_3566" data-name="Path 3566" d="M277.779,301.344c0,.177-17.03.322-38.033.322s-38.036-.144-38.036-.322,17.026-.323,38.036-.323S277.779,301.165,277.779,301.344Z" transform="translate(-201.71 -301.021)" fill="#455a64"/>
              </g>
            </g>
          </g>
          <g id="Group_1839" data-name="Group 1839" transform="translate(0 130.532)">
            <g id="Group_1838" data-name="Group 1838">
              <g id="Group_1837" data-name="Group 1837">
                <path id="Path_3567" data-name="Path 3567" d="M245.464,308.853c0,.177-9.874.322-22.053.322s-22.056-.144-22.056-.322,9.873-.322,22.056-.322S245.464,308.676,245.464,308.853Z" transform="translate(-201.355 -308.532)" fill="#455a64"/>
              </g>
            </g>
          </g>
          <g id="Group_1841" data-name="Group 1841" transform="translate(0.407 88.264)">
            <g id="Group_1840" data-name="Group 1840" transform="translate(0 0)">
              <rect id="Rectangle_668" data-name="Rectangle 668" width="52.41" height="3.831" transform="translate(52.41 3.831) rotate(180)" fill="#455a64"/>
            </g>
          </g>
          <g id="Group_1843" data-name="Group 1843" transform="translate(15.972 18.619)">
            <g id="Group_1842" data-name="Group 1842">
              <path id="Path_3568" data-name="Path 3568" d="M215.313,250.6a32.121,32.121,0,0,0,42.059-.027c-1.754-6-6.036-13.117-16.436-14.689a13.026,13.026,0,0,0,7.763-12.058c.031-7.2-5.417-13.064-12.169-13.094s-12.249,5.781-12.279,12.981a13.017,13.017,0,0,0,7.789,12.172C221.465,237.481,217.1,244.639,215.313,250.6Z" transform="translate(-215.313 -210.734)" fill="#f63"/>
            </g>
          </g>
          <g id="Group_1845" data-name="Group 1845" transform="translate(0.407 143.986)">
            <g id="Group_1844" data-name="Group 1844">
              <rect id="Rectangle_669" data-name="Rectangle 669" width="29.381" height="3.576" fill="#f63"/>
            </g>
          </g>
        </g>
        <g id="Group_1898" data-name="Group 1898" transform="translate(132.377 29.6)">
          <g id="Group_1849" data-name="Group 1849" transform="translate(79.39 88.173)">
            <g id="Group_1848" data-name="Group 1848">
              <g id="Group_1847" data-name="Group 1847">
                <path id="Path_3569" data-name="Path 3569" d="M425.976,256.128c0,.177-14.488.322-32.356.322s-32.36-.144-32.36-.322,14.486-.323,32.36-.323S425.976,255.949,425.976,256.128Z" transform="translate(-361.26 -255.805)" fill="#455a64"/>
              </g>
            </g>
          </g>
          <g id="Group_1852" data-name="Group 1852" transform="translate(79.39 96.833)">
            <g id="Group_1851" data-name="Group 1851">
              <g id="Group_1850" data-name="Group 1850">
                <path id="Path_3570" data-name="Path 3570" d="M425.976,263.694c0,.18-14.488.324-32.356.324s-32.36-.144-32.36-.324,14.486-.322,32.36-.322S425.976,263.517,425.976,263.694Z" transform="translate(-361.26 -263.373)" fill="#455a64"/>
              </g>
            </g>
          </g>
          <g id="Group_1855" data-name="Group 1855" transform="translate(79.39 105.493)">
            <g id="Group_1854" data-name="Group 1854">
              <g id="Group_1853" data-name="Group 1853">
                <path id="Path_3571" data-name="Path 3571" d="M400.047,271.264c0,.177-8.683.322-19.393.322s-19.394-.144-19.394-.322,8.682-.323,19.394-.323S400.047,271.085,400.047,271.264Z" transform="translate(-361.26 -270.941)" fill="#455a64"/>
              </g>
            </g>
          </g>
          <g id="Group_1857" data-name="Group 1857" transform="translate(79.39)">
            <g id="Group_1856" data-name="Group 1856">
              <rect id="Rectangle_670" data-name="Rectangle 670" width="30.767" height="3.902" fill="#455a64"/>
            </g>
          </g>
          <g id="Group_1867" data-name="Group 1867" transform="translate(79.39 12.565)">
            <g id="Group_1859" data-name="Group 1859">
              <g id="Group_1858" data-name="Group 1858">
                <rect id="Rectangle_671" data-name="Rectangle 671" width="67.618" height="65.42" fill="#e0e0e0"/>
              </g>
            </g>
            <g id="Group_1861" data-name="Group 1861" transform="translate(5.243 26.156)">
              <g id="Group_1860" data-name="Group 1860">
                <path id="Path_3572" data-name="Path 3572" d="M365.842,246.255l18.705-33.664,15.3,21.517,9.3-11.426,13.831,23.574Z" transform="translate(-365.842 -212.591)" fill="#f63"/>
              </g>
            </g>
            <g id="Group_1863" data-name="Group 1863" transform="translate(36.033 14.743)">
              <g id="Group_1862" data-name="Group 1862">
                <circle id="Ellipse_28" data-name="Ellipse 28" cx="4.866" cy="4.866" r="4.866" fill="#f63"/>
              </g>
            </g>
            <g id="Group_1866" data-name="Group 1866" transform="translate(4.849 5.09)">
              <g id="Group_1865" data-name="Group 1865">
                <g id="Group_1864" data-name="Group 1864">
                  <path id="Path_3573" data-name="Path 3573" d="M423.024,249.094a1.87,1.87,0,0,1-.016-.268c0-.2-.009-.445-.015-.762q-.012-1.045-.032-2.944c-.017-2.594-.041-6.346-.072-11.11-.034-9.555-.084-23.162-.142-39.5l.277.276-57.128.046c-.077.068.605-.605.317-.312v3.709q0,1.854,0,3.693,0,3.677,0,7.285c0,4.807,0,9.514-.007,14.1-.011,9.163-.022,17.825-.031,25.793l-.28-.28,41.308.143,11.652.073,3.091.033.8.015a2.363,2.363,0,0,1,.281.016,1.218,1.218,0,0,1-.249.016l-.771.016-3.036.033-11.589.073-41.487.143h-.282v-.283c-.009-7.968-.019-16.63-.03-25.793,0-4.582-.006-9.288-.009-14.1q0-3.606,0-7.285,0-1.838,0-3.693v-3.709c-.287.283.391-.4.327-.332l57.128.046h.277v.277c-.059,16.41-.108,30.077-.142,39.676-.031,4.736-.055,8.468-.072,11.047q-.021,1.864-.032,2.891c-.007.306-.011.545-.016.734A1.165,1.165,0,0,1,423.024,249.094Z" transform="translate(-365.498 -194.181)" fill="#455a64"/>
                </g>
              </g>
            </g>
          </g>
          <g id="Group_1877" data-name="Group 1877" transform="translate(0 131.042)">
            <g id="Group_1869" data-name="Group 1869">
              <g id="Group_1868" data-name="Group 1868">
                <rect id="Rectangle_672" data-name="Rectangle 672" width="67.618" height="65.42" fill="#e0e0e0"/>
              </g>
            </g>
            <g id="Group_1871" data-name="Group 1871" transform="translate(5.243 26.156)">
              <g id="Group_1870" data-name="Group 1870">
                <path id="Path_3574" data-name="Path 3574" d="M296.465,349.789l18.705-33.664,15.3,21.517,9.3-11.426L353.6,349.789Z" transform="translate(-296.465 -316.125)" fill="#f63"/>
              </g>
            </g>
            <g id="Group_1873" data-name="Group 1873" transform="translate(36.033 14.743)">
              <g id="Group_1872" data-name="Group 1872">
                <circle id="Ellipse_29" data-name="Ellipse 29" cx="4.866" cy="4.866" r="4.866" fill="#f63"/>
              </g>
            </g>
            <g id="Group_1876" data-name="Group 1876" transform="translate(4.849 5.09)">
              <g id="Group_1875" data-name="Group 1875">
                <g id="Group_1874" data-name="Group 1874">
                  <path id="Path_3575" data-name="Path 3575" d="M353.647,352.629a2.156,2.156,0,0,1-.016-.269c0-.2-.009-.445-.015-.762q-.012-1.045-.032-2.944c-.017-2.594-.041-6.346-.072-11.11-.034-9.555-.084-23.162-.142-39.5l.277.276-57.127.046c-.078.068.6-.605.316-.312v3.709q0,1.855,0,3.694,0,3.677,0,7.284,0,7.211-.007,14.1c-.011,9.162-.022,17.824-.031,25.792l-.28-.28,41.308.143,11.651.073,3.091.033.8.016a1.828,1.828,0,0,1,.281.016,1.444,1.444,0,0,1-.249.015l-.771.017-3.036.032L338,352.766l-41.489.143h-.28v-.283c-.01-7.968-.021-16.63-.031-25.792q-.005-6.874-.009-14.1,0-3.606,0-7.284,0-1.84,0-3.694v-3.709c-.287.283.391-.4.328-.332l57.127.046h.278v.277c-.06,16.41-.108,30.077-.142,39.676-.031,4.737-.055,8.468-.072,11.047q-.021,1.866-.032,2.892c-.007.3-.011.545-.015.732A1.23,1.23,0,0,1,353.647,352.629Z" transform="translate(-296.121 -297.715)" fill="#455a64"/>
                </g>
              </g>
            </g>
          </g>
          <g id="Group_1887" data-name="Group 1887" transform="translate(82.432 130.748)">
            <g id="Group_1879" data-name="Group 1879">
              <g id="Group_1878" data-name="Group 1878">
                <rect id="Rectangle_673" data-name="Rectangle 673" width="67.618" height="65.42" fill="#e0e0e0"/>
              </g>
            </g>
            <g id="Group_1881" data-name="Group 1881" transform="translate(5.243 26.156)">
              <g id="Group_1880" data-name="Group 1880">
                <path id="Path_3576" data-name="Path 3576" d="M368.5,349.532l18.705-33.664,15.3,21.517,9.3-11.426,13.831,23.574Z" transform="translate(-368.5 -315.868)" fill="#f63"/>
              </g>
            </g>
            <g id="Group_1883" data-name="Group 1883" transform="translate(36.033 14.743)">
              <g id="Group_1882" data-name="Group 1882">
                <circle id="Ellipse_30" data-name="Ellipse 30" cx="4.866" cy="4.866" r="4.866" fill="#f63"/>
              </g>
            </g>
            <g id="Group_1886" data-name="Group 1886" transform="translate(4.849 5.09)">
              <g id="Group_1885" data-name="Group 1885">
                <g id="Group_1884" data-name="Group 1884">
                  <path id="Path_3577" data-name="Path 3577" d="M425.682,352.371a2.008,2.008,0,0,1-.015-.268c0-.2-.009-.445-.016-.762q-.01-1.045-.032-2.944c-.017-2.594-.041-6.346-.071-11.11-.036-9.555-.084-23.162-.142-39.5l.276.276-57.127.046c-.078.068.6-.605.316-.312v7.4q0,3.677,0,7.285c0,4.807-.006,9.514-.008,14.1-.01,9.163-.022,17.825-.031,25.793l-.28-.28,41.309.143,11.65.073,3.091.033.8.015a2.308,2.308,0,0,1,.281.016,1.214,1.214,0,0,1-.249.016l-.77.016-3.037.033-11.587.073-41.489.143h-.28v-.283c-.009-7.968-.021-16.63-.031-25.793,0-4.582-.006-9.288-.008-14.1q0-3.606,0-7.285v-7.4c-.287.283.391-.4.328-.332l57.127.046h.278v.277c-.058,16.41-.108,30.077-.142,39.676-.03,4.736-.055,8.468-.072,11.047q-.021,1.864-.031,2.891c-.007.306-.013.545-.016.734A1.191,1.191,0,0,1,425.682,352.371Z" transform="translate(-368.156 -297.458)" fill="#455a64"/>
                </g>
              </g>
            </g>
          </g>
          <g id="Group_1897" data-name="Group 1897" transform="translate(167.551 131.042)">
            <g id="Group_1889" data-name="Group 1889">
              <g id="Group_1888" data-name="Group 1888">
                <rect id="Rectangle_674" data-name="Rectangle 674" width="67.618" height="65.42" fill="#e0e0e0"/>
              </g>
            </g>
            <g id="Group_1891" data-name="Group 1891" transform="translate(5.243 26.156)">
              <g id="Group_1890" data-name="Group 1890">
                <path id="Path_3578" data-name="Path 3578" d="M442.884,349.789l18.705-33.664,15.3,21.517,9.3-11.426,13.831,23.574Z" transform="translate(-442.884 -316.125)" fill="#f63"/>
              </g>
            </g>
            <g id="Group_1893" data-name="Group 1893" transform="translate(36.033 14.743)">
              <g id="Group_1892" data-name="Group 1892">
                <circle id="Ellipse_31" data-name="Ellipse 31" cx="4.866" cy="4.866" r="4.866" fill="#f63"/>
              </g>
            </g>
            <g id="Group_1896" data-name="Group 1896" transform="translate(4.849 5.09)">
              <g id="Group_1895" data-name="Group 1895">
                <g id="Group_1894" data-name="Group 1894">
                  <path id="Path_3579" data-name="Path 3579" d="M500.066,352.629a1.911,1.911,0,0,1-.016-.269c0-.2-.009-.445-.015-.762q-.012-1.045-.032-2.944c-.017-2.594-.041-6.346-.072-11.11-.034-9.555-.083-23.162-.142-39.5l.277.276-57.128.046c-.077.068.605-.605.317-.312v3.709q0,1.855,0,3.694,0,3.677,0,7.284,0,7.211-.007,14.1c-.011,9.162-.022,17.824-.031,25.792l-.28-.28,41.308.143,11.652.073,3.091.033.8.016a1.864,1.864,0,0,1,.281.016,1.445,1.445,0,0,1-.249.015l-.771.017-3.036.032-11.589.073-41.487.143h-.282v-.283c-.009-7.968-.019-16.63-.03-25.792q-.005-6.874-.009-14.1,0-3.606,0-7.284,0-1.84,0-3.694v-3.709c-.287.283.391-.4.327-.332l57.128.046h.277v.277c-.06,16.41-.108,30.077-.142,39.676-.031,4.737-.055,8.468-.072,11.047q-.021,1.866-.032,2.892c-.007.3-.011.545-.016.732A1.192,1.192,0,0,1,500.066,352.629Z" transform="translate(-442.54 -297.715)" fill="#455a64"/>
                </g>
              </g>
            </g>
          </g>
        </g>
      </g>
    </g>
    <path id="Path_3580" data-name="Path 3580" d="M352.111,10.066l-85.87,0L225.692,43.234l83.445,82.422,83.442-82.422Zm-45.237,91.4c-.687-.843-3.678-6.686-16.222-15.076-11.286-7.546-18.761-13.282-22.8-25.407-3.962-11.887-1.956-24.3-.077-33.017.667,7.535,4.73,14.21,10.736,20.383,9.7,9.97,19.768,12.71,25.377,28.5C306.726,84.864,307.258,90.911,306.874,101.465ZM308.068,53.8c-.331-.4-1.743-3.163-7.675-7.13-5.337-3.568-8.871-6.283-10.785-12.018-1.873-5.62-.921-11.491-.041-15.612.318,3.563,2.241,6.718,5.085,9.639,4.584,4.715,9.348,6.01,12,13.48C307.994,45.953,308.247,48.809,308.068,53.8Zm3.551-11.641c2.651-7.47,7.411-8.766,12-13.48,2.845-2.92,4.766-6.075,5.083-9.639.885,4.121,1.833,9.992-.038,15.612-1.911,5.734-5.449,8.45-10.785,12.018-5.934,3.967-7.353,6.732-7.674,7.13C310.023,48.809,310.275,45.953,311.619,42.16Zm16,44.228c-12.545,8.39-15.534,14.233-16.224,15.076-.38-10.554.15-16.6,3-24.614,5.6-15.794,15.672-18.533,25.372-28.5C345.77,42.174,349.835,35.5,350.5,27.964c1.876,8.713,3.883,21.13-.077,33.017C346.385,73.106,338.9,78.843,327.618,86.389Z" transform="translate(22)" fill="#ebebeb" fill-rule="evenodd"/>
    <g id="Group_1934" data-name="Group 1934" transform="translate(615.716 221.077)">
      <g id="Group_1902" data-name="Group 1902" transform="translate(0 19.681)">
        <g id="Group_1901" data-name="Group 1901">
          <path id="Path_3581" data-name="Path 3581" d="M591.748,211.662l5.012,16.81a7.816,7.816,0,0,1,.445,2.347c-.042,2.368-2.284,4.227-4.613,4.664s-4.707-.2-6.988-.826c-.619,2.413-3.444,3.43-5.892,3.891a53.935,53.935,0,0,1-32.412-4.034,88.325,88.325,0,0,0,10.451-19.979l25.567,1.128a11.738,11.738,0,0,0,4.481-.38,4,4,0,0,0,2.794-3.234" transform="translate(-547.3 -211.662)" fill="#e8505b"/>
        </g>
      </g>
      <g id="Group_1904" data-name="Group 1904" transform="translate(6.875 4.798)">
        <g id="Group_1903" data-name="Group 1903">
          <path id="Path_3582" data-name="Path 3582" d="M561.585,246.364c.322-1.879-.442-9.769-.442-9.769s-7.2-.763-7.641-7.907,0-23.618,0-23.618l13.121-6.414,14.433,10.934-2.187,35.718-15.582,13.934Z" transform="translate(-553.308 -198.656)" fill="#ffbe9d"/>
        </g>
      </g>
      <g id="Group_1910" data-name="Group 1910" transform="translate(7.597 21.116)">
        <g id="Group_1906" data-name="Group 1906" transform="translate(0.9 1.19)">
          <g id="Group_1905" data-name="Group 1905">
            <path id="Path_3583" data-name="Path 3583" d="M554.726,214.87a.915.915,0,1,0,.915-.914A.915.915,0,0,0,554.726,214.87Z" transform="translate(-554.726 -213.956)" fill="#263238"/>
          </g>
        </g>
        <g id="Group_1909" data-name="Group 1909">
          <g id="Group_1908" data-name="Group 1908">
            <g id="Group_1907" data-name="Group 1907">
              <path id="Path_3584" data-name="Path 3584" d="M553.955,214.024c.118.118.793-.457,1.777-.509s1.723.421,1.826.29c.05-.058-.071-.277-.4-.5a2.428,2.428,0,0,0-2.876.176C553.993,213.74,553.9,213.971,553.955,214.024Z" transform="translate(-553.939 -212.916)" fill="#263238"/>
            </g>
          </g>
        </g>
      </g>
      <g id="Group_1916" data-name="Group 1916" transform="translate(18.51 21.116)">
        <g id="Group_1912" data-name="Group 1912" transform="translate(0.585 1.19)">
          <g id="Group_1911" data-name="Group 1911">
            <path id="Path_3585" data-name="Path 3585" d="M563.986,214.87a.914.914,0,1,0,.914-.914A.914.914,0,0,0,563.986,214.87Z" transform="translate(-563.986 -213.956)" fill="#263238"/>
          </g>
        </g>
        <g id="Group_1915" data-name="Group 1915">
          <g id="Group_1914" data-name="Group 1914">
            <g id="Group_1913" data-name="Group 1913">
              <path id="Path_3586" data-name="Path 3586" d="M563.491,214.024c.118.118.793-.457,1.777-.509s1.723.421,1.826.29c.05-.058-.071-.277-.4-.5a2.428,2.428,0,0,0-2.876.176C563.529,213.74,563.434,213.971,563.491,214.024Z" transform="translate(-563.475 -212.916)" fill="#263238"/>
            </g>
          </g>
        </g>
      </g>
      <g id="Group_1918" data-name="Group 1918" transform="translate(13.466 31.47)">
        <g id="Group_1917" data-name="Group 1917">
          <path id="Path_3587" data-name="Path 3587" d="M563.827,221.964a18.072,18.072,0,0,1-4.759,1.639,2.769,2.769,0,0,0,3.262.926A2.033,2.033,0,0,0,563.827,221.964Z" transform="translate(-559.068 -221.964)" fill="#fafafa"/>
        </g>
      </g>
      <g id="Group_1920" data-name="Group 1920" transform="translate(14.706 39.54)">
        <g id="Group_1919" data-name="Group 1919">
          <path id="Path_3588" data-name="Path 3588" d="M560.151,232.213a17.842,17.842,0,0,0,9.465-3.2s-2.146,5.246-9.308,4.949Z" transform="translate(-560.151 -229.016)" fill="#eb996e"/>
        </g>
      </g>
      <g id="Group_1922" data-name="Group 1922" transform="translate(3.952)">
        <g id="Group_1921" data-name="Group 1921">
          <path id="Path_3589" data-name="Path 3589" d="M602.209,230.732a5.132,5.132,0,0,1-2.589-.586,7.2,7.2,0,0,1-2.823-2.737,29.588,29.588,0,0,1-2.111-4.526c-1.334-3.321-2.341-6.4-3.023-8.649-.107-.355-.2-.681-.3-.991-.061-.382-.122-.723-.188-.974-3.9-14.9-16.992-17.675-19.583-17.675-2.777,0-7.638-1.528-14.722,5.833a16.06,16.06,0,0,0-2.688,3.71,15.977,15.977,0,0,0-3.156,6.727,8.1,8.1,0,0,0-.166,3.546c.134,0,.157-1.35.712-3.417a17.221,17.221,0,0,1,1.37-3.517,13.572,13.572,0,0,0,.727,8.228l2.542-.7,9.1-3.1c-.827-2.817.39-6.317,1.078-7.947l.069-.063c2.083,10.695,13.865,11.806,13.865,11.806l-.589,20.3c12.094-2.585,12.253-15.794,12.176-19.083.548,1.854,1.262,3.982,2.158,6.213a26.79,26.79,0,0,0,2.213,4.609,7.369,7.369,0,0,0,3.138,2.831,4.935,4.935,0,0,0,2.821.418c.672-.129.99-.344.974-.375C603.194,230.561,602.846,230.689,602.209,230.732Z" transform="translate(-550.754 -194.463)" fill="#e8505b"/>
        </g>
      </g>
      <g id="Group_1925" data-name="Group 1925" transform="translate(12.451 21.951)">
        <g id="Group_1924" data-name="Group 1924">
          <g id="Group_1923" data-name="Group 1923">
            <path id="Path_3590" data-name="Path 3590" d="M560.7,222.233a6.676,6.676,0,0,0-1.611-.2c-.251-.013-.5-.049-.549-.235a1.392,1.392,0,0,1,.14-.794q.319-.97.674-2.04c.469-1.452.871-2.773,1.143-3.734a6.529,6.529,0,0,0,.363-1.583,6.673,6.673,0,0,0-.629,1.5c-.341.939-.785,2.246-1.254,3.7l-.645,2.051a1.593,1.593,0,0,0-.1,1.029.612.612,0,0,0,.419.354,1.626,1.626,0,0,0,.427.039A6.6,6.6,0,0,0,560.7,222.233Z" transform="translate(-558.181 -213.646)" fill="#263238"/>
          </g>
        </g>
      </g>
      <g id="Group_1927" data-name="Group 1927" transform="translate(2.659 17.009)">
        <g id="Group_1926" data-name="Group 1926">
          <path id="Path_3591" data-name="Path 3591" d="M578.551,217.045c-2.227-.439-4.1-.75-4.743-.794a5.953,5.953,0,0,0,.137-1.161,5.8,5.8,0,0,0-1.132-3.424,5.694,5.694,0,0,0-2.695-2,5.758,5.758,0,0,0-3.034-.231,5.662,5.662,0,0,0-2.409,1.1,5.58,5.58,0,0,0-2.027,3.177,4.384,4.384,0,0,0-.121,1.026,1.239,1.239,0,0,0,.022.359c.045,0,.023-.5.249-1.348a5.588,5.588,0,0,1,2.046-2.991,5.445,5.445,0,0,1,5.147-.747A5.371,5.371,0,0,1,572.5,211.9a5.391,5.391,0,0,1,0,6.389,5.376,5.376,0,0,1-2.508,1.893,5.449,5.449,0,0,1-5.147-.748,5.59,5.59,0,0,1-2.046-2.99,7.251,7.251,0,0,1-.2-1.034c.18-.035.292-.085.292-.137s-.132-.109-.334-.145c0-.007-.006-.031-.009-.031a.139.139,0,0,0,0,.03,4.014,4.014,0,0,0-.677-.053,3.278,3.278,0,0,0-.834.089c0-.023.006-.045.006-.068a5.8,5.8,0,0,0-1.131-3.424,5.728,5.728,0,0,0-8.138-1.137,5.571,5.571,0,0,0-2.025,3.177,4.385,4.385,0,0,0-.121,1.026,1.213,1.213,0,0,0,.021.359c.045,0,.023-.5.251-1.348a5.574,5.574,0,0,1,2.046-2.991,5.445,5.445,0,0,1,5.147-.747,5.354,5.354,0,0,1,2.506,1.892,5.394,5.394,0,0,1,0,6.389,5.373,5.373,0,0,1-2.507,1.893,5.448,5.448,0,0,1-5.147-.748,5.576,5.576,0,0,1-2.046-2.99c-.228-.849-.206-1.351-.251-1.348a1.206,1.206,0,0,0-.021.359,4.391,4.391,0,0,0,.121,1.026,5.573,5.573,0,0,0,2.025,3.176,5.663,5.663,0,0,0,2.409,1.1,5.753,5.753,0,0,0,3.033-.231,5.692,5.692,0,0,0,2.7-2.007,5.764,5.764,0,0,0,1.108-3.142,3.211,3.211,0,0,0,.851.094,4.146,4.146,0,0,0,.661-.049v.034a4.39,4.39,0,0,0,.121,1.026,5.582,5.582,0,0,0,2.027,3.176,5.657,5.657,0,0,0,2.409,1.1,5.758,5.758,0,0,0,3.034-.231,5.691,5.691,0,0,0,2.695-2.007,5.594,5.594,0,0,0,.967-2.149c.605.2,2.46.629,4.693,1.07a32.543,32.543,0,0,0,5,.785A32.126,32.126,0,0,0,578.551,217.045Z" transform="translate(-549.623 -209.327)" fill="#263238"/>
        </g>
      </g>
      <g id="Group_1933" data-name="Group 1933" transform="translate(35.364 24.482)">
        <g id="Group_1929" data-name="Group 1929">
          <g id="Group_1928" data-name="Group 1928">
            <path id="Path_3592" data-name="Path 3592" d="M578.222,221.616a8.883,8.883,0,0,1,.383-3.528,3.327,3.327,0,0,1,2.569-2.219,2.815,2.815,0,0,1,2.9,2.345,3.467,3.467,0,0,1-1.767,3.435,4.548,4.548,0,0,1-3.967.112" transform="translate(-578.204 -215.857)" fill="#ffbe9d"/>
          </g>
        </g>
        <g id="Group_1932" data-name="Group 1932" transform="translate(2.085 1.499)">
          <g id="Group_1931" data-name="Group 1931">
            <g id="Group_1930" data-name="Group 1930">
              <path id="Path_3593" data-name="Path 3593" d="M580.043,220.386c.043-.078.386.1.89-.056a1.6,1.6,0,0,0,1.07-1.519,1.209,1.209,0,0,0-.254-.952,1.073,1.073,0,0,0-.779-.232c-.536.047-.912.189-.943.1-.023-.06.242-.333.88-.515a1.409,1.409,0,0,1,1.2.232,1.639,1.639,0,0,1,.492,1.408,2.225,2.225,0,0,1-.533,1.335,1.655,1.655,0,0,1-1.052.557C580.309,220.813,579.985,220.431,580.043,220.386Z" transform="translate(-580.026 -217.167)" fill="#eb996e"/>
            </g>
          </g>
        </g>
      </g>
    </g>
    <g id="Group_1955" data-name="Group 1955" transform="translate(672.239 500.173)">
      <g id="Group_1936" data-name="Group 1936">
        <g id="Group_1935" data-name="Group 1935">
          <path id="Path_3594" data-name="Path 3594" d="M605.308,460.412l-8.615-5.846,10.849-16.207,12.694,8.42-.608,1.048c-2.746,4.639-14.288,23.392-17.2,25.775C599.191,476.259,605.308,460.412,605.308,460.412Z" transform="translate(-596.694 -438.359)" fill="#e8505b"/>
        </g>
      </g>
      <g id="Group_1939" data-name="Group 1939" transform="translate(4.689 8.126)">
        <g id="Group_1938" data-name="Group 1938">
          <g id="Group_1937" data-name="Group 1937">
            <path id="Path_3595" data-name="Path 3595" d="M600.8,472.423c-.152-.1,3.821-6.224,8.873-13.667s9.275-13.4,9.428-13.295-3.821,6.222-8.875,13.669S600.948,472.527,600.8,472.423Z" transform="translate(-600.791 -445.46)" fill="#263238"/>
          </g>
        </g>
      </g>
      <g id="Group_1942" data-name="Group 1942" transform="translate(7.806 23.187)">
        <g id="Group_1941" data-name="Group 1941">
          <g id="Group_1940" data-name="Group 1940">
            <path id="Path_3596" data-name="Path 3596" d="M605.889,458.965c-.015.185-.54.288-1.171.328s-1.164,0-1.2-.185.476-.439,1.161-.481S605.908,458.784,605.889,458.965Z" transform="translate(-603.515 -458.622)" fill="#263238"/>
          </g>
        </g>
      </g>
      <g id="Group_1945" data-name="Group 1945" transform="translate(7.43 24.436)">
        <g id="Group_1944" data-name="Group 1944">
          <g id="Group_1943" data-name="Group 1943">
            <path id="Path_3597" data-name="Path 3597" d="M605.806,460.223c-.04.182-.627.2-1.325.163s-1.277-.144-1.294-.331.582-.385,1.336-.334S605.846,460.045,605.806,460.223Z" transform="translate(-603.187 -459.713)" fill="#263238"/>
          </g>
        </g>
      </g>
      <g id="Group_1948" data-name="Group 1948" transform="translate(18.461 6.437)">
        <g id="Group_1947" data-name="Group 1947">
          <g id="Group_1946" data-name="Group 1946">
            <path id="Path_3598" data-name="Path 3598" d="M614,450.5c-.085.031-.3-.3-.564-.891a6.874,6.874,0,0,1-.608-2.477,3.94,3.94,0,0,1,.731-2.5c.424-.545.842-.695.885-.626.061.08-.222.352-.488.88a4.635,4.635,0,0,0-.461,2.226,12.35,12.35,0,0,0,.388,2.349C614.026,450.067,614.09,450.464,614,450.5Z" transform="translate(-612.826 -443.984)" fill="#263238"/>
          </g>
        </g>
      </g>
      <g id="Group_1951" data-name="Group 1951" transform="translate(8.515 21.26)">
        <g id="Group_1950" data-name="Group 1950">
          <g id="Group_1949" data-name="Group 1949">
            <path id="Path_3599" data-name="Path 3599" d="M604.148,458.158c-.08-.167.236-.484.651-.794s.814-.515.951-.389-.08.577-.555.926S604.225,458.324,604.148,458.158Z" transform="translate(-604.135 -456.937)" fill="#263238"/>
          </g>
        </g>
      </g>
      <g id="Group_1954" data-name="Group 1954" transform="translate(7.818 19.737)">
        <g id="Group_1953" data-name="Group 1953">
          <g id="Group_1952" data-name="Group 1952">
            <path id="Path_3600" data-name="Path 3600" d="M603.575,457.533c-.142-.118.033-.631.394-1.147s.782-.857.941-.764-.017.607-.394,1.147S603.718,457.65,603.575,457.533Z" transform="translate(-603.526 -455.607)" fill="#263238"/>
          </g>
        </g>
      </g>
    </g>
    <g id="Group_1976" data-name="Group 1976" transform="translate(566.138 525.011)">
      <g id="Group_1957" data-name="Group 1957">
        <g id="Group_1956" data-name="Group 1956">
          <path id="Path_3601" data-name="Path 3601" d="M517.131,470.6V460.19l19.5-.125L536.8,475.3l-1.208.087c-5.381.333-27.378,1.315-30.983.247C500.584,474.439,517.131,470.6,517.131,470.6Z" transform="translate(-503.975 -460.065)" fill="#e8505b"/>
        </g>
      </g>
      <g id="Group_1960" data-name="Group 1960" transform="translate(0.168 14.279)">
        <g id="Group_1959" data-name="Group 1959">
          <g id="Group_1958" data-name="Group 1958">
            <path id="Path_3602" data-name="Path 3602" d="M504.122,472.876c0-.184,7.3-.333,16.293-.333s16.293.149,16.293.333-7.293.333-16.293.333S504.122,473.06,504.122,472.876Z" transform="translate(-504.122 -472.543)" fill="#263238"/>
          </g>
        </g>
      </g>
      <g id="Group_1963" data-name="Group 1963" transform="translate(11.329 10.746)">
        <g id="Group_1962" data-name="Group 1962">
          <g id="Group_1961" data-name="Group 1961">
            <path id="Path_3603" data-name="Path 3603" d="M515.359,471.37c-.162.09-.542-.285-.929-.784s-.651-.965-.522-1.1.632.146,1.051.691S515.519,471.283,515.359,471.37Z" transform="translate(-513.875 -469.456)" fill="#263238"/>
          </g>
        </g>
      </g>
      <g id="Group_1966" data-name="Group 1966" transform="translate(10.194 11.066)">
        <g id="Group_1965" data-name="Group 1965">
          <g id="Group_1964" data-name="Group 1964">
            <path id="Path_3604" data-name="Path 3604" d="M514.257,472.017c-.173.07-.523-.4-.879-1s-.6-1.139-.453-1.257.645.267,1.029.918S514.428,471.95,514.257,472.017Z" transform="translate(-512.883 -469.735)" fill="#263238"/>
          </g>
        </g>
      </g>
      <g id="Group_1969" data-name="Group 1969" transform="translate(26.861 10.874)">
        <g id="Group_1968" data-name="Group 1968">
          <g id="Group_1967" data-name="Group 1967">
            <path id="Path_3605" data-name="Path 3605" d="M527.466,473.236c-.073-.054.082-.421.421-.968a6.836,6.836,0,0,1,1.709-1.894,3.936,3.936,0,0,1,2.48-.8c.689.045,1.048.306,1.014.379-.032.1-.417.016-1,.092a4.659,4.659,0,0,0-2.1.869,12.375,12.375,0,0,0-1.725,1.64C527.836,473.017,527.542,473.292,527.466,473.236Z" transform="translate(-527.448 -469.568)" fill="#263238"/>
          </g>
        </g>
      </g>
      <g id="Group_1972" data-name="Group 1972" transform="translate(12.74 10.618)">
        <g id="Group_1971" data-name="Group 1971">
          <g id="Group_1970" data-name="Group 1970">
            <path id="Path_3606" data-name="Path 3606" d="M515.123,469.43c.094-.16.532-.078,1.022.092s.885.386.856.57-.522.256-1.077.059S515.03,469.587,515.123,469.43Z" transform="translate(-515.108 -469.344)" fill="#263238"/>
          </g>
        </g>
      </g>
      <g id="Group_1975" data-name="Group 1975" transform="translate(13.06 9.38)">
        <g id="Group_1974" data-name="Group 1974">
          <g id="Group_1973" data-name="Group 1973">
            <path id="Path_3607" data-name="Path 3607" d="M515.388,468.58c.017-.184.54-.327,1.169-.318s1.149.165,1.16.349-.511.326-1.169.318S515.371,468.764,515.388,468.58Z" transform="translate(-515.388 -468.262)" fill="#263238"/>
          </g>
        </g>
      </g>
    </g>
    <g id="Group_1978" data-name="Group 1978" transform="translate(529.331 288.046)">
      <g id="Group_1977" data-name="Group 1977">
        <path id="Path_3608" data-name="Path 3608" d="M570.978,260.045l-21.109-7.059s-9.328,26.876-12.188,27.137c-15.841,1.444-32.791-3.807-38.733-5.884-.6-.677-1.292-1.491-2.06-2.487a9.5,9.5,0,0,1-1.491-2.846,14.521,14.521,0,0,1-.848-3.914,1.242,1.242,0,0,0-2.135-.978c-.687.886-.861,4.281.7,7.932s-3.971.746-6.007-.276-8.483-3.89-9.293-3.513c-1.188.553-.815,1.927,1.243,2.9,2.081.985,8.019,4.328,7.427,5.377-.582,1.033-10.876-4.313-10.876-4.313s-2.014-1.5-2.738-.309c-1.307,2.146,10.054,7.024,11.147,7.46.759.3.157,1.468-.642,1.1-.82-.382-10.142-5.573-11.494-3.4-1.036,1.666,9.308,4.1,10.643,6.249s-7.657-2.642-8.581-1.009c-.344.608-.517,1.109,5.044,3.116a118.5,118.5,0,0,0,12.4,3.164l-.02.057s55.555,24.843,67.536.895C571.616,264.032,570.978,260.045,570.978,260.045Z" transform="translate(-471.81 -252.986)" fill="#ffbe9d"/>
      </g>
    </g>
    <g id="Group_2003" data-name="Group 2003" transform="translate(574.25 346.725)">
      <g id="Group_1991" data-name="Group 1991" transform="translate(29.594)">
        <g id="Group_1980" data-name="Group 1980">
          <g id="Group_1979" data-name="Group 1979">
            <path id="Path_3609" data-name="Path 3609" d="M548.647,311.686s-13.471,89.5-11.531,93.785,71.2,77.832,71.2,77.832l16.208-27.761s-54.648-60.991-54.237-62.636,19.363-88.643,19.363-88.643Z" transform="translate(-536.925 -304.264)" fill="#455a64"/>
          </g>
        </g>
        <g id="Group_1982" data-name="Group 1982" transform="translate(14.669 67.966)">
          <g id="Group_1981" data-name="Group 1981">
            <path id="Path_3610" data-name="Path 3610" d="M549.744,413.668l11.383-25.005,11.382-25.005L553.33,396.9Z" transform="translate(-549.744 -363.658)" fill="#263238"/>
          </g>
        </g>
        <g id="Group_1985" data-name="Group 1985" transform="translate(21.306 95.677)">
          <g id="Group_1984" data-name="Group 1984">
            <g id="Group_1983" data-name="Group 1983">
              <path id="Path_3611" data-name="Path 3611" d="M555.684,387.874a5.141,5.141,0,0,1,.071.98c.017.714.039,1.654.066,2.836l-.033-.089c4.338,4.9,13.955,16.034,25.049,29.022,7.509,8.85,14.306,16.858,19.288,22.729,2.4,2.884,4.369,5.238,5.787,6.938l1.548,1.908a4.261,4.261,0,0,1,.5.695,4.016,4.016,0,0,1-.608-.607c-.421-.47-.967-1.076-1.643-1.828l-5.947-6.8-19.436-22.6c-11.1-12.989-20.59-24.226-24.751-29.276l-.036-.042v-.048c.029-1.182.05-2.122.066-2.836A5.056,5.056,0,0,1,555.684,387.874Z" transform="translate(-555.544 -387.874)" fill="#263238"/>
            </g>
          </g>
        </g>
        <g id="Group_1988" data-name="Group 1988" transform="translate(64.953 145.562)">
          <g id="Group_1987" data-name="Group 1987">
            <g id="Group_1986" data-name="Group 1986">
              <path id="Path_3612" data-name="Path 3612" d="M611.131,431.469c.154.1-3.626,6.106-8.442,13.411s-8.845,13.146-9,13.045,3.625-6.106,8.443-13.413S610.978,431.367,611.131,431.469Z" transform="translate(-593.686 -431.468)" fill="#263238"/>
            </g>
          </g>
        </g>
        <g id="Group_1990" data-name="Group 1990" transform="translate(6.846 8.339)">
          <g id="Group_1989" data-name="Group 1989">
            <path id="Path_3613" data-name="Path 3613" d="M542.908,344.251c.133-.938,10.889-25.132,10.889-25.132l-5.223-7.368-.928-.2Z" transform="translate(-542.908 -311.551)" fill="#263238"/>
          </g>
        </g>
      </g>
      <g id="Group_2002" data-name="Group 2002">
        <g id="Group_1993" data-name="Group 1993">
          <g id="Group_1992" data-name="Group 1992">
            <path id="Path_3614" data-name="Path 3614" d="M562.928,310.82,552.242,312.6l6.151,7.569c-9.927,22.448-30.422,69.987-32.885,85.3-3.265,20.307-15.591,83.712-14.359,84.677s29.654,0,29.654,0l18.108-84.677,40.02-69.369A38.7,38.7,0,0,0,603,307.552l-.806-3.288" transform="translate(-511.064 -304.264)" fill="#455a64"/>
          </g>
        </g>
        <g id="Group_1996" data-name="Group 1996" transform="translate(19.849 2.541)">
          <g id="Group_1995" data-name="Group 1995">
            <g id="Group_1994" data-name="Group 1994">
              <path id="Path_3615" data-name="Path 3615" d="M528.412,480.442a2.5,2.5,0,0,1,.05-.475c.053-.343.122-.8.212-1.381.209-1.25.506-3.028.883-5.3.806-4.636,1.959-11.276,3.384-19.467,1.469-8.224,3.216-18,5.154-28.847,1-5.425,2.051-11.119,3.139-17.021q.426-2.211.861-4.461c.154-.751.284-1.5.463-2.26.093-.379.157-.766.272-1.14l.423-1.107c1.174-2.9,2.451-5.757,3.731-8.677,10.355-23.268,19.992-44.206,26.962-59.365,3.5-7.542,6.332-13.658,8.31-17.925.983-2.082,1.753-3.711,2.293-4.858.258-.528.46-.943.612-1.256a2.429,2.429,0,0,1,.23-.418,2.674,2.674,0,0,1-.168.446c-.137.32-.319.745-.552,1.284-.515,1.158-1.245,2.806-2.18,4.91-1.933,4.289-4.7,10.433-8.117,18.013-6.86,15.207-16.43,36.179-26.782,59.439-1.276,2.909-2.564,5.794-3.719,8.637l-.407,1.06c-.113.36-.175.738-.265,1.107-.174.732-.307,1.5-.461,2.241q-.438,2.243-.866,4.453c-1.1,5.9-2.163,11.586-3.176,17.008L533.405,453.9c-1.51,8.175-2.737,14.8-3.592,19.429-.431,2.261-.769,4.033-1.006,5.278-.117.576-.208,1.028-.278,1.37A2.454,2.454,0,0,1,528.412,480.442Z" transform="translate(-528.409 -306.485)" fill="#263238"/>
            </g>
          </g>
        </g>
        <g id="Group_1999" data-name="Group 1999" transform="translate(0.974 177.05)">
          <g id="Group_1998" data-name="Group 1998">
            <g id="Group_1997" data-name="Group 1997">
              <path id="Path_3616" data-name="Path 3616" d="M542.375,459.689c0,.183-6.825.211-15.236.059s-15.228-.422-15.224-.606,6.823-.212,15.237-.06S542.378,459.5,542.375,459.689Z" transform="translate(-511.915 -458.984)" fill="#263238"/>
            </g>
          </g>
        </g>
        <g id="Group_2001" data-name="Group 2001" transform="translate(41.179 0)">
          <g id="Group_2000" data-name="Group 2000">
            <path id="Path_3617" data-name="Path 3617" d="M547.049,312.6l.409.972,51.345-4.156-1.8-5.155Z" transform="translate(-547.049 -304.264)" fill="#263238"/>
          </g>
        </g>
      </g>
    </g>
    <g id="Group_2012" data-name="Group 2012" transform="translate(595.18 268.181)">
      <g id="Group_2005" data-name="Group 2005">
        <g id="Group_2004" data-name="Group 2004">
          <path id="Path_3618" data-name="Path 3618" d="M570.812,238.861l-3.45,13.866-.12-9.974.255-2.219.312-1.673-4.553-1.544-2.353,3.664-.685.047s-18.491-1.839-24.958,22.583l-5.906,14.47,17.9,8.931.025,1.158,1.089,34.538,51.722-8.376c.2-7.754-7.707-21.807-5.963-28.834l5.963-24.047-7.818-22.4-5.407.168h0l-3.051-3.593-13,3.235" transform="translate(-529.354 -235.626)" fill="#263238"/>
        </g>
      </g>
      <g id="Group_2008" data-name="Group 2008" transform="translate(13.461 23.296)">
        <g id="Group_2007" data-name="Group 2007">
          <g id="Group_2006" data-name="Group 2006">
            <path id="Path_3619" data-name="Path 3619" d="M545.865,283.819a3.145,3.145,0,0,1-1.111-.586,8.933,8.933,0,0,1-2.391-2.465,7.871,7.871,0,0,1-1.219-4.939,10.945,10.945,0,0,1,2.009-5.9,10.8,10.8,0,0,1,3.668-3.279l-.158.216c.428-3.172.816-5.9,1.115-7.827a19.47,19.47,0,0,1,.571-3.055,19.812,19.812,0,0,1-.22,3.1c-.2,1.943-.515,4.679-.9,7.857l-.017.137-.14.078a10.7,10.7,0,0,0-5.377,8.7,7.617,7.617,0,0,0,1.028,4.684,9.805,9.805,0,0,0,2.173,2.5C545.508,283.55,545.885,283.781,545.865,283.819Z" transform="translate(-541.117 -255.984)" fill="#455a64"/>
          </g>
        </g>
      </g>
      <g id="Group_2011" data-name="Group 2011" transform="translate(18.378 24.269)">
        <g id="Group_2010" data-name="Group 2010">
          <g id="Group_2009" data-name="Group 2009">
            <path id="Path_3620" data-name="Path 3620" d="M547.2,260.4c-.148.071-.657-.666-1.139-1.649s-.751-1.837-.6-1.91.657.666,1.137,1.649S547.343,260.324,547.2,260.4Z" transform="translate(-545.414 -256.834)" fill="#455a64"/>
          </g>
        </g>
      </g>
    </g>
    <g id="Group_2025" data-name="Group 2025" transform="translate(522.109 286.253)">
      <g id="Group_2019" data-name="Group 2019">
        <g id="Group_2014" data-name="Group 2014">
          <g id="Group_2013" data-name="Group 2013">
            <path id="Path_3621" data-name="Path 3621" d="M505.848,251.419l162.706,31.253c11.6,2.228,18.9,12.831,17.585,24.906-.018.168-.058.334-.089.5a21.921,21.921,0,0,1-25.938,17.383l-159.45-32.155L465.5,265.17Z" transform="translate(-465.499 -251.419)" fill="#f63"/>
          </g>
        </g>
        <g id="Group_2016" data-name="Group 2016">
          <g id="Group_2015" data-name="Group 2015">
            <path id="Path_3622" data-name="Path 3622" d="M505.848,251.419s8.882,3.329,7.051,11.847-10.42,8.16-10.42,8.16,8.35,1.851,6.033,13.791c-1.491,7.686-7.851,8.089-7.851,8.089L465.5,265.17Z" transform="translate(-465.499 -251.419)" fill="#e0e0e0"/>
          </g>
        </g>
        <g id="Group_2018" data-name="Group 2018" transform="translate(0 9.988)">
          <g id="Group_2017" data-name="Group 2017">
            <path id="Path_3623" data-name="Path 3623" d="M473.146,270.032c3.432-1.715,4.638-6.255,3.4-9.885L465.5,263.911Z" transform="translate(-465.499 -260.147)" fill="#455a64"/>
          </g>
        </g>
      </g>
      <g id="Group_2022" data-name="Group 2022" transform="translate(36.98 20.005)">
        <g id="Group_2021" data-name="Group 2021">
          <g id="Group_2020" data-name="Group 2020">
            <path id="Path_3624" data-name="Path 3624" d="M661.7,302.1a2.507,2.507,0,0,1-.43-.051l-1.251-.208c-1.129-.2-2.739-.491-4.795-.859-4.164-.754-10.181-1.888-17.61-3.32-14.859-2.858-35.354-6.967-57.961-11.632l-57.887-12.042-17.537-3.673c-2.043-.437-3.64-.78-4.764-1.02l-1.236-.281a2.258,2.258,0,0,1-.417-.114,2.3,2.3,0,0,1,.429.056c.31.054.723.128,1.249.221l4.784.912,17.576,3.487,57.922,11.871c22.607,4.665,43.086,8.839,57.922,11.8l17.572,3.506,4.774.969c.522.111.932.2,1.239.267A2.157,2.157,0,0,1,661.7,302.1Z" transform="translate(-497.815 -268.901)" fill="#455a64"/>
          </g>
        </g>
      </g>
      <g id="Group_2024" data-name="Group 2024" transform="translate(194.612 31.253)">
        <g id="Group_2023" data-name="Group 2023">
          <path id="Path_3625" data-name="Path 3625" d="M635.566,321.521A21.921,21.921,0,0,0,661.5,304.137c.031-.167.071-.333.089-.5,1.318-12.075-5.982-22.678-17.585-24.906Z" transform="translate(-635.566 -278.73)" fill="#455a64"/>
        </g>
      </g>
    </g>
    <g id="Group_2034" data-name="Group 2034" transform="translate(569.231 271.61)">
      <g id="Group_2028" data-name="Group 2028" transform="translate(0 21.155)">
        <g id="Group_2027" data-name="Group 2027">
          <g id="Group_2026" data-name="Group 2026">
            <path id="Path_3626" data-name="Path 3626" d="M589.5,257.11s-9.9,31.234-12.681,31.944c-15.417,3.933-32.99,1.422-39.181.311-.7-.571-1.514-1.274-2.42-2.128a9.446,9.446,0,0,1-1.922-2.574,14.5,14.5,0,0,1-1.457-3.73,1.243,1.243,0,0,0-2.263-.629c-.538.984-.173,4.364,1.948,7.722,0,0-12.412,7.873-15.126,7.811s-10.473-.263-9.665.808S516.4,299.2,516.4,299.2l16.033,5.439s58.772,15.808,66.817-9.734c4.93-15.654,8.332-24.867,9.1-28.607Z" transform="translate(-506.678 -257.11)" fill="#ffbe9d"/>
          </g>
        </g>
      </g>
      <g id="Group_2030" data-name="Group 2030" transform="translate(71.558)">
        <g id="Group_2029" data-name="Group 2029">
          <path id="Path_3627" data-name="Path 3627" d="M586.629,238.628s12.929,2.328,13.433,23.459a82.564,82.564,0,0,1-8.1,37.242l-22.753-11.947a141.016,141.016,0,0,0,11.475-32.191l5.906-16.568Z" transform="translate(-569.211 -238.623)" fill="#263238"/>
        </g>
      </g>
      <g id="Group_2033" data-name="Group 2033" transform="translate(71.559 17.748)">
        <g id="Group_2032" data-name="Group 2032">
          <g id="Group_2031" data-name="Group 2031">
            <path id="Path_3628" data-name="Path 3628" d="M579.986,254.133a5.237,5.237,0,0,1-.142,1.3c-.125.827-.35,2.017-.666,3.48a99.7,99.7,0,0,1-7.643,22.058c-.657,1.343-1.215,2.419-1.628,3.147a5.441,5.441,0,0,1-.69,1.1,5.508,5.508,0,0,1,.482-1.208l1.456-3.221c1.213-2.723,2.8-6.526,4.288-10.822s2.594-8.263,3.327-11.155q.5-2.024.849-3.43A5.53,5.53,0,0,1,579.986,254.133Z" transform="translate(-569.212 -254.133)" fill="#455a64"/>
          </g>
        </g>
      </g>
    </g>
  </g>
</svg>
