<svg id="Group_1523" data-name="Group 1523" xmlns="http://www.w3.org/2000/svg" width="101.153" height="100.696" viewBox="0 0 101.153 100.696">
  <path id="Path_3447" data-name="Path 3447" d="M119.071,849.769A42.432,42.432,0,0,0,91.583,839.08l-.254,39.274Z" transform="translate(-35.849 -838.816)" fill="#f47f1f"/>
  <path id="Path_3448" data-name="Path 3448" d="M102.51,838.9c-27.81,0-48.346,22.542-48.346,50.347a50.348,50.348,0,0,0,50.347,50.35c19.5,0,37.632-11.514,44.31-26.369l-45.3-23.98V838.928C103.184,838.922,102.849,838.9,102.51,838.9Z" transform="translate(-54.164 -838.903)" fill="#f47f1f"/>
  <g id="Group_1523-2" data-name="Group 1523" transform="translate(56.944 15.333)">
    <path id="Path_3449" data-name="Path 3449" d="M106.345,860.789l-7.29,23.23,4.2,2.253L113.6,853.337Z" transform="translate(-88.985 -847.122)" fill="#f47f1f"/>
    <path id="Path_3450" data-name="Path 3450" d="M98.744,867.259,95.4,877.909l4.206,2.253L106,859.808Z" transform="translate(-90.785 -843.934)" fill="#f47f1f"/>
    <path id="Path_3451" data-name="Path 3451" d="M121.409,855.43l-11.4,36.319L114.217,894l10.2-32.493A47.237,47.237,0,0,0,121.409,855.43Z" transform="translate(-83.586 -846.091)" fill="#f47f1f"/>
    <path id="Path_3452" data-name="Path 3452" d="M123.414,860.906l-9.75,31.064,4.205,2.253,7.7-24.531A45.1,45.1,0,0,0,123.414,860.906Z" transform="translate(-81.785 -843.392)" fill="#f47f1f"/>
    <path id="Path_3453" data-name="Path 3453" d="M124.195,871.5c0-.79-.024-1.576-.067-2.362l-6.812,21.7,2.469,1.324C122.941,886.041,124.195,878.856,124.195,871.5Z" transform="translate(-79.986 -839.337)" fill="#f47f1f"/>
    <path id="Path_3454" data-name="Path 3454" d="M117.846,849.174l-3.9,4.008L102.706,888.99l4.207,2.253,12.637-40.255C118.993,850.367,118.428,849.759,117.846,849.174Z" transform="translate(-87.186 -849.174)" fill="#f47f1f"/>
    <path id="Path_3455" data-name="Path 3455" d="M92.309,872.248l3.37,1.805,2.44-7.774Z" transform="translate(-92.309 -840.745)" fill="#f47f1f"/>
    <path id="Path_3456" data-name="Path 3456" d="M118.816,851.217,106.358,890.9l4.207,2.253,11.684-37.223A46.893,46.893,0,0,0,118.816,851.217Z" transform="translate(-85.386 -848.167)" fill="#f47f1f"/>
  </g>
</svg>
