<svg id="Group_1522" data-name="Group 1522" xmlns="http://www.w3.org/2000/svg" width="103.905" height="96.948" viewBox="0 0 103.905 96.948">
  <path id="Path_3445" data-name="Path 3445" d="M279.348,247.171a5.834,5.834,0,0,0-6.992,4.379l-6.733,29.319-50.8-.469L202.58,231.44a5.861,5.861,0,0,0-2.849-3.7l-11.111-6.109A5.834,5.834,0,1,0,183,231.856l8.88,4.883,12.469,49.866-6.715,5.3a3.334,3.334,0,0,0-1.267,2.617v8.333a3.332,3.332,0,0,0,3.287,3.334l9.409.134a6.656,6.656,0,1,0,9.214.13l44,.618a6.663,6.663,0,1,0,10.535.149l5.737.08h.048a3.333,3.333,0,0,0,.045-6.666l-75.612-1.065V296.14l5.548-4.377a5.661,5.661,0,0,0,1.622.261l60,.558h.056a5.834,5.834,0,0,0,5.685-4.529l7.786-33.892A5.834,5.834,0,0,0,279.348,247.171Z" transform="translate(-179.973 -220.91)" fill="#f47f1f"/>
  <path id="Path_3446" data-name="Path 3446" d="M243.3,247.183h-5.427V231.489a3.483,3.483,0,0,0-3.481-3.484H223.943a3.481,3.481,0,0,0-3.48,3.484v15.694h-5.428c-2.4,0-3.191,1.574-1.757,3.5l4.035,5.415c1.435,1.925,3.778,5.072,5.214,7l4.034,5.416a3.076,3.076,0,0,0,5.215,0l4.034-5.416,5.214-7,4.035-5.415C246.489,248.757,245.7,247.183,243.3,247.183Z" transform="translate(-169.175 -218.559)" fill="#f47f1f"/>
</svg>
