<svg id="Group_1518" data-name="Group 1518" xmlns="http://www.w3.org/2000/svg" width="91.03" height="90.824" viewBox="0 0 91.03 90.824">
  <path id="Path_3437" data-name="Path 3437" d="M187.555,394.221a4.965,4.965,0,0,0-4.605,8.357c.018.017.045.021.068.045-.013.006-.025.017-.028.016l9.355,9.353,14.739-14.738-19.519-3.1A.369.369,0,0,0,187.555,394.221Z" transform="translate(-181.497 -363.478)" fill="#f47f1f"/>
  <path id="Path_3438" data-name="Path 3438" d="M233.891,441.343c.028.007.066,0,.093.012l-2.959-18.681-14.67,14.67,8.983,8.986a.569.569,0,0,0,.059-.061,4.955,4.955,0,0,0,8.493-4.926Z" transform="translate(-174.045 -357.368)" fill="#f47f1f"/>
  <path id="Path_3439" data-name="Path 3439" d="M220.393,412.4,216.3,408.3a3.55,3.55,0,0,0-5.036,0l-7.532,7.528-1.141,1.143a3.555,3.555,0,0,0,0,5.037l4.093,4.093a3.556,3.556,0,0,0,5.034,0l8.673-8.672a3.555,3.555,0,0,0,0-5.035Z" transform="translate(-177.21 -360.664)" fill="#f47f1f"/>
  <path id="Path_3440" data-name="Path 3440" d="M260.014,407.541l.041.043,10.632-31.9a4.645,4.645,0,0,0,.341-1.051l.007-.016a4.79,4.79,0,0,0-5.833-5.608l0-.008-.059.018a5.661,5.661,0,0,0-.687.233l-31.083,10.243a5.853,5.853,0,0,0-2.973,1.515l-22.051,22.052-15.862,15.862L189.8,421.6a6.019,6.019,0,0,0,.008,8.514l3.643,3.644-.916,1.79,11.6,11.6,1.794-.914,3.747,3.747a6.015,6.015,0,0,0,8.509,0l2.681-2.681,15.784-15.782,22.131-22.131A5.977,5.977,0,0,0,260.014,407.541Zm-44.291,27.877a5.134,5.134,0,0,1-7.258,0l-4.093-4.093a5.141,5.141,0,0,1,0-7.258l1.142-1.142,7.53-7.53a5.135,5.135,0,0,1,7.258,0l4.093,4.093a5.133,5.133,0,0,1,0,7.257Zm15.53-26.877a9.235,9.235,0,1,1,13.059-.007A9.231,9.231,0,0,1,231.253,408.541Z" transform="translate(-180.098 -368.871)" fill="#f47f1f"/>
</svg>
