<svg xmlns="http://www.w3.org/2000/svg" width="122.565" height="111.931" viewBox="0 0 122.565 111.931">
  <g id="Group_709" data-name="Group 709" transform="translate(1.656 1.656)">
    <path id="Path_2577" data-name="Path 2577" d="M1777.911,1598.872a36.22,36.22,0,0,1,8.354,23.013c0,21.315-18.971,38.594-42.372,38.594s-42.372-17.279-42.372-38.594,18.971-38.594,42.372-38.594a44.973,44.973,0,0,1,25.244,7.594" transform="translate(-1701.521 -1551.86)" fill="none" stroke="#f47b22" stroke-linecap="round" stroke-linejoin="round" stroke-width="3.313"/>
    <path id="Path_2578" data-name="Path 2578" d="M1773.315,1602.491a31.327,31.327,0,0,1,7.225,19.9c0,18.435-16.407,33.38-36.647,33.38s-36.647-14.945-36.647-33.38,16.407-33.379,36.647-33.379a38.9,38.9,0,0,1,21.834,6.568" transform="translate(-1701.521 -1552.37)" fill="none" stroke="#f47b22" stroke-linecap="round" stroke-linejoin="round" stroke-width="3.313"/>
    <path id="Path_2579" data-name="Path 2579" d="M1766.921,1619.566a19.647,19.647,0,0,1,.412,4.007c0,11.792-10.495,21.35-23.44,21.35s-23.44-9.558-23.44-21.35,10.495-21.349,23.44-21.349a25.858,25.858,0,0,1,4,.309" transform="translate(-1701.521 -1553.548)" fill="none" stroke="#f47b22" stroke-linecap="round" stroke-linejoin="round" stroke-width="3.313"/>
    <path id="Path_2580" data-name="Path 2580" d="M1754.027,1625.964c-.644,4.575-4.936,8.111-10.134,8.111-5.643,0-10.217-4.167-10.217-9.307,0-4.53,3.553-8.3,8.259-9.136" transform="translate(-1701.521 -1554.743)" fill="none" stroke="#f47b22" stroke-linecap="round" stroke-linejoin="round" stroke-width="3.313"/>
    <path id="Path_2581" data-name="Path 2581" d="M1794.425,1572.782l-1.275-11.613,13.6-12.387,1.275,11.613Z" transform="translate(-1701.521 -1548.782)" fill="none" stroke="#f47b22" stroke-linecap="round" stroke-linejoin="round" stroke-width="3.313"/>
    <line id="Line_5" data-name="Line 5" x2="1.275" y2="11.613" transform="translate(98.428 6.193)" fill="none" stroke="#f47b22" stroke-linecap="round" stroke-linejoin="round" stroke-width="3.313"/>
    <path id="Path_2582" data-name="Path 2582" d="M1794.425,1573.919l12.75,1.161,13.6-12.387-12.75-1.161Z" transform="translate(-1701.521 -1549.919)" fill="none" stroke="#f47b22" stroke-linecap="round" stroke-linejoin="round" stroke-width="3.313"/>
    <line id="Line_6" data-name="Line 6" x1="12.75" y1="1.161" transform="translate(99.703 17.806)" fill="none" stroke="#f47b22" stroke-linecap="round" stroke-linejoin="round" stroke-width="3.313"/>
    <line id="Line_7" data-name="Line 7" x1="49.644" y2="45.217" transform="translate(56.859 11.613)" fill="none" stroke="#f47b22" stroke-linecap="round" stroke-linejoin="round" stroke-width="3.313"/>
    <path id="Path_2583" data-name="Path 2583" d="M1766.661,1613.458l-23.154,10.528,11.559-21.09,3.315,7.542Z" transform="translate(-1701.521 -1553.608)" fill="none" stroke="#f47b22" stroke-linecap="round" stroke-linejoin="round" stroke-width="3.313"/>
  </g>
</svg>
