<svg xmlns="http://www.w3.org/2000/svg" width="121.791" height="111.939" viewBox="0 0 121.791 111.939">
  <g id="Group_710" data-name="Group 710" transform="translate(1.656 1.656)">
    <path id="Path_2584" data-name="Path 2584" d="M903.933,1285.669c-23.175,27.175-47.376,48.694-71.738,65.341-13.616,9.305-41.9-10.1-34.9-16.48l22.249-20.265a6.25,6.25,0,0,1,8.258,0c2.824,2.572,6.688,5.41,7.142,11.437a163.356,163.356,0,0,0,38.03-34.639c-6.614-.413-9.739-3.937-12.557-6.505a4.989,4.989,0,0,1,0-7.522l24.26-22.1C893.611,1246.808,912.5,1275.619,903.933,1285.669Z" transform="translate(-787.645 -1244.872)" fill="none" stroke="#f47b22" stroke-linecap="round" stroke-linejoin="round" stroke-width="3.313"/>
    <path id="Path_2585" data-name="Path 2585" d="M792.813,1317.29q-.411-.665-.78-1.35a32.229,32.229,0,0,1-2.108-4.8,39.424,39.424,0,0,1-1.606-6.293,48.561,48.561,0,0,1-.674-8.053c0-13.505,5.657-27.01,16.969-37.314a60.768,60.768,0,0,1,40.967-15.456,63.872,63.872,0,0,1,8.841.614,50.489,50.489,0,0,1,6.909,1.463,39.46,39.46,0,0,1,5.268,1.92" transform="translate(-787.645 -1244.026)" fill="none" stroke="#f47b22" stroke-linecap="round" stroke-linejoin="round" stroke-width="3.313"/>
    <path id="Path_2586" data-name="Path 2586" d="M802.477,1313.267a26.072,26.072,0,0,1-1.7-3.876,31.777,31.777,0,0,1-1.3-5.083,39.214,39.214,0,0,1-.544-6.505,40.534,40.534,0,0,1,13.647-30.058,48.961,48.961,0,0,1,33-12.431,51.682,51.682,0,0,1,7.142.5,40.843,40.843,0,0,1,5.582,1.181q.484.139.966.293" transform="translate(-787.645 -1245.032)" fill="none" stroke="#f47b22" stroke-linecap="round" stroke-linejoin="round" stroke-width="3.313"/>
    <path id="Path_2587" data-name="Path 2587" d="M811.59,1307.6a24.088,24.088,0,0,1-.984-3.856,29.7,29.7,0,0,1-.413-4.935,30.75,30.75,0,0,1,10.353-22.8,37.137,37.137,0,0,1,25.035-9.431,39.185,39.185,0,0,1,5.418.376q1.9.267,3.763.717" transform="translate(-787.645 -1246.036)" fill="none" stroke="#f47b22" stroke-linecap="round" stroke-linejoin="round" stroke-width="3.313"/>
    <path id="Path_2588" data-name="Path 2588" d="M822.245,1305.316a16.5,16.5,0,0,1-.511-2.141,20.3,20.3,0,0,1-.281-3.365,20.966,20.966,0,0,1,7.059-15.547,25.32,25.32,0,0,1,17.069-6.43,26.623,26.623,0,0,1,3.694.257" transform="translate(-787.645 -1247.041)" fill="none" stroke="#f47b22" stroke-linecap="round" stroke-linejoin="round" stroke-width="3.313"/>
    <path id="Path_2589" data-name="Path 2589" d="M832.713,1300.815a11.182,11.182,0,0,1,3.765-8.292,13.508,13.508,0,0,1,9.1-3.428" transform="translate(-787.645 -1248.045)" fill="none" stroke="#f47b22" stroke-linecap="round" stroke-linejoin="round" stroke-width="3.313"/>
  </g>
</svg>
