<svg xmlns="http://www.w3.org/2000/svg" width="331.942" height="66.521" viewBox="0 0 331.942 66.521">
  <g id="Group_6" data-name="Group 6" transform="translate(95.044 -98)">
    <g id="Group_5" data-name="Group 5" transform="translate(-95.044 98)">
      <path id="Path_1" data-name="Path 1" d="M145.394,313l-48.7,0-23,18.813,47.322,46.742,47.32-46.742Zm-25.655,51.833c-.389-.478-2.086-3.792-9.2-8.55-6.4-4.279-10.639-7.532-12.932-14.409-2.247-6.742-1.11-13.783-.044-18.725.379,4.274,2.683,8.059,6.089,11.559,5.5,5.655,11.211,7.208,14.391,16.164C119.656,355.414,119.958,358.843,119.739,364.828Zm.678-27.03a13.752,13.752,0,0,0-4.353-4.043c-3.027-2.024-5.03-3.564-6.116-6.815-1.062-3.187-.522-6.517-.023-8.854a9.112,9.112,0,0,0,2.884,5.466c2.6,2.674,5.3,3.409,6.8,7.645A15.8,15.8,0,0,1,120.417,337.8Zm2.013-6.6c1.5-4.237,4.2-4.971,6.805-7.645a9.1,9.1,0,0,0,2.882-5.466c.5,2.337,1.04,5.667-.021,8.854-1.084,3.252-3.091,4.792-6.117,6.815-3.365,2.25-4.17,3.818-4.352,4.043A15.769,15.769,0,0,1,122.43,331.2Zm9.073,25.082c-7.114,4.758-8.809,8.072-9.2,8.55-.215-5.985.085-9.414,1.7-13.959,3.177-8.956,8.887-10.51,14.389-16.164,3.406-3.5,5.711-7.286,6.089-11.559,1.064,4.941,2.2,11.983-.044,18.725C142.147,348.746,137.9,352,131.5,356.278Z" transform="translate(-73.701 -312.993)" fill="#f47f20" fill-rule="evenodd"/>
      <g id="Group_4" data-name="Group 4" transform="translate(96.63 0.524)">
        <rect id="Rectangle_2" data-name="Rectangle 2" width="6.167" height="5.706" transform="translate(81.289 0.549)" fill="#332d4a"/>
        <g id="Group_3" data-name="Group 3">
          <g id="Group_1" data-name="Group 1" transform="translate(0 0.549)">
            <path id="Path_2" data-name="Path 2" d="M349.015,348.117v-26.73h-9.547v-5.443h25.567v5.443h-9.525v26.73Z" transform="translate(-339.469 -315.944)" fill="#332d4a"/>
            <path id="Path_3" data-name="Path 3" d="M427.131,363.636v-3.489a8.979,8.979,0,0,1-3.347,2.941,9.384,9.384,0,0,1-4.378,1.076,8.556,8.556,0,0,1-4.214-1.032,6.087,6.087,0,0,1-2.7-2.9,12.927,12.927,0,0,1-.834-5.157V340.329h6.167v10.71a29.693,29.693,0,0,0,.34,6.024,3.282,3.282,0,0,0,1.24,1.755,3.808,3.808,0,0,0,2.282.648,4.852,4.852,0,0,0,2.831-.867,4.41,4.41,0,0,0,1.712-2.151,24.986,24.986,0,0,0,.461-6.288v-9.832h6.167v23.307Z" transform="translate(-385.411 -331.463)" fill="#332d4a"/>
            <path id="Path_4" data-name="Path 4" d="M504.28,342.315a11.636,11.636,0,0,0-8.669-3.435,12.73,12.73,0,0,0-6.2,1.514,10.4,10.4,0,0,0-4.291,4.389,12.611,12.611,0,0,0-1.514,5.947,14.152,14.152,0,0,0,1.514,6.814,9.933,9.933,0,0,0,4.422,4.246,13.532,13.532,0,0,0,6.112,1.449,11.537,11.537,0,0,0,8.592-3.479,12.01,12.01,0,0,0,3.413-8.768A11.868,11.868,0,0,0,504.28,342.315Zm-4.6,14.056a5.381,5.381,0,0,1-8.109,0,9.392,9.392,0,0,1,0-10.622,5.381,5.381,0,0,1,8.109,0,7.688,7.688,0,0,1,1.635,5.267A7.83,7.83,0,0,1,499.683,356.371Z" transform="translate(-431.2 -330.541)" fill="#332d4a"/>
            <rect id="Rectangle_3" data-name="Rectangle 3" width="6.167" height="23.307" transform="translate(81.289 8.866)" fill="#332d4a"/>
            <path id="Path_5" data-name="Path 5" d="M603.617,325.924v4.916H599.4v9.393a23.328,23.328,0,0,0,.121,3.325,1.355,1.355,0,0,0,.549.779,1.738,1.738,0,0,0,1.042.307,7.983,7.983,0,0,0,2.48-.592l.527,4.784a12.263,12.263,0,0,1-4.872.922,7.728,7.728,0,0,1-3.007-.56,4.391,4.391,0,0,1-1.964-1.448,5.724,5.724,0,0,1-.867-2.4,29.907,29.907,0,0,1-.2-4.345V330.84h-2.831v-4.916h2.831v-4.631l6.189-3.6v8.23Z" transform="translate(-499.154 -317.058)" fill="#332d4a"/>
            <path id="Path_6" data-name="Path 6" d="M643.993,362.714h-6.167V339.407h5.728v3.314a9.96,9.96,0,0,1,2.644-3.094,4.864,4.864,0,0,1,2.667-.746,7.83,7.83,0,0,1,4.06,1.163l-1.909,5.377a5.415,5.415,0,0,0-2.9-1.009,3.423,3.423,0,0,0-2.195.713,4.869,4.869,0,0,0-1.415,2.579,36.622,36.622,0,0,0-.516,7.813Z" transform="translate(-529.346 -330.541)" fill="#332d4a"/>
            <path id="Path_7" data-name="Path 7" d="M700.6,342.315a10.346,10.346,0,0,0-8.208-3.435,9.975,9.975,0,0,0-7.659,3.281q-3.028,3.281-3.028,9.074a13.344,13.344,0,0,0,2.3,8.032q2.918,3.973,9,3.973a10.993,10.993,0,0,0,6.4-1.767,10.079,10.079,0,0,0,3.742-5.147L697,355.3a4.885,4.885,0,0,1-1.492,2.546,3.778,3.778,0,0,1-2.436.79,4.667,4.667,0,0,1-3.556-1.525,6.237,6.237,0,0,1-1.492-4.269h15.45Q703.61,345.749,700.6,342.315Zm-12.465,6.748a5.687,5.687,0,0,1,1.295-3.994,4.45,4.45,0,0,1,6.54-.077,5.938,5.938,0,0,1,1.382,4.071Z" transform="translate(-557.273 -330.541)" fill="#332d4a"/>
          </g>
          <g id="Group_2" data-name="Group 2" transform="translate(150.116)">
            <path id="Path_8" data-name="Path 8" d="M785.345,336.688l6.32-.614a7.708,7.708,0,0,0,2.315,4.674,7,7,0,0,0,4.707,1.493,7.238,7.238,0,0,0,4.73-1.327,3.951,3.951,0,0,0,1.591-3.106,2.929,2.929,0,0,0-.669-1.942A5.351,5.351,0,0,0,802,334.472q-1.141-.4-5.2-1.4-5.223-1.295-7.33-3.182a8.371,8.371,0,0,1-2.963-6.474,8.273,8.273,0,0,1,1.393-4.6,8.728,8.728,0,0,1,4.016-3.259,16.1,16.1,0,0,1,6.332-1.119q6.057,0,9.119,2.655a9.373,9.373,0,0,1,3.215,7.089l-6.5.285A5.518,5.518,0,0,0,802.3,320.9a6.55,6.55,0,0,0-4.115-1.086,7.422,7.422,0,0,0-4.433,1.163,2.344,2.344,0,0,0-1.031,2,2.471,2.471,0,0,0,.965,1.954q1.229,1.031,5.969,2.151a31.5,31.5,0,0,1,7.012,2.315,9.043,9.043,0,0,1,3.556,3.27,10.13,10.13,0,0,1-.253,10.3,9.205,9.205,0,0,1-4.345,3.588,18.228,18.228,0,0,1-7,1.174q-6.1,0-9.371-2.82T785.345,336.688Z" transform="translate(-785.345 -314.435)" fill="#332d4a"/>
            <path id="Path_9" data-name="Path 9" d="M888.952,342.315a11.636,11.636,0,0,0-8.669-3.435,12.728,12.728,0,0,0-6.2,1.514,10.392,10.392,0,0,0-4.291,4.389,12.606,12.606,0,0,0-1.514,5.947,14.147,14.147,0,0,0,1.514,6.814,9.932,9.932,0,0,0,4.422,4.246,13.535,13.535,0,0,0,6.112,1.449,11.536,11.536,0,0,0,8.592-3.479,12.009,12.009,0,0,0,3.413-8.768A11.867,11.867,0,0,0,888.952,342.315Zm-4.6,14.056a5.38,5.38,0,0,1-8.109,0,9.392,9.392,0,0,1,0-10.622,5.381,5.381,0,0,1,8.109,0,7.687,7.687,0,0,1,1.635,5.267A7.83,7.83,0,0,1,884.354,356.371Z" transform="translate(-838.125 -329.992)" fill="#332d4a"/>
            <path id="Path_10" data-name="Path 10" d="M940.288,323.85h3.424v-1.756a11.671,11.671,0,0,1,.625-4.389,4.942,4.942,0,0,1,2.3-2.359,8.839,8.839,0,0,1,4.246-.911,17.164,17.164,0,0,1,5.158.79l-.834,4.3a12.2,12.2,0,0,0-2.831-.351,2.523,2.523,0,0,0-1.92.626,3.621,3.621,0,0,0-.582,2.4v1.646h4.608v4.85h-4.608v18.457h-6.167V328.7h-3.424Z" transform="translate(-883.952 -314.435)" fill="#332d4a"/>
            <path id="Path_11" data-name="Path 11" d="M995.109,325.924v4.916H990.9v9.393a23.3,23.3,0,0,0,.121,3.325,1.355,1.355,0,0,0,.549.779,1.738,1.738,0,0,0,1.042.307,7.981,7.981,0,0,0,2.48-.592l.527,4.784a12.263,12.263,0,0,1-4.872.922,7.729,7.729,0,0,1-3.007-.56,4.387,4.387,0,0,1-1.964-1.448,5.72,5.72,0,0,1-.867-2.4,29.889,29.889,0,0,1-.2-4.345V330.84h-2.831v-4.916h2.831v-4.631l6.189-3.6v8.23Z" transform="translate(-910.419 -316.509)" fill="#332d4a"/>
          </g>
        </g>
      </g>
      <g id="Đồng_hành_cùng_bạn_khởi_nghiệp" data-name="Đồng hành cùng bạn khởi nghiệp" transform="translate(100.823 50.521)" style="isolation: isolate">
        <text id="Tôi_cùng_bạn_khởi_nghiệp_thành_công" data-name="Tôi cùng bạn khởi nghiệp thành công" transform="translate(0 13)" fill="#4d4d4d" font-size="14" font-family="Arial-ItalicMT, Arial" font-style="italic" style="isolation: isolate"><tspan x="0" y="0">Tôi cùng bạn khởi nghiệp thành công</tspan></text>
      </g>
    </g>
  </g>
</svg>
