<svg xmlns="http://www.w3.org/2000/svg" xmlns:xlink="http://www.w3.org/1999/xlink" width="781.694" height="513.97" viewBox="0 0 781.694 513.97">
  <defs>
    <clipPath id="clip-path">
      <path id="Path_2764" data-name="Path 2764" d="M289.98,378.1a10.961,10.961,0,0,0,.809,7.612c-.355.159-.088,1.613.551,1.922.752.364,6.194.274,7.3-.588a1.173,1.173,0,0,0-.036-.976s1.362.515,5.233-.215a19.681,19.681,0,0,0,7.451-2.807c.457-.289.14-1.321-.372-1.155,0,0-.332-2.687-2.58-2.541-4.606.3-7.907-1.578-10.264-3a8.492,8.492,0,0,0-3.063-1.33A5.219,5.219,0,0,0,289.98,378.1Z" transform="translate(-289.646 -375.011)" fill="#ed0c37"/>
    </clipPath>
    <clipPath id="clip-path-2">
      <path id="Path_2773" data-name="Path 2773" d="M216.943,368.2A10.961,10.961,0,0,0,211,373.024c-.326-.21-1.4.806-1.311,1.509.106.83,3.148,5.344,4.474,5.8a1.172,1.172,0,0,0,.8-.563s.31,1.424,3.033,4.271a19.679,19.679,0,0,0,6.415,4.718c.49.225,1.184-.6.764-.943,0,0,2.072-1.743.724-3.548-2.759-3.7-2.988-7.489-3.079-10.24a8.476,8.476,0,0,0-.553-3.294A5.222,5.222,0,0,0,216.943,368.2Z" transform="translate(-209.685 -368.096)" fill="#ed0c37"/>
    </clipPath>
    <clipPath id="clip-path-3">
      <path id="Path_2801" data-name="Path 2801" d="M500.229,371.829a42.022,42.022,0,0,1,3.557,3.423c.505.746,2.467,6.291,2.467,6.291a4.73,4.73,0,0,1-3.066,2.118l-2.47-3.179s-1.265,5.558-2.54,7.362c-1.542,2.181-10.385,4.7-11.706,4.034,0,0-1.625-3.239,1.146-5.016,5.117-3.28,5.242-10.161,5.242-10.161A4.816,4.816,0,0,1,500.229,371.829Z" transform="translate(-485.998 -371.059)" fill="#fd6141"/>
    </clipPath>
    <clipPath id="clip-path-4">
      <path id="Path_2807" data-name="Path 2807" d="M515.183,374.97a41.914,41.914,0,0,1,2.108,4.465c.206.876.069,6.756.069,6.756a4.715,4.715,0,0,1-3.617.891l-1.18-3.849s-1.819,3.758-3.653,4.992c-2.217,1.49-10.112,3.318-11.439,2.665,0,0-1.82-3.522,1.108-5.025,7.334-3.762,7.983-8.959,7.983-8.959A4.817,4.817,0,0,1,515.183,374.97Z" transform="translate(-496.912 -373)" fill="#fd6141"/>
    </clipPath>
  </defs>
  <g id="Group_874" data-name="Group 874" transform="translate(-904 -202.765)">
    <g id="Group_759" data-name="Group 759" transform="translate(985.977 484.263)">
      <path id="Path_2602" data-name="Path 2602" d="M716.642,363.478c-2.326-14.182-24.607-16.542-24.607-16.542s13.017-25.684,3.785-37.315-30.446,15.685-30.446,15.685-7-17.261-17.423,0c0,0-17.36-15.683-32.373-7.623-10.724,5.759-9.143,20.969-7.364,29.195H313.371a8.938,8.938,0,0,0-.949-1.759c-9.959-14.221-38.844-6.9-38.844-6.9s12.064-35.244-7.828-45.927-42.895,10.1-42.895,10.1c-13.8-22.871-23.084,0-23.084,0s-28.109-36.195-40.341-20.783,5.015,49.441,5.015,49.441-29.52,3.128-32.6,21.918,51.073,38.3,51.073,38.3l495.18,1.117S718.969,377.658,716.642,363.478Z" transform="translate(-131.714 -277.788)" fill="#71bf9d"/>
      <g id="Group_727" data-name="Group 727" transform="translate(38.228 26.063)">
        <path id="Path_2603" data-name="Path 2603" d="M209.451,377.166a261.971,261.971,0,0,0-46.973-81.882" transform="translate(-154.878 -295.284)" fill="none" stroke="#e57e55" stroke-linecap="round" stroke-linejoin="round" stroke-width="0.997"/>
        <path id="Path_2604" data-name="Path 2604" d="M194,374.066a509.642,509.642,0,0,1,7.332-70.264" transform="translate(-139.441 -291.113)" fill="none" stroke="#e57e55" stroke-linecap="round" stroke-linejoin="round" stroke-width="0.997"/>
        <path id="Path_2605" data-name="Path 2605" d="M205.612,345.114a172.06,172.06,0,0,0-48.236-15.579" transform="translate(-157.376 -278.512)" fill="none" stroke="#e57e55" stroke-linecap="round" stroke-linejoin="round" stroke-width="0.997"/>
        <path id="Path_2606" data-name="Path 2606" d="M179.345,325.874a86.23,86.23,0,0,0,6.209-22.339" transform="translate(-146.618 -291.244)" fill="none" stroke="#e57e55" stroke-linecap="round" stroke-linejoin="round" stroke-width="0.997"/>
      </g>
      <g id="Group_728" data-name="Group 728" transform="translate(506.976 45.006)">
        <path id="Path_2607" data-name="Path 2607" d="M547.864,373.557A209.713,209.713,0,0,1,585.471,308" transform="translate(-542.005 -308)" fill="none" stroke="#e57e55" stroke-linecap="round" stroke-linejoin="round" stroke-width="0.798"/>
        <path id="Path_2608" data-name="Path 2608" d="M549.8,371.074a408.047,408.047,0,0,0-5.869-56.255" transform="translate(-543.931 -304.661)" fill="none" stroke="#e57e55" stroke-linecap="round" stroke-linejoin="round" stroke-width="0.798"/>
        <path id="Path_2609" data-name="Path 2609" d="M551.27,347.9a137.783,137.783,0,0,1,38.619-12.473" transform="translate(-540.337 -294.572)" fill="none" stroke="#e57e55" stroke-linecap="round" stroke-linejoin="round" stroke-width="0.798"/>
        <path id="Path_2610" data-name="Path 2610" d="M561.239,332.491a69.026,69.026,0,0,1-4.971-17.885" transform="translate(-537.89 -304.765)" fill="none" stroke="#e57e55" stroke-linecap="round" stroke-linejoin="round" stroke-width="0.798"/>
      </g>
      <g id="Group_743" data-name="Group 743" transform="translate(29.975 2.431)">
        <g id="Group_735" data-name="Group 735" transform="translate(32.217 9.699)">
          <g id="Group_729" data-name="Group 729">
            <path id="Path_2611" data-name="Path 2611" d="M174.235,285.943a2,2,0,0,1,.734.372,1.88,1.88,0,0,1,.529.632.655.655,0,0,1-.323.854.639.639,0,0,1-.4.048,2.052,2.052,0,0,1-.725-.371,1.938,1.938,0,0,1-.524-.623.658.658,0,0,1,.307-.858A.628.628,0,0,1,174.235,285.943Z" transform="translate(-173.463 -285.931)" fill="#fff"/>
          </g>
          <g id="Group_730" data-name="Group 730" transform="translate(2.368 1.919)">
            <path id="Path_2612" data-name="Path 2612" d="M175.843,287.234a2.071,2.071,0,0,1,1.235,1.037.655.655,0,0,1-.346.845.629.629,0,0,1-.405.037,1.951,1.951,0,0,1-.717-.389,1.986,1.986,0,0,1-.507-.639.653.653,0,0,1,.329-.846A.636.636,0,0,1,175.843,287.234Z" transform="translate(-175.052 -287.219)" fill="#fff"/>
          </g>
          <g id="Group_731" data-name="Group 731" transform="translate(4.684 3.9)">
            <path id="Path_2613" data-name="Path 2613" d="M177.414,288.567a1.944,1.944,0,0,1,.714.41,1.985,1.985,0,0,1,.495.657.655.655,0,0,1-.772.864,1.97,1.97,0,0,1-.706-.407,2.047,2.047,0,0,1-.492-.651.654.654,0,0,1,.35-.839A.645.645,0,0,1,177.414,288.567Z" transform="translate(-176.607 -288.548)" fill="#fff"/>
          </g>
          <g id="Group_732" data-name="Group 732" transform="translate(8.685 7.544)">
            <path id="Path_2614" data-name="Path 2614" d="M180.123,291.021a2.035,2.035,0,0,1,1.168,1.111.651.651,0,0,1-.4.819.627.627,0,0,1-.407.015,2.09,2.09,0,0,1-1.159-1.1.658.658,0,0,1,.384-.825A.627.627,0,0,1,180.123,291.021Z" transform="translate(-179.293 -290.994)" fill="#fff"/>
          </g>
          <g id="Group_733" data-name="Group 733" transform="translate(11.477 10.254)">
            <path id="Path_2615" data-name="Path 2615" d="M181.985,292.816a.824.824,0,0,1,.462.228.806.806,0,0,1,.228.46.763.763,0,0,1-.676.815.96.96,0,0,1-.146,0,.8.8,0,0,1-.682-.682.762.762,0,0,1,.666-.819A.829.829,0,0,1,181.985,292.816Z" transform="translate(-181.167 -292.814)" fill="#fff"/>
          </g>
          <g id="Group_734" data-name="Group 734" transform="translate(13.731 12.606)">
            <path id="Path_2616" data-name="Path 2616" d="M183.517,294.4a.822.822,0,0,1,.456.24.812.812,0,0,1,.216.468.763.763,0,0,1-.7.794.933.933,0,0,1-.144,0,.8.8,0,0,1-.448-.237.815.815,0,0,1-.213-.462.762.762,0,0,1,.687-.8A.712.712,0,0,1,183.517,294.4Z" transform="translate(-182.68 -294.393)" fill="#fff"/>
          </g>
        </g>
        <g id="Group_742" data-name="Group 742">
          <g id="Group_736" data-name="Group 736" transform="translate(6.065)">
            <path id="Path_2617" data-name="Path 2617" d="M156.178,281.184a12.648,12.648,0,0,1,6.736-1.764,19.5,19.5,0,0,1,6.768,1.549,42.977,42.977,0,0,1,6.054,3.188,62.021,62.021,0,0,1,5.531,3.945.58.58,0,0,1-.7.927c-1.82-1.292-3.674-2.528-5.574-3.671a41.431,41.431,0,0,0-5.877-3.014,18.076,18.076,0,0,0-6.231-1.515,12.125,12.125,0,0,0-6.114,1.347.621.621,0,0,1-.779-.238A.529.529,0,0,1,156.178,281.184Z" transform="translate(-155.907 -279.42)" fill="#fff"/>
          </g>
          <g id="Group_737" data-name="Group 737" transform="translate(3.869 2.61)">
            <path id="Path_2618" data-name="Path 2618" d="M156.227,282.064c-.07.244-.25.355-.368.536a1.256,1.256,0,0,1-.544.36.709.709,0,0,1-.851-.429.653.653,0,0,1-.016-.338,1.614,1.614,0,0,1,.369-.651,1.237,1.237,0,0,1,.657-.359.661.661,0,0,1,.772.553A.686.686,0,0,1,156.227,282.064Z" transform="translate(-154.433 -281.172)" fill="#fff"/>
          </g>
          <g id="Group_738" data-name="Group 738" transform="translate(2.334 4.577)">
            <path id="Path_2619" data-name="Path 2619" d="M155.1,283.222a1.316,1.316,0,0,1-.223.621,1.925,1.925,0,0,1-.457.48.675.675,0,0,1-1.019-.551,1.215,1.215,0,0,1,.21-.7,1.6,1.6,0,0,1,.541-.508.65.65,0,0,1,.879.335A.727.727,0,0,1,155.1,283.222Z" transform="translate(-153.403 -282.492)" fill="#fff"/>
          </g>
          <g id="Group_739" data-name="Group 739" transform="translate(0.375 6.728)">
            <path id="Path_2620" data-name="Path 2620" d="M154.55,284.666c-.094.44-.222.86-.353,1.278l-.325,1.286c-.214.86-.395,1.725-.633,2.6a.6.6,0,0,1-.721.4.558.558,0,0,1-.428-.542,12.168,12.168,0,0,1,.34-2.814l.428-1.366a13.169,13.169,0,0,1,.627-1.3.572.572,0,0,1,.81-.174A.6.6,0,0,1,154.55,284.666Z" transform="translate(-152.088 -283.936)" fill="#fff"/>
          </g>
          <g id="Group_740" data-name="Group 740" transform="translate(0 14.632)">
            <path id="Path_2621" data-name="Path 2621" d="M153.171,289.51a.578.578,0,0,1-.028.8.824.824,0,0,1-1.143-.009l-.016-.018a.612.612,0,0,1,.031-.831.819.819,0,0,1,1.138.033Z" transform="translate(-151.836 -289.242)" fill="#fff"/>
          </g>
          <g id="Group_741" data-name="Group 741" transform="translate(0.036 17.385)">
            <path id="Path_2622" data-name="Path 2622" d="M153.166,291.315a.578.578,0,0,1,.03.806.822.822,0,0,1-1.14.069l-.018-.015a.606.606,0,0,1-.03-.828.821.821,0,0,1,1.138-.051Z" transform="translate(-151.86 -291.09)" fill="#fff"/>
          </g>
        </g>
      </g>
      <g id="Group_758" data-name="Group 758" transform="translate(527.584 31.987)">
        <g id="Group_750" data-name="Group 750" transform="translate(24.066 16.651)">
          <g id="Group_744" data-name="Group 744" transform="translate(6.284)">
            <path id="Path_2623" data-name="Path 2623" d="M579.678,310.938a2.288,2.288,0,0,1-.025.885,2.125,2.125,0,0,1-.361.806.631.631,0,0,1-.913.091.657.657,0,0,1-.211-.362,2.36,2.36,0,0,1,.037-.866,2.25,2.25,0,0,1,.341-.8.642.642,0,0,1,.912-.121A.651.651,0,0,1,579.678,310.938Z" transform="translate(-578.139 -310.438)" fill="#fff"/>
          </g>
          <g id="Group_745" data-name="Group 745" transform="translate(5.466 3.17)">
            <path id="Path_2624" data-name="Path 2624" d="M579.181,313.1a2.3,2.3,0,0,1-.066.879,2.184,2.184,0,0,1-.393.79.632.632,0,0,1-.916.054.659.659,0,0,1-.2-.372,2.311,2.311,0,0,1,.074-.864,2.229,2.229,0,0,1,.378-.781.638.638,0,0,1,.915-.076A.661.661,0,0,1,579.181,313.1Z" transform="translate(-577.59 -312.566)" fill="#fff"/>
          </g>
          <g id="Group_746" data-name="Group 746" transform="translate(4.53 6.306)">
            <path id="Path_2625" data-name="Path 2625" d="M578.591,315.224a2.3,2.3,0,0,1-.1.876,2.222,2.222,0,0,1-.42.773.63.63,0,0,1-.916.024.66.66,0,0,1-.185-.378,2.234,2.234,0,0,1,.1-.863,2.207,2.207,0,0,1,.405-.767.637.637,0,0,1,.916-.043A.661.661,0,0,1,578.591,315.224Z" transform="translate(-576.961 -314.671)" fill="#fff"/>
          </g>
          <g id="Group_747" data-name="Group 747" transform="translate(2.636 11.797)">
            <path id="Path_2626" data-name="Path 2626" d="M577.375,318.944a2.285,2.285,0,0,1-.141.867,2.178,2.178,0,0,1-.454.751.634.634,0,0,1-.918-.019.658.658,0,0,1-.167-.387,2.3,2.3,0,0,1,.145-.858,2.27,2.27,0,0,1,.445-.746.639.639,0,0,1,.919,0A.656.656,0,0,1,577.375,318.944Z" transform="translate(-575.69 -318.358)" fill="#fff"/>
          </g>
          <g id="Group_748" data-name="Group 748" transform="translate(1.37 15.725)">
            <path id="Path_2627" data-name="Path 2627" d="M576.327,321.524a.908.908,0,0,1-.04.544.894.894,0,0,1-.346.423.728.728,0,0,1-1.017-.295.744.744,0,0,1-.057-.14.9.9,0,0,1,.383-.958.727.727,0,0,1,1.019.283A.745.745,0,0,1,576.327,321.524Z" transform="translate(-574.84 -320.994)" fill="#fff"/>
          </g>
          <g id="Group_749" data-name="Group 749" transform="translate(0 18.933)">
            <path id="Path_2628" data-name="Path 2628" d="M575.417,323.7a.914.914,0,0,1-.057.544.9.9,0,0,1-.359.414.74.74,0,0,1-1.059-.469.887.887,0,0,1,.057-.536.907.907,0,0,1,.353-.408.729.729,0,0,1,1.011.311A.9.9,0,0,1,575.417,323.7Z" transform="translate(-573.92 -323.148)" fill="#fff"/>
          </g>
        </g>
        <g id="Group_757" data-name="Group 757" transform="translate(0)">
          <g id="Group_751" data-name="Group 751" transform="translate(15.048)">
            <path id="Path_2629" data-name="Path 2629" d="M568.159,302.795a26.6,26.6,0,0,1,6.692-3.037,9.641,9.641,0,0,1,7.508.556,6.2,6.2,0,0,1,2.491,3.075,13.191,13.191,0,0,1,.772,3.717,29.667,29.667,0,0,1-.657,7.311.579.579,0,1,1-1.141-.2,32.67,32.67,0,0,0,.392-7.012c-.183-2.245-.84-4.608-2.631-5.625a8.25,8.25,0,0,0-6.377-.459,28.579,28.579,0,0,0-6.47,2.678.588.588,0,0,1-.8-.216A.6.6,0,0,1,568.159,302.795Z" transform="translate(-567.866 -299.261)" fill="#fff"/>
          </g>
          <g id="Group_752" data-name="Group 752" transform="translate(12.507 4.293)">
            <path id="Path_2630" data-name="Path 2630" d="M568.084,303.127a1.631,1.631,0,0,1-.518.52,1.715,1.715,0,0,1-.69.256.658.658,0,0,1-.715-.626.7.7,0,0,1,.076-.34,1.586,1.586,0,0,1,.524-.539,1.692,1.692,0,0,1,.709-.255.651.651,0,0,1,.7.645A.706.706,0,0,1,568.084,303.127Z" transform="translate(-566.161 -302.142)" fill="#fff"/>
          </g>
          <g id="Group_753" data-name="Group 753" transform="translate(10.237 5.823)">
            <path id="Path_2631" data-name="Path 2631" d="M566.554,304.125a1.624,1.624,0,0,1-.495.545,1.721,1.721,0,0,1-.679.287.66.66,0,0,1-.742-.6.7.7,0,0,1,.063-.341,1.574,1.574,0,0,1,.5-.562,1.682,1.682,0,0,1,.694-.286.651.651,0,0,1,.728.609A.716.716,0,0,1,566.554,304.125Z" transform="translate(-564.637 -303.169)" fill="#fff"/>
          </g>
          <g id="Group_754" data-name="Group 754" transform="translate(4.49 7.374)">
            <path id="Path_2632" data-name="Path 2632" d="M566.23,305.217c-.694.694-1.454,1.3-2.2,1.928-.769.594-1.515,1.217-2.343,1.747a.59.59,0,0,1-.822-.161.6.6,0,0,1,.066-.715,19.849,19.849,0,0,1,2.165-2.025,19.053,19.053,0,0,1,2.434-1.7.582.582,0,0,1,.81.217A.6.6,0,0,1,566.23,305.217Z" transform="translate(-560.779 -304.211)" fill="#fff"/>
          </g>
          <g id="Group_755" data-name="Group 755" transform="translate(2.119 12.843)">
            <path id="Path_2633" data-name="Path 2633" d="M560.618,308.739a.665.665,0,0,1-.642.588.785.785,0,0,1-.788-.827l0-.024a.68.68,0,0,1,.213-.419.7.7,0,0,1,.436-.176.782.782,0,0,1,.781.828Z" transform="translate(-559.188 -307.882)" fill="#fff"/>
          </g>
          <g id="Group_756" data-name="Group 756" transform="translate(0 14.891)">
            <path id="Path_2634" data-name="Path 2634" d="M559.2,310.088a.68.68,0,0,1-.2.42.663.663,0,0,1-.422.188.784.784,0,0,1-.819-.794v-.024a.674.674,0,0,1,.632-.621.783.783,0,0,1,.806.8Z" transform="translate(-557.765 -309.257)" fill="#fff"/>
          </g>
        </g>
      </g>
    </g>
    <g id="Group_775" data-name="Group 775" transform="translate(978.426 202.765)">
      <path id="Path_2635" data-name="Path 2635" d="M433.1,344.238c-75.737-1.4-278.289,72.452-303,0-20.365-59.707,55.779-55.129,60.2-104.566s-15.4-70.492,16.206-93.38,83.106,8.889,117.118-22.888S375.393,68.476,451.956,57.49s133.227,90.634,165.987,100.7,79.683-15.563,102.7,15.563-51.352,100.01-35.415,128.737,54.96,44.29,39.876,84.572S506.819,345.6,433.1,344.238Z" transform="translate(-126.646 -56.66)" fill="#ffd25a"/>
      <g id="Group_774" data-name="Group 774" transform="translate(3.3 238.931)">
        <g id="Group_766" data-name="Group 766" transform="translate(1.623)">
          <g id="Group_760" data-name="Group 760" transform="translate(0 18.597)">
            <path id="Path_2636" data-name="Path 2636" d="M129.951,231.936a3.028,3.028,0,0,1,.228-1.132,3.835,3.835,0,0,1,.571-1,.57.57,0,0,1,.947-.031.86.86,0,0,1,.122.477,3.576,3.576,0,0,1-.252,1.08,5.014,5.014,0,0,1-.518.977c-.282.353-.708.408-.944.106A.8.8,0,0,1,129.951,231.936Z" transform="translate(-129.951 -229.535)" fill="#fff"/>
          </g>
          <g id="Group_761" data-name="Group 761" transform="translate(1.637 14.792)">
            <path id="Path_2637" data-name="Path 2637" d="M131.053,229.189a3.445,3.445,0,0,1,.38-1.087,3.237,3.237,0,0,1,.688-.922c.362-.3.785-.253.952.092a.787.787,0,0,1,.052.483,4.305,4.305,0,0,1-.38,1.043,4.138,4.138,0,0,1-.652.9.578.578,0,0,1-.944-.016A.822.822,0,0,1,131.053,229.189Z" transform="translate(-131.049 -226.98)" fill="#fff"/>
          </g>
          <g id="Group_762" data-name="Group 762" transform="translate(3.745 11.228)">
            <path id="Path_2638" data-name="Path 2638" d="M132.492,226.608a3.835,3.835,0,0,1,.492-1.04,3.533,3.533,0,0,1,.8-.83c.387-.264.8-.171.93.192a.813.813,0,0,1,0,.492,3.823,3.823,0,0,1-.508.988,3.6,3.6,0,0,1-.742.827c-.366.27-.8.216-.947-.134A.793.793,0,0,1,132.492,226.608Z" transform="translate(-132.465 -224.588)" fill="#fff"/>
          </g>
          <g id="Group_763" data-name="Group 763" transform="translate(8.424 5.558)">
            <path id="Path_2639" data-name="Path 2639" d="M135.679,222.47a3.573,3.573,0,0,1,.673-.928,3.268,3.268,0,0,1,.922-.679c.428-.191.819-.03.885.352a.809.809,0,0,1-.082.483,4.308,4.308,0,0,1-.67.891,3.922,3.922,0,0,1-.885.676c-.4.207-.81.079-.9-.3A.812.812,0,0,1,135.679,222.47Z" transform="translate(-135.605 -220.782)" fill="#fff"/>
          </g>
          <g id="Group_764" data-name="Group 764" transform="translate(12.395 2.641)">
            <path id="Path_2640" data-name="Path 2640" d="M138.322,219.7a1.375,1.375,0,0,1,.422-.563,1.458,1.458,0,0,1,.635-.3.622.622,0,0,1,.764.737,1.165,1.165,0,0,1-.043.168,1.4,1.4,0,0,1-.414.547,1.522,1.522,0,0,1-.617.3.626.626,0,0,1-.79-.709A1.061,1.061,0,0,1,138.322,219.7Z" transform="translate(-138.271 -218.823)" fill="#fff"/>
          </g>
          <g id="Group_765" data-name="Group 765" transform="translate(16.036)">
            <path id="Path_2641" data-name="Path 2641" d="M140.8,217.8a1.408,1.408,0,0,1,.481-.518,1.428,1.428,0,0,1,.67-.235.621.621,0,0,1,.672.824.925.925,0,0,1-.063.161,1.443,1.443,0,0,1-.466.493,1.494,1.494,0,0,1-.642.232.625.625,0,0,1-.712-.787A1,1,0,0,1,140.8,217.8Z" transform="translate(-140.715 -217.051)" fill="#fff"/>
          </g>
        </g>
        <g id="Group_773" data-name="Group 773" transform="translate(0 22.948)">
          <g id="Group_767" data-name="Group 767">
            <path id="Path_2642" data-name="Path 2642" d="M140.19,268.27c-1.087-1.153-1.992-2.461-2.993-3.691-.855-1.332-1.735-2.655-2.535-4.021-.7-1.418-1.455-2.816-2.117-4.253l-1.747-4.415a36.655,36.655,0,0,1-1.879-9.345,29.133,29.133,0,0,1,.958-9.474c.119-.425.463-.691.769-.594a.71.71,0,0,1,.356.873,30.1,30.1,0,0,0-.676,9.1,35.094,35.094,0,0,0,1.878,8.954l1.667,4.316c.632,1.4,1.353,2.766,2.024,4.153.758,1.336,1.585,2.635,2.381,3.954.939,1.216,1.774,2.521,2.787,3.68a.677.677,0,0,1,.069.95A.722.722,0,0,1,140.19,268.27Z" transform="translate(-128.861 -232.456)" fill="#fff"/>
          </g>
          <g id="Group_768" data-name="Group 768" transform="translate(12.669 36.656)">
            <path id="Path_2643" data-name="Path 2643" d="M138.254,257.136a3.065,3.065,0,0,1,.754.56,2.6,2.6,0,0,1,.574.743c.186.423.019.827-.387.889a.859.859,0,0,1-.407-.046,2.809,2.809,0,0,1-.824-.529,2.422,2.422,0,0,1-.541-.813c-.164-.454.037-.84.439-.876A.811.811,0,0,1,138.254,257.136Z" transform="translate(-137.366 -257.062)" fill="#fff"/>
          </g>
          <g id="Group_769" data-name="Group 769" transform="translate(15.278 39.113)">
            <path id="Path_2644" data-name="Path 2644" d="M139.962,258.758a3.512,3.512,0,0,1,.8.484,2.553,2.553,0,0,1,.636.691.585.585,0,0,1-.305.922.845.845,0,0,1-.408-.01,2.764,2.764,0,0,1-.865-.456,2.19,2.19,0,0,1-.618-.755c-.206-.438-.039-.842.359-.912A.8.8,0,0,1,139.962,258.758Z" transform="translate(-139.117 -258.711)" fill="#fff"/>
          </g>
          <g id="Group_770" data-name="Group 770" transform="translate(17.926 41.216)">
            <path id="Path_2645" data-name="Path 2645" d="M141.861,260.257l3.255,1.89,3.282,1.838a.662.662,0,0,1,.346.885.7.7,0,0,1-.813.174,20.153,20.153,0,0,1-3.551-1.609,23.048,23.048,0,0,1-3.191-2.236c-.323-.305-.389-.727-.147-.946A.7.7,0,0,1,141.861,260.257Z" transform="translate(-140.894 -260.123)" fill="#fff"/>
          </g>
          <g id="Group_771" data-name="Group 771" transform="translate(27.862 46.214)">
            <path id="Path_2646" data-name="Path 2646" d="M148.1,263.517a1.063,1.063,0,0,1,.585.01,1.036,1.036,0,0,1,.484.323.669.669,0,0,1-.305,1.1l-.027.009a1.114,1.114,0,0,1-1.108-.347.666.666,0,0,1,.34-1.086Z" transform="translate(-147.564 -263.478)" fill="#fff"/>
          </g>
          <g id="Group_772" data-name="Group 772" transform="translate(31.577 47.141)">
            <path id="Path_2647" data-name="Path 2647" d="M150.512,264.168a1.058,1.058,0,0,1,.574-.052,1,1,0,0,1,.515.247.67.67,0,0,1-.137,1.135l-.025.012a1.126,1.126,0,0,1-.611.069,1.089,1.089,0,0,1-.545-.276.668.668,0,0,1,.2-1.122Z" transform="translate(-150.058 -264.101)" fill="#fff"/>
          </g>
        </g>
      </g>
      <path id="Path_2648" data-name="Path 2648" d="M407.849,88.922q-62.687,10.192-97.515,57.067c-21.669,28.532-17.026,65.217,1.548,93.75,17.027,27.175,49.532,36.685,80.488,43.48,86.681,20.38,165.621,46.2,247.656,72.011,35.6,10.869,77.392,27.173,108.35,2.717l.048-.037a9.687,9.687,0,0,0,3.61-9.594c-4.928-24.048-35.765-38.4-50.3-60.647-18.773-28.727,68.833-97.61,41.717-128.737s-82.392-5.492-120.979-15.563c-4.575-1.195-9.55-3.687-14.909-7.113C538.52,120.937,483.981,77.13,407.849,88.922Z" transform="translate(-150.848 -41.837)" fill="#ffbe57"/>
      <path id="Path_2649" data-name="Path 2649" d="M693.034,389.186c-30.836,0-83.789-13.994-135-27.528-50.4-13.319-98-25.9-127.378-26.445-.747-.015-1.52-.022-2.29-.022-24.157,0-59.732,6.844-97.4,14.088-43.432,8.354-92.658,17.823-130.859,17.824-37.619,0-58.946-8.949-65.2-27.358-9.661-28.438,4.591-38.589,24.319-52.64,15.826-11.271,33.763-24.047,35.993-49.04,1.576-17.659.169-31.975-.961-43.477-2.107-21.463-3.165-32.235,14.341-44.965,7.543-5.484,16.922-7.824,31.364-7.824,5.5,0,11.119.32,17.062.66,6.015.344,12.236.7,18.417.7,15.074,0,34.431-1.926,50.445-16.945,3.116-2.923,6.1-5.773,9-8.548,27.914-26.7,48.08-45.991,115.335-55.68a75.041,75.041,0,0,1,10.646-.764c42.717,0,79.022,36.581,108.194,65.972,17.415,17.546,31.169,31.4,43.722,35.279a71.716,71.716,0,0,0,21.255,2.79c7.66,0,15.569-.776,23.219-1.527,7.616-.748,14.81-1.452,21.725-1.452,16.063,0,25.863,4,32.764,13.367,9.483,12.874-5.044,39.01-17.86,62.069-14.008,25.2-27.24,49.006-17.893,65.922,5.4,9.778,13.023,17.888,20.394,25.731,15.465,16.461,27.682,29.462,18.9,53.006C713.653,386.768,705.748,389.186,693.034,389.186Z" transform="translate(-124.115 -54.427)" fill="none" stroke="#fff" stroke-miterlimit="10" stroke-width="0.973"/>
    </g>
    <g id="Group_793" data-name="Group 793" transform="translate(1049.951 299.236)">
      <rect id="Rectangle_294" data-name="Rectangle 294" width="477.412" height="263.622" rx="3.855" transform="translate(16.698 19.9)" fill="#764582"/>
      <rect id="Rectangle_295" data-name="Rectangle 295" width="477.412" height="263.622" rx="3.855" transform="translate(8.349 9.95)" fill="#9d68aa"/>
      <g id="Group_780" data-name="Group 780">
        <rect id="Rectangle_296" data-name="Rectangle 296" width="477.412" height="263.622" rx="2.124" fill="#fff" stroke="#764582" stroke-miterlimit="10" stroke-width="0.974"/>
        <path id="Path_2650" data-name="Path 2650" d="M231.371,156.574H261.9v-1.8H231.371Zm-7.185.9h3.592v-3.592h-3.592Zm7.185,8.98H261.9v-1.8H231.371Zm-7.185.9h3.592v-3.592h-3.592Zm7.185,8.981H261.9v-1.8H231.371Zm-7.185.9h3.592v-3.593h-3.592Z" transform="translate(-204.759 -133.981)" fill="#764582" fill-rule="evenodd"/>
        <rect id="Rectangle_297" data-name="Rectangle 297" width="135.59" height="131.443" rx="15.112" transform="translate(19.426 59.143)" fill="#fff" stroke="#764582" stroke-miterlimit="10" stroke-width="1.024"/>
        <rect id="Rectangle_298" data-name="Rectangle 298" width="135.59" height="131.443" rx="15.112" transform="translate(171.73 59.143)" fill="#fff" stroke="#764582" stroke-miterlimit="10" stroke-width="1.024"/>
        <rect id="Rectangle_299" data-name="Rectangle 299" width="135.59" height="131.443" rx="15.112" transform="translate(324.034 59.143)" fill="#fff" stroke="#764582" stroke-miterlimit="10" stroke-width="1.024"/>
        <g id="Group_779" data-name="Group 779" transform="translate(419.244 15.523)">
          <g id="Group_778" data-name="Group 778">
            <g id="Group_776" data-name="Group 776">
              <path id="Path_2651" data-name="Path 2651" d="M499.776,168.761,497.5,153.578a.846.846,0,0,0-.837-.725l-4.083-.025.012-1.884,4.083.025a2.724,2.724,0,0,1,2.689,2.331l.253,1.688,25.754.162-2.644,11.976Zm.122-11.888,1.482,9.886,19.805-1.414,1.838-8.326Z" transform="translate(-492.576 -150.943)" fill="#764582"/>
            </g>
            <g id="Group_777" data-name="Group 777" transform="translate(6.614 16.667)">
              <path id="Path_2652" data-name="Path 2652" d="M520.9,166.856l-22.256-.13a1.632,1.632,0,0,1-1.6-1.895l.437-2.7,1.861.3-.39,2.412,21.964.128Z" transform="translate(-497.016 -162.131)" fill="#764582"/>
            </g>
            <path id="Path_2653" data-name="Path 2653" d="M503.589,168.643a2.541,2.541,0,1,1-2.525-2.556A2.541,2.541,0,0,1,503.589,168.643Z" transform="translate(-489.671 -143.527)" fill="none" stroke="#764582" stroke-miterlimit="10" stroke-width="1.265"/>
            <path id="Path_2654" data-name="Path 2654" d="M512.539,168.7a2.541,2.541,0,1,1-2.523-2.558A2.54,2.54,0,0,1,512.539,168.7Z" transform="translate(-485.288 -143.5)" fill="none" stroke="#764582" stroke-miterlimit="10" stroke-width="1.265"/>
          </g>
        </g>
        <line id="Line_8" data-name="Line 8" x2="136.242" transform="translate(171.078 199.679)" fill="#fff" stroke="#764582" stroke-linecap="round" stroke-linejoin="round" stroke-width="1.024"/>
      </g>
      <g id="Group_783" data-name="Group 783" transform="translate(192.823 98.338)">
        <path id="Path_2655" data-name="Path 2655" d="M439.973,237.313c0,1.859-22.25,3.367-49.694,3.367s-49.694-1.508-49.694-3.367,22.248-3.368,49.694-3.368S439.973,235.453,439.973,237.313Z" transform="translate(-340.584 -193.113)" fill="#a1abad" opacity="0.7" style="mix-blend-mode: multiply;isolation: isolate"/>
        <g id="Group_782" data-name="Group 782" transform="translate(1.148)">
          <g id="Group_781" data-name="Group 781">
            <path id="Path_2656" data-name="Path 2656" d="M347.388,212.929s.994-2.515,9.695.788c4.719,1.791,10.869,6.117,22.838.9,0,0,3.647,12.1-11.606,11.045S347.388,212.929,347.388,212.929Z" transform="translate(-338.4 -203.853)" fill="#dd4026"/>
            <path id="Path_2657" data-name="Path 2657" d="M435.18,226.131l3.532.931c2.007,1.065,1.9,6.406.246,8.056,0,0-14.267,8.341-56.045,9.047-24.03-.462-40.09-4.57-40.834-6.2s-.809-5.282-.661-7.864l4.53-5.278Z" transform="translate(-341.354 -197.581)" fill="#e2e2e2"/>
            <path id="Path_2658" data-name="Path 2658" d="M349.55,215.612s-4.709,4.517-5.266,8.239c-.8,5.348-1.706,8-1.129,13.4,0,0,13.549,5.282,36.123,5.546,11.141.13,27.127-.545,38.823-2.629,9.953-1.774,19.819-4.152,19.819-4.152-2.874-10.061-11.569-6.325-23.96-10.249-8.429-2.668-28.5-19.232-28.5-19.232s-4.651,3.453-4.9,5.226c-.159,1.12,2.054,4.033,2.054,4.033s-.559,9.512-10.051,10.143C363.321,226.55,349.55,215.612,349.55,215.612Z" transform="translate(-340.562 -206.535)" fill="#fd6141"/>
            <path id="Path_2659" data-name="Path 2659" d="M438.691,226.325a54.406,54.406,0,0,1-18.432,7.2c-11.18,2.167-29.442,2.89-40.822,2.458-12.579-.48-38.041-6.619-38.041-6.619" transform="translate(-341.333 -196.844)" fill="none"/>
            <path id="Path_2660" data-name="Path 2660" d="M369.583,212.75s4.807.015,6.513.612c4.01,1.4,15.616,10.663,24.31,11.763" transform="translate(-327.531 -203.492)" fill="none" stroke="#efe9da" stroke-linecap="round" stroke-miterlimit="10" stroke-width="1.157"/>
            <path id="Path_2661" data-name="Path 2661" d="M381.289,213.265l-3.876,6.263c-.532.739-2.854-.931-2.322-1.67l3.592-6.608C379.457,210.248,382.064,212.264,381.289,213.265Z" transform="translate(-324.872 -204.359)" fill="#e2e2e2"/>
            <path id="Path_2662" data-name="Path 2662" d="M385.229,215.5l-4.074,6.641c-.5,1.114-3.1-.043-2.607-1.159l4.074-7.5C383.4,212.482,386,214.5,385.229,215.5Z" transform="translate(-323.172 -203.265)" fill="#e2e2e2"/>
            <path id="Path_2663" data-name="Path 2663" d="M389.012,217.735l-4.125,6.674c-.439.941-3-.249-2.556-1.192l4.074-7.5C387.18,214.718,389.786,216.734,389.012,217.735Z" transform="translate(-321.314 -202.171)" fill="#e2e2e2"/>
            <path id="Path_2664" data-name="Path 2664" d="M371.318,215.268a1.484,1.484,0,0,1,2.957.122L373.1,226.513c0,1.606-1.686,1.606-1.686,0Z" transform="translate(-326.682 -202.902)" fill="#e2e2e2"/>
            <path id="Path_2665" data-name="Path 2665" d="M364.415,235.781a12.247,12.247,0,0,1,6.117-7.206c5.336-2.515,18.012,2.238,25.025-1.655,2.06-1.143,7.38-5.863,7.38-5.863" transform="translate(-330.062 -199.424)" fill="none" stroke="#efe9da" stroke-linecap="round" stroke-miterlimit="10" stroke-width="1.157"/>
            <path id="Path_2666" data-name="Path 2666" d="M344.681,216.19S352.2,219.56,355.7,224c1.576,2,3.772,12.762,3.772,12.762" transform="translate(-339.725 -201.807)" fill="none" stroke="#efe9da" stroke-linecap="round" stroke-miterlimit="10" stroke-width="1.157"/>
          </g>
        </g>
      </g>
      <g id="Group_786" data-name="Group 786" transform="translate(36.677 98.338)">
        <path id="Path_2667" data-name="Path 2667" d="M335.155,237.313c0,1.859-22.25,3.367-49.694,3.367s-49.694-1.508-49.694-3.367,22.248-3.368,49.694-3.368S335.155,235.453,335.155,237.313Z" transform="translate(-235.766 -193.113)" fill="#a1abad" opacity="0.7" style="mix-blend-mode: multiply;isolation: isolate"/>
        <g id="Group_785" data-name="Group 785" transform="translate(1.148)">
          <g id="Group_784" data-name="Group 784">
            <path id="Path_2668" data-name="Path 2668" d="M242.57,212.929s.994-2.515,9.695.788c4.719,1.791,10.869,6.117,22.838.9,0,0,3.647,12.1-11.606,11.045S242.57,212.929,242.57,212.929Z" transform="translate(-233.582 -203.853)" fill="#dd4026"/>
            <path id="Path_2669" data-name="Path 2669" d="M330.362,226.131l3.532.931c2.007,1.065,1.9,6.406.246,8.056,0,0-14.267,8.341-56.045,9.047-24.03-.462-40.09-4.57-40.832-6.2s-.81-5.282-.663-7.864l4.53-5.278Z" transform="translate(-236.536 -197.581)" fill="#e2e2e2"/>
            <path id="Path_2670" data-name="Path 2670" d="M244.732,215.612s-4.709,4.517-5.266,8.239c-.8,5.348-1.706,8-1.129,13.4,0,0,13.549,5.282,36.123,5.546,11.141.13,27.127-.545,38.823-2.629,9.953-1.774,19.819-4.152,19.819-4.152-2.874-10.061-11.569-6.325-23.96-10.249-8.429-2.668-28.5-19.232-28.5-19.232s-4.652,3.453-4.9,5.226c-.159,1.12,2.054,4.033,2.054,4.033s-.559,9.512-10.049,10.143C258.5,226.55,244.732,215.612,244.732,215.612Z" transform="translate(-235.744 -206.535)" fill="#ffd25a"/>
            <path id="Path_2671" data-name="Path 2671" d="M333.873,226.325a54.405,54.405,0,0,1-18.432,7.2c-11.179,2.167-29.442,2.89-40.822,2.458-12.579-.48-38.041-6.619-38.041-6.619" transform="translate(-236.516 -196.844)" fill="none"/>
            <path id="Path_2672" data-name="Path 2672" d="M264.765,212.75s4.807.015,6.513.612c4.01,1.4,15.616,10.663,24.31,11.763" transform="translate(-222.713 -203.492)" fill="none" stroke="#efe9da" stroke-miterlimit="10" stroke-width="1.157"/>
            <path id="Path_2673" data-name="Path 2673" d="M276.471,213.265l-3.876,6.263c-.532.739-2.854-.931-2.322-1.67l3.592-6.608C274.639,210.248,277.246,212.264,276.471,213.265Z" transform="translate(-220.055 -204.359)" fill="#e2e2e2"/>
            <path id="Path_2674" data-name="Path 2674" d="M280.411,215.5l-4.074,6.641c-.5,1.114-3.1-.043-2.607-1.159l4.074-7.5C278.578,212.482,281.185,214.5,280.411,215.5Z" transform="translate(-218.354 -203.265)" fill="#e2e2e2"/>
            <path id="Path_2675" data-name="Path 2675" d="M284.194,217.735l-4.125,6.674c-.439.941-3-.249-2.556-1.192l4.074-7.5C282.362,214.718,284.969,216.734,284.194,217.735Z" transform="translate(-216.496 -202.171)" fill="#e2e2e2"/>
            <path id="Path_2676" data-name="Path 2676" d="M266.5,215.268c.074-1.831,3.03-1.709,2.956.122l-1.174,11.123c0,1.606-1.685,1.606-1.686,0Z" transform="translate(-221.863 -202.902)" fill="#e2e2e2"/>
            <path id="Path_2677" data-name="Path 2677" d="M259.6,235.781a12.246,12.246,0,0,1,6.118-7.206c5.335-2.515,18.01,2.238,25.024-1.655,2.06-1.143,7.38-5.863,7.38-5.863" transform="translate(-225.244 -199.424)" fill="none" stroke="#efe9da" stroke-miterlimit="10" stroke-width="1.157"/>
            <path id="Path_2678" data-name="Path 2678" d="M239.863,216.19s7.518,3.37,11.016,7.812c1.576,2,3.772,12.762,3.772,12.762" transform="translate(-234.907 -201.807)" fill="none" stroke="#efe9da" stroke-miterlimit="10" stroke-width="1.157"/>
          </g>
        </g>
      </g>
      <g id="Group_789" data-name="Group 789" transform="translate(341.828 98.338)">
        <path id="Path_2679" data-name="Path 2679" d="M540,237.313c0,1.859-22.248,3.367-49.694,3.367s-49.694-1.508-49.694-3.367,22.248-3.368,49.694-3.368S540,235.453,540,237.313Z" transform="translate(-440.608 -193.113)" fill="#a1abad" opacity="0.7" style="mix-blend-mode: multiply;isolation: isolate"/>
        <g id="Group_788" data-name="Group 788" transform="translate(1.149)">
          <g id="Group_787" data-name="Group 787">
            <path id="Path_2680" data-name="Path 2680" d="M447.412,212.929s1-2.515,9.695.788c4.719,1.791,10.87,6.117,22.838.9,0,0,3.647,12.1-11.606,11.045S447.412,212.929,447.412,212.929Z" transform="translate(-438.425 -203.853)" fill="#3c8460"/>
            <path id="Path_2681" data-name="Path 2681" d="M535.205,226.131l3.531.931c2.007,1.065,1.9,6.406.246,8.056,0,0-14.267,8.341-56.044,9.047-24.032-.462-40.092-4.57-40.834-6.2s-.809-5.282-.661-7.864l4.53-5.278Z" transform="translate(-441.379 -197.581)" fill="#e2e2e2"/>
            <path id="Path_2682" data-name="Path 2682" d="M449.574,215.612s-4.707,4.517-5.266,8.239c-.8,5.348-1.706,8-1.129,13.4,0,0,13.549,5.282,36.124,5.546,11.143.13,27.127-.545,38.823-2.629,9.954-1.774,19.819-4.152,19.819-4.152-2.874-10.061-11.567-6.325-23.959-10.249-8.429-2.668-28.5-19.232-28.5-19.232s-4.652,3.453-4.9,5.226c-.159,1.12,2.054,4.033,2.054,4.033s-.557,9.512-10.049,10.143C463.345,226.55,449.574,215.612,449.574,215.612Z" transform="translate(-440.587 -206.535)" fill="#71bf9d"/>
            <path id="Path_2683" data-name="Path 2683" d="M538.715,226.325a54.406,54.406,0,0,1-18.43,7.2c-11.18,2.167-29.442,2.89-40.823,2.458-12.579-.48-38.039-6.619-38.039-6.619" transform="translate(-441.358 -196.844)" fill="none"/>
            <path id="Path_2684" data-name="Path 2684" d="M469.607,212.75s4.809.015,6.513.612c4.01,1.4,15.616,10.663,24.312,11.763" transform="translate(-427.557 -203.492)" fill="none" stroke="#efe9da" stroke-miterlimit="10" stroke-width="1.157"/>
            <path id="Path_2685" data-name="Path 2685" d="M481.313,213.265l-3.876,6.263c-.532.739-2.853-.931-2.323-1.67l3.592-6.608C479.481,210.248,482.088,212.264,481.313,213.265Z" transform="translate(-424.898 -204.359)" fill="#e2e2e2"/>
            <path id="Path_2686" data-name="Path 2686" d="M485.254,215.5l-4.076,6.641c-.5,1.114-3.1-.043-2.605-1.159l4.073-7.5C483.42,212.482,486.029,214.5,485.254,215.5Z" transform="translate(-423.197 -203.265)" fill="#e2e2e2"/>
            <path id="Path_2687" data-name="Path 2687" d="M489.036,217.735l-4.125,6.674c-.439.941-3-.249-2.556-1.192l4.074-7.5C487.2,214.718,489.81,216.734,489.036,217.735Z" transform="translate(-421.339 -202.171)" fill="#e2e2e2"/>
            <path id="Path_2688" data-name="Path 2688" d="M471.343,215.268a1.483,1.483,0,0,1,2.956.122l-1.172,11.123c0,1.606-1.686,1.606-1.686,0Z" transform="translate(-426.707 -202.902)" fill="#e2e2e2"/>
            <path id="Path_2689" data-name="Path 2689" d="M464.439,235.781a12.246,12.246,0,0,1,6.118-7.206c5.335-2.515,18.01,2.238,25.024-1.655,2.06-1.143,7.381-5.863,7.381-5.863" transform="translate(-430.087 -199.424)" fill="none" stroke="#efe9da" stroke-miterlimit="10" stroke-width="1.157"/>
            <path id="Path_2690" data-name="Path 2690" d="M444.7,216.19s7.52,3.37,11.018,7.812c1.574,2,3.77,12.762,3.77,12.762" transform="translate(-439.751 -201.807)" fill="none" stroke="#efe9da" stroke-miterlimit="10" stroke-width="1.157"/>
          </g>
        </g>
      </g>
      <g id="Group_790" data-name="Group 790" transform="translate(180.824 73.655)">
        <path id="Path_2691" data-name="Path 2691" d="M338.109,196.825v.153c0,.772-.191,1.1-.635,1.1h-4.313c-.444,0-.633-.331-.633-1.1v-.153c0-.772.189-1.1.633-1.1h4.313C337.919,195.723,338.109,196.054,338.109,196.825Z" transform="translate(-332.529 -187.147)" fill="#764582"/>
        <path id="Path_2692" data-name="Path 2692" d="M345.076,193.669c0,3.064-1.692,3.7-3.172,3.7s-3.172-.639-3.172-3.7,1.692-3.7,3.172-3.7S345.076,190.605,345.076,193.669Zm-4.186,0c0,.86.191,1.9,1.014,1.9s.994-1.037.994-1.9-.17-1.808-.994-1.808S340.89,192.81,340.89,193.669Zm10.082-3.262a.908.908,0,0,1-.1.308L343.321,205a.992.992,0,0,1-.931.617h-.93c-.295,0-.444-.133-.444-.286a.842.842,0,0,1,.106-.331l7.547-14.286a.991.991,0,0,1,.931-.617h.93C350.826,190.1,350.972,190.231,350.972,190.407Zm2.284,11.64c0,3.064-1.691,3.7-3.17,3.7s-3.172-.639-3.172-3.7,1.691-3.7,3.172-3.7S353.256,198.983,353.256,202.047Zm-4.185,0c0,.86.189,1.895,1.014,1.895s.994-1.035.994-1.895-.17-1.808-.994-1.808S349.071,201.186,349.071,202.047Z" transform="translate(-329.491 -189.966)" fill="#764582"/>
      </g>
      <g id="Group_792" data-name="Group 792" transform="translate(196.461 154.803)">
        <g id="Group_791" data-name="Group 791" transform="translate(71.703)">
          <path id="Path_2693" data-name="Path 2693" d="M399.81,245.021v1.454c2.072.036,5.744.871,5.744,2.072,0,.545-.8,1.926-1.164,1.926-.545,0-1.855-1.309-4.581-1.381v8.469c3.236,1.163,6.943,2.471,6.943,7.487,0,4.144-2.69,6.762-6.943,7.125v1.817c0,.4-.217.581-.727.581s-.727-.182-.727-.581V272.21c-4.107-.109-7.2-1.671-7.2-2.653,0-.581.873-1.962,1.272-1.962.437,0,2.4,1.889,5.924,2v-9.379c-3.2-1.235-6.724-2.509-6.724-7.2,0-3.562,2.617-6.035,6.724-6.47v-1.527c0-.4.219-.582.727-.582S399.81,244.621,399.81,245.021Zm-4.87,8.141c0,2.072,1.49,3.054,3.416,3.854V249.2A3.756,3.756,0,0,0,394.94,253.163Zm4.87,16.321a4.317,4.317,0,0,0,3.635-4.435c0-2.29-1.636-3.38-3.635-4.253Z" transform="translate(-391.159 -244.439)" fill="#fd6141"/>
        </g>
        <rect id="Rectangle_300" data-name="Rectangle 300" width="69.845" height="12.588" rx="3.934" transform="translate(0 16.358)" fill="#fd6141"/>
      </g>
    </g>
    <g id="Group_796" data-name="Group 796" transform="translate(904 561.806)">
      <path id="Path_2694" data-name="Path 2694" d="M855.318,485.177H79.746c-2.889,0-4.164-4.137-1.906-6.187l116.153-105.5a13.3,13.3,0,0,1,8.95-3.507h529.18a13.305,13.305,0,0,1,8.95,3.507l116.153,105.5C859.482,481.04,858.207,485.177,855.318,485.177Z" transform="translate(-76.685 -330.248)" fill="#764582" opacity="0.2"/>
      <g id="Group_795" data-name="Group 795" transform="translate(6.859 0)">
        <path id="Path_2695" data-name="Path 2695" d="M849.266,455.1H81.289l119.084-108.39a12.871,12.871,0,0,1,8.667-3.4H721.515a12.871,12.871,0,0,1,8.667,3.4Z" transform="translate(-81.289 -343.311)" fill="#e4bce8"/>
        <path id="Path_2696" data-name="Path 2696" d="M734.007,442.225H139.519l83.7-92.407H650.309Z" transform="translate(-52.775 -340.125)" fill="#9d68aa"/>
        <path id="Path_2697" data-name="Path 2697" d="M722.574,440.921H145.295l81.275-88.441H641.3Z" transform="translate(-49.946 -338.821)" fill="#fff"/>
        <path id="Rectangle_301" data-name="Rectangle 301" d="M0,0H767.976a0,0,0,0,1,0,0V14.763A14.316,14.316,0,0,1,753.66,29.079H14.316A14.316,14.316,0,0,1,0,14.763V0A0,0,0,0,1,0,0Z" transform="translate(0 111.794)" fill="#9d68aa"/>
        <line id="Line_9" data-name="Line 9" x2="767.976" transform="translate(0 123.102)" fill="none" stroke="#fff" stroke-miterlimit="10" stroke-width="0.973"/>
        <rect id="Rectangle_302" data-name="Rectangle 302" width="133.933" height="15.287" rx="4.777" transform="translate(143.076 116.317)" fill="#764582"/>
        <rect id="Rectangle_303" data-name="Rectangle 303" width="133.933" height="13.57" rx="4.24" transform="translate(143.076 118.034)" fill="#e4bce8"/>
        <g id="Group_794" data-name="Group 794" transform="translate(616.493 23.17)">
          <path id="Path_2698" data-name="Path 2698" d="M567.023,362.365l49.731,43.971H643.38v-3.5l-76.358-43.971Z" transform="translate(-567.023 -358.865)" fill="#9d68aa"/>
          <path id="Path_2699" data-name="Path 2699" d="M567.023,358.865l49.731,43.971H643.38l-55.272-43.971Z" transform="translate(-567.023 -358.865)" fill="#fdeeff"/>
        </g>
        <ellipse id="Ellipse_8" data-name="Ellipse 8" cx="20.922" cy="9.108" rx="20.922" ry="9.108" transform="translate(95.349 35.053)" fill="#fff"/>
        <path id="Path_2700" data-name="Path 2700" d="M178.808,374.375c0,3.149-6.559,5.7-14.651,5.7s-14.653-2.553-14.653-5.7,6.561-5.7,14.653-5.7S178.808,371.226,178.808,374.375Z" transform="translate(-47.885 -330.891)" fill="#764582"/>
        <path id="Path_2701" data-name="Path 2701" d="M163.826,372.282c0,1.085-2.261,1.965-5.05,1.965s-5.052-.88-5.052-1.965,2.261-1.966,5.052-1.966S163.826,371.2,163.826,372.282Z" transform="translate(-45.819 -330.087)" fill="#fff"/>
      </g>
    </g>
    <g id="Group_803" data-name="Group 803" transform="translate(1010.867 253.34)">
      <g id="Group_802" data-name="Group 802" transform="translate(0)">
        <g id="Group_798" data-name="Group 798" transform="translate(0 8.484)">
          <g id="Group_797" data-name="Group 797">
            <rect id="Rectangle_304" data-name="Rectangle 304" width="414.804" height="42.824" rx="13.382" transform="translate(99.826 0)" fill="#e4bce8"/>
            <circle id="Ellipse_9" data-name="Ellipse 9" cx="21.412" cy="21.412" r="21.412" transform="translate(0 0)" fill="#e4bce8"/>
            <circle id="Ellipse_10" data-name="Ellipse 10" cx="21.412" cy="21.412" r="21.412" transform="translate(49.913)" fill="#e4bce8"/>
          </g>
        </g>
        <path id="Path_2702" data-name="Path 2702" d="M593.477,95.583l7.075,15.125,16.571,2.055-12.2,11.4,3.166,16.4-14.614-8.078-14.614,8.078,3.166-16.4-12.2-11.4,16.571-2.055Z" transform="translate(-49.163 -88.175)" fill="#e4bce8"/>
        <g id="Group_801" data-name="Group 801" transform="translate(0 1.077)">
          <g id="Group_800" data-name="Group 800">
            <rect id="Rectangle_305" data-name="Rectangle 305" width="414.804" height="42.824" rx="13.382" transform="translate(99.826 0)" fill="#fff" stroke="#764582" stroke-miterlimit="10" stroke-width="0.974"/>
            <path id="Path_2706" data-name="Path 2706" d="M302.894,119.691h-42a9.836,9.836,0,0,1-9.836-9.836h0a9.836,9.836,0,0,1,9.836-9.835h42a9.835,9.835,0,0,1,9.835,9.835h0A9.836,9.836,0,0,1,302.894,119.691Z" transform="translate(-127.401 -87.079)" fill="#a1abad"/>
            <circle id="Ellipse_11" data-name="Ellipse 11" cx="21.412" cy="21.412" r="21.412" transform="translate(0 0)" fill="#fff" stroke="#764582" stroke-miterlimit="10" stroke-width="0.974"/>
            <circle id="Ellipse_12" data-name="Ellipse 12" cx="21.412" cy="21.412" r="21.412" transform="translate(49.913)" fill="#fff" stroke="#764582" stroke-miterlimit="10" stroke-width="0.974"/>
            <text id="www.doanhnghiepcuatoi.com" transform="translate(322.035 28.605)" fill="#707070" font-size="20" font-family="ArialMT, Arial"><tspan x="-130.083" y="0">www.doanhnghiepcuatoi.com</tspan></text>
          </g>
        </g>
        <path id="Path_2707" data-name="Path 2707" d="M593.477,90.61l7.075,15.125,16.571,2.055-12.2,11.4,3.166,16.4-14.614-8.078-14.614,8.078,3.166-16.4-12.2-11.4,16.571-2.055Z" transform="translate(-49.163 -90.61)" fill="#ffcc5a" stroke="#764582" stroke-miterlimit="10" stroke-width="0.974"/>
      </g>
      <path id="Path_2708" data-name="Path 2708" d="M169.029,96.947l-13.55,13.421,13.55,13.679,2.581-2.581-10.969-11.1,10.969-10.84Z" transform="translate(-144.967 -87.507)" fill="#764582"/>
      <path id="Path_2709" data-name="Path 2709" d="M195.848,124.048l13.55-13.421-13.55-13.68-2.581,2.581,10.969,11.1-10.969,10.84Z" transform="translate(-126.463 -87.507)" fill="#764582"/>
      <path id="Path_2710" data-name="Path 2710" d="M254.6,122.453l-8.634-8.533a11,11,0,0,0,1.85-6.126,11.319,11.319,0,0,0-19.241-7.936,11.03,11.03,0,0,0-3.268,7.864,11.322,11.322,0,0,0,11.29,11.171h.046a11.3,11.3,0,0,0,6.187-1.859l8.63,8.531Zm-10.145-14.66a7.723,7.723,0,0,1-2.287,5.5,7.931,7.931,0,0,1-5.54,2.269h-.034a7.946,7.946,0,0,1-7.927-7.833,7.71,7.71,0,0,1,2.285-5.5,7.944,7.944,0,0,1,13.5,5.564Z" transform="translate(-84.768 -87.666)" fill="#764582"/>
      <path id="Path_2711" data-name="Path 2711" d="M550.786,111.23l-4.855,4.882a1.485,1.485,0,0,0,0,2.093,1.466,1.466,0,0,0,2.081,0l4.855-4.882,4.855,4.882a1.466,1.466,0,0,0,2.081,0,1.485,1.485,0,0,0,0-2.093l-4.855-4.882,4.855-4.882a1.485,1.485,0,0,0,0-2.093,1.468,1.468,0,0,0-2.081,0l-4.855,4.883-4.855-4.883a1.468,1.468,0,0,0-2.081,0,1.485,1.485,0,0,0,0,2.093Zm2.081,15.78a15.78,15.78,0,1,1,15.7-15.78A15.737,15.737,0,0,1,552.867,127.011Z" transform="translate(-65.155 -88.24)" fill="#9d68aa" fill-rule="evenodd"/>
    </g>
    <g id="Group_804" data-name="Group 804" transform="translate(1005.808 326.408)">
      <path id="Path_2712" data-name="Path 2712" d="M202.989,182.112a28.968,28.968,0,1,0-57.937,0h0c0,6.653-2,11,28.968,66.59C205.112,192.864,202.963,185.54,202.989,182.112Z" transform="translate(-145.027 -153.144)" fill="#fd6141"/>
      <path id="Path_2713" data-name="Path 2713" d="M168.7,190.059a12.8,12.8,0,1,1,12.8-12.8A12.8,12.8,0,0,1,168.7,190.059Z" transform="translate(-139.703 -147.603)" fill="#fff"/>
    </g>
    <path id="Path_2714" data-name="Path 2714" d="M433.057,258.44" transform="translate(937.855 209.801)" fill="#ffb072"/>
    <path id="Path_2715" data-name="Path 2715" d="M324.7,373.2l-11.757,20.358c-2.386,4.134.87,9.117,5.957,9.117H434.479c4.6,0,7.848-4.14,6.4-8.155l-7.325-20.358a6.717,6.717,0,0,0-6.4-4.256h-96.5A6.844,6.844,0,0,0,324.7,373.2Z" transform="translate(893.17 231.518)" fill="#764582" opacity="0.2"/>
    <g id="Group_811" data-name="Group 811" transform="translate(1169.548 462.112)">
      <g id="Group_805" data-name="Group 805" transform="translate(53.234 125.714)">
        <path id="Path_2716" data-name="Path 2716" d="M343.21,371.693a10.266,10.266,0,1,1-10.265-10.267A10.265,10.265,0,0,1,343.21,371.693Z" transform="translate(-322.678 -360.459)" fill="#764582"/>
        <circle id="Ellipse_13" data-name="Ellipse 13" cx="6.173" cy="6.173" r="6.173" transform="translate(4.094 5.061)" fill="#3e2344"/>
        <path id="Path_2717" data-name="Path 2717" d="M326.919,370.888l3.52-9.284a1.282,1.282,0,0,1,1.2-.827h12.242a1.281,1.281,0,0,1,.94,2.151l-11.024,11.9a3.462,3.462,0,0,1-3.614.937l-1.1-.361A3.461,3.461,0,0,1,326.919,370.888Z" transform="translate(-320.712 -360.777)" fill="#ffdcae"/>
        <circle id="Ellipse_14" data-name="Ellipse 14" cx="2.364" cy="2.364" r="2.364" transform="translate(7.903 8.869)" fill="#764582"/>
      </g>
      <g id="Group_806" data-name="Group 806" transform="translate(129.312 125.714)">
        <path id="Path_2718" data-name="Path 2718" d="M376.379,371.693a10.266,10.266,0,1,0,10.265-10.267A10.265,10.265,0,0,0,376.379,371.693Z" transform="translate(-372.46 -360.459)" fill="#764582"/>
        <path id="Path_2719" data-name="Path 2719" d="M379.126,370.347a6.173,6.173,0,1,0,6.173-6.173A6.175,6.175,0,0,0,379.126,370.347Z" transform="translate(-371.115 -359.114)" fill="#3e2344"/>
        <path id="Path_2720" data-name="Path 2720" d="M391.992,370.888l-3.52-9.284a1.282,1.282,0,0,0-1.2-.827H375.032a1.28,1.28,0,0,0-.94,2.151l11.024,11.9a3.462,3.462,0,0,0,3.614.937l1.1-.361A3.461,3.461,0,0,0,391.992,370.888Z" transform="translate(-373.748 -360.777)" fill="#ffdcae"/>
        <circle id="Ellipse_15" data-name="Ellipse 15" cx="2.364" cy="2.364" r="2.364" transform="translate(11.821 8.869)" fill="#764582"/>
      </g>
      <g id="Group_807" data-name="Group 807">
        <path id="Path_2721" data-name="Path 2721" d="M323.592,317.955a1.52,1.52,0,0,1-1.4-.918c-3.48-8.053-9.276-21.182-10.316-22.825-1.555-1.129-13.272-5.3-23.884-8.747a1.521,1.521,0,0,1,0-2.893l18.856-6.111a1.544,1.544,0,0,1,.87-.021c1.8.492,17.721,4.9,21.145,8.083,2.72,2.527,10.741,19.256,12.321,22.582a1.521,1.521,0,0,1-2.749,1.3c-3.562-7.5-9.872-20.012-11.643-21.659-2.118-1.969-12.855-5.436-19.439-7.256l-13.985,4.532c9.74,3.233,19.813,6.844,20.891,8.284,1.263,1.683,9.156,19.887,10.726,23.519a1.522,1.522,0,0,1-1.4,2.124Z" transform="translate(-286.943 -276.388)" fill="#fd6141"/>
      </g>
      <path id="Path_2722" data-name="Path 2722" d="M308.778,302.625l17.167-10.659,132.381,6.477,3.036,8.3Z" transform="translate(-276.251 -268.76)" fill="#fff" stroke="#fd6141" stroke-linecap="round" stroke-linejoin="round" stroke-width="1.854"/>
      <path id="Path_2723" data-name="Path 2723" d="M307.937,299.3l20.033,66.074a4.579,4.579,0,0,0,4.523,3.247L443.308,365.2a4.579,4.579,0,0,0,4.308-3.5l14.158-58.549Z" transform="translate(-276.663 -265.166)" fill="#fd6141"/>
      <path id="Path_2724" data-name="Path 2724" d="M328.895,326.7c7.159,14.9,23,17.9,38.079,17.154,32.375-1.6,60.663-14.246,79.624-41.1L328.718,299.8c-1.741-.025-2.6,11.283-2.684,12.752A28.887,28.887,0,0,0,328.895,326.7Z" transform="translate(-267.824 -264.923)" fill="#ff8976"/>
      <path id="Path_2725" data-name="Path 2725" d="M439.976,380.2a43.1,43.1,0,0,0-6.158-13.567c-1.047-1.421-2.765-3.052-6.787-3.052H335.269c-1.445,0-4.033-.24-5.129-1.844-1.028-1.506-.439-3.882.235-5.612a104.5,104.5,0,0,1,5.144-11.362l-3.586.3a83.117,83.117,0,0,0-4.393,9.957c-1.368,3.508-1.338,6.345.088,8.433s4.059,3.17,7.641,3.17h4.916v2.059a2.312,2.312,0,0,0,2.312,2.312h1.758a2.312,2.312,0,0,0,2.312-2.312v-2.059H407.24v2.059a2.312,2.312,0,0,0,2.312,2.312h1.758a2.312,2.312,0,0,0,2.312-2.312v-2.059h13.409c2.769,0,3.69.936,4.336,1.813a40.371,40.371,0,0,1,5.659,12.5,2.832,2.832,0,0,1-.22,2.439c-.83,1.089-2.929,1.22-3.553,1.233-21.262.477-67.119.214-91.756.074-7.323-.043-12.871-.074-15.514-.074-3.735,0-6.516-1.07-7.828-3.011-1.265-1.871-1.229-4.614.1-7.937,2.933-7.308,11.554-29.076,11.554-29.076l-2.827-1.12s-8.619,21.76-11.549,29.064c-2.181,5.436-1.1,8.859.2,10.772,1.9,2.805,5.571,4.35,10.347,4.35,1.734,0,4.736.013,8.651.034v1.992a2.313,2.313,0,0,0,2.314,2.312H338.7a2.313,2.313,0,0,0,2.314-2.312v-1.493l.453-.46c14.04.08,34.966.2,54.321.2,5.254,0,10.388-.009,15.24-.03v1.783a2.313,2.313,0,0,0,2.314,2.312H415.1a2.311,2.311,0,0,0,2.312-2.312v-1.819c6.078-.043,11.518-.109,15.908-.207,1.539-.036,4.354-.4,5.9-2.43A5.66,5.66,0,0,0,439.976,380.2Z" transform="translate(-273.6 -243.541)" fill="#fd6141"/>
      <g id="Group_808" data-name="Group 808" transform="translate(34.176 30.416)">
        <path id="Path_2726" data-name="Path 2726" d="M456.384,302.3,442.65,358.937a3.587,3.587,0,0,1-3.367,2.735l-51.746,1.6q6.02-6.5,11.946-13.094c.291-.325.383-.727.2-.915s-.6-.086-.921.246q-6.391,6.6-12.671,13.3l-.007.009a1.751,1.751,0,0,0-.326.514l-45.681,1.412q6.393-6.9,12.686-13.891c.305-.34.41-.755.229-.943s-.612-.074-.948.274q-6.686,6.914-13.263,13.93l-.009.009a1.853,1.853,0,0,0-.4.673l-4.129.128a3.592,3.592,0,0,1-3.535-2.538l-9.118-30.065q3.535-3.834,6.969-7.761a.491.491,0,0,0-.718-.669q-3.4,3.417-6.707,6.926l-9.795-32.295-1.455.442,19.369,63.864a5.109,5.109,0,0,0,4.88,3.618c.054,0,.106,0,.158,0l105.038-3.248a5.114,5.114,0,0,0,4.8-3.9l13.733-56.638Z" transform="translate(-309.885 -295.967)" fill="#fff"/>
        <path id="Path_2727" data-name="Path 2727" d="M323.509,316.09a6.27,6.27,0,0,0,1.067-.921,6.09,6.09,0,0,0,.843-1.129.559.559,0,0,0-.787-.734,6.566,6.566,0,0,0-1.911,2.05.552.552,0,0,0,.024.554A.56.56,0,0,0,323.509,316.09Z" transform="translate(-303.63 -288.765)" fill="#fff"/>
        <path id="Path_2728" data-name="Path 2728" d="M325.383,313.54a.553.553,0,0,0,.52-.557v-.015a.764.764,0,0,0-.788-.72.572.572,0,0,0-.371.176.579.579,0,0,0-.149.381v.019A.759.759,0,0,0,325.383,313.54Z" transform="translate(-302.682 -289.243)" fill="#fff"/>
        <path id="Path_2729" data-name="Path 2729" d="M333.9,307.495q4.634-4.715,9.162-9.531l0,0a.691.691,0,0,0-1.015-.938q-4.487,4.853-8.87,9.805a.491.491,0,0,0,.718.669Z" transform="translate(-298.536 -296.805)" fill="#fff"/>
        <path id="Path_2730" data-name="Path 2730" d="M332.813,305.6a.579.579,0,0,0,.372-.176.586.586,0,0,0,.149-.383v-.018a.76.76,0,0,0-.787-.717.579.579,0,0,0-.371.176.565.565,0,0,0-.149.383v.015A.763.763,0,0,0,332.813,305.6Z" transform="translate(-299.043 -293.131)" fill="#fff"/>
        <path id="Path_2731" data-name="Path 2731" d="M331.685,306.811a.571.571,0,0,0,.371-.174.586.586,0,0,0,.149-.383v-.019a.76.76,0,0,0-.787-.715.571.571,0,0,0-.371.176.564.564,0,0,0-.149.381v.015A.762.762,0,0,0,331.685,306.811Z" transform="translate(-299.596 -292.538)" fill="#fff"/>
        <path id="Path_2732" data-name="Path 2732" d="M330.556,308.022a.565.565,0,0,0,.371-.176.58.58,0,0,0,.149-.383v-.018a.759.759,0,0,0-.787-.715.553.553,0,0,0-.52.557v.015A.764.764,0,0,0,330.556,308.022Z" transform="translate(-300.149 -291.945)" fill="#fff"/>
        <path id="Path_2733" data-name="Path 2733" d="M326.715,313.52a29.446,29.446,0,0,0,2.218-2.157,30.009,30.009,0,0,0,2-2.363.544.544,0,0,0-.788-.734,29.708,29.708,0,0,0-2.218,2.156,29.394,29.394,0,0,0-2,2.363.544.544,0,0,0,.788.736Z" transform="translate(-302.079 -291.254)" fill="#fff"/>
        <path id="Path_2734" data-name="Path 2734" d="M339.478,333.7c.121.305.559.283.979-.051A20.089,20.089,0,0,0,342.3,331.9a19.873,19.873,0,0,0,1.618-1.959.913.913,0,0,0,.191-.784c-.121-.307-.559-.285-.979.049a21.349,21.349,0,0,0-3.459,3.711A.911.911,0,0,0,339.478,333.7Z" transform="translate(-295.409 -281.068)" fill="#fff"/>
        <path id="Path_2735" data-name="Path 2735" d="M343.826,329.015a1.61,1.61,0,0,0,.582-.4,1.57,1.57,0,0,0,.359-.608l.006-.022c.137-.582-.219-.9-.792-.712a1.636,1.636,0,0,0-.941,1.01l-.007.027C342.9,328.887,343.253,329.2,343.826,329.015Z" transform="translate(-293.667 -281.913)" fill="#fff"/>
        <path id="Path_2736" data-name="Path 2736" d="M359.3,318.092q8.288-8.634,16.469-17.37l.007-.007c.462-.5.609-1.111.328-1.369s-.883-.064-1.345.435q-8.143,8.771-16.177,17.642c-.31.343-.416.761-.232.949S358.962,318.44,359.3,318.092Z" transform="translate(-286.198 -295.617)" fill="#fff"/>
        <path id="Path_2737" data-name="Path 2737" d="M357.269,314.629a1.656,1.656,0,0,0,.941-1.01l.006-.027c.136-.581-.221-.9-.794-.708a1.636,1.636,0,0,0-.941,1.01l-.006.021C356.34,314.5,356.694,314.816,357.269,314.629Z" transform="translate(-287.084 -288.959)" fill="#fff"/>
        <path id="Path_2738" data-name="Path 2738" d="M355.225,316.821a1.656,1.656,0,0,0,.942-1.01l.006-.027c.136-.581-.221-.9-.794-.708a1.635,1.635,0,0,0-.941,1.01l-.006.021C354.3,316.69,354.65,317.008,355.225,316.821Z" transform="translate(-288.085 -287.885)" fill="#fff"/>
        <path id="Path_2739" data-name="Path 2739" d="M353.182,319.013a1.586,1.586,0,0,0,.581-.4,1.6,1.6,0,0,0,.36-.608l.006-.027c.136-.581-.221-.9-.794-.708a1.636,1.636,0,0,0-.942,1.01l-.006.021C352.252,318.882,352.606,319.2,353.182,319.013Z" transform="translate(-289.086 -286.812)" fill="#fff"/>
        <path id="Path_2740" data-name="Path 2740" d="M346.252,328.988c1.365-1.278,2.643-2.635,3.927-3.988,1.259-1.376,2.524-2.745,3.7-4.195.274-.335.378-.728.229-.94-.174-.25-.629-.158-1.016.206-1.365,1.278-2.641,2.637-3.927,3.988-1.259,1.376-2.525,2.745-3.7,4.195-.273.335-.377.727-.229.94C345.41,329.442,345.865,329.352,346.252,328.988Z" transform="translate(-292.607 -285.582)" fill="#fff"/>
        <path id="Path_2741" data-name="Path 2741" d="M371.746,333.21a19.408,19.408,0,0,0,3.3-3.542.867.867,0,0,0,.168-.761c-.125-.3-.554-.289-.956.027A18.137,18.137,0,0,0,372.5,330.6a18.529,18.529,0,0,0-1.54,1.876.877.877,0,0,0-.17.763C370.915,333.54,371.344,333.526,371.746,333.21Z" transform="translate(-280.078 -281.192)" fill="#fff"/>
        <path id="Path_2742" data-name="Path 2742" d="M374.966,328.783a1.505,1.505,0,0,0,.9-.964l0-.021c.121-.566-.234-.885-.791-.714a1.451,1.451,0,0,0-.562.378,1.472,1.472,0,0,0-.338.585l-.006.027C374.052,328.639,374.408,328.956,374.966,328.783Z" transform="translate(-278.416 -282)" fill="#fff"/>
        <path id="Path_2743" data-name="Path 2743" d="M389.733,318.353q7.919-8.239,15.733-16.579l.006-.007c.441-.475.572-1.07.291-1.329s-.866-.082-1.308.395q-7.772,8.375-15.439,16.851c-.295.326-.389.733-.206.921S389.413,318.685,389.733,318.353Z" transform="translate(-271.282 -295.084)" fill="#fff"/>
        <path id="Path_2744" data-name="Path 2744" d="M387.8,315.048a1.5,1.5,0,0,0,.9-.965l.006-.025c.119-.563-.237-.88-.794-.709a1.491,1.491,0,0,0-.56.378,1.451,1.451,0,0,0-.338.587l0,.019C386.888,314.9,387.243,315.219,387.8,315.048Z" transform="translate(-272.13 -288.727)" fill="#fff"/>
        <path id="Path_2745" data-name="Path 2745" d="M385.849,317.141a1.472,1.472,0,0,0,.56-.378,1.449,1.449,0,0,0,.338-.587l.006-.025c.119-.563-.235-.88-.793-.709a1.5,1.5,0,0,0-.562.378,1.46,1.46,0,0,0-.338.587l0,.019C384.936,316.992,385.291,317.312,385.849,317.141Z" transform="translate(-273.086 -287.702)" fill="#fff"/>
        <path id="Path_2746" data-name="Path 2746" d="M383.9,319.234a1.51,1.51,0,0,0,.9-.965l.006-.025c.118-.563-.237-.88-.794-.709a1.49,1.49,0,0,0-.56.378,1.469,1.469,0,0,0-.34.587l0,.021C382.984,319.085,383.339,319.405,383.9,319.234Z" transform="translate(-274.042 -286.677)" fill="#fff"/>
        <path id="Path_2747" data-name="Path 2747" d="M377.281,328.757c1.306-1.216,2.527-2.513,3.754-3.8,1.2-1.314,2.409-2.622,3.531-4.01a.829.829,0,0,0,.2-.912c-.177-.247-.62-.168-.991.177-1.306,1.217-2.526,2.513-3.754,3.8-1.2,1.315-2.41,2.622-3.532,4.01a.828.828,0,0,0-.2.912C376.466,329.182,376.909,329.1,377.281,328.757Z" transform="translate(-277.402 -285.502)" fill="#fff"/>
      </g>
      <path id="Path_2748" data-name="Path 2748" d="M334.949,377.425l5.4-19.1h57.212l3.119,19.1Z" transform="translate(-263.435 -236.263)" fill="#ff8976"/>
      <g id="Group_809" data-name="Group 809" transform="translate(44.579 146.82)">
        <circle id="Ellipse_16" data-name="Ellipse 16" cx="12.062" cy="12.062" r="12.062" transform="translate(0 1.137)" fill="#764582"/>
        <path id="Path_2749" data-name="Path 2749" d="M334.6,386.189a7.253,7.253,0,1,1-7.253-7.252A7.253,7.253,0,0,1,334.6,386.189Z" transform="translate(-315.287 -372.99)" fill="#3e2344"/>
        <path id="Path_2750" data-name="Path 2750" d="M321.851,386.825l4.135-10.909a1.5,1.5,0,0,1,1.408-.971h14.383a1.5,1.5,0,0,1,1.1,2.527l-12.953,13.981a4.065,4.065,0,0,1-4.244,1.1l-1.3-.425A4.063,4.063,0,0,1,321.851,386.825Z" transform="translate(-314.558 -374.945)" fill="#ffdcae"/>
        <path id="Path_2751" data-name="Path 2751" d="M328.657,384.718a2.778,2.778,0,1,1-2.778-2.777A2.778,2.778,0,0,1,328.657,384.718Z" transform="translate(-313.816 -371.519)" fill="#764582"/>
      </g>
      <g id="Group_810" data-name="Group 810" transform="translate(132.125 146.82)">
        <circle id="Ellipse_17" data-name="Ellipse 17" cx="12.062" cy="12.062" r="12.062" transform="translate(4.604 1.137)" fill="#764582"/>
        <path id="Path_2752" data-name="Path 2752" d="M381.955,386.189a7.253,7.253,0,1,0,7.253-7.252A7.253,7.253,0,0,0,381.955,386.189Z" transform="translate(-372.542 -372.99)" fill="#3e2344"/>
        <path id="Path_2753" data-name="Path 2753" d="M397.071,386.825l-4.137-10.909a1.5,1.5,0,0,0-1.406-.971H377.144a1.5,1.5,0,0,0-1.1,2.527l12.953,13.981a4.067,4.067,0,0,0,4.246,1.1l1.295-.425A4.063,4.063,0,0,0,397.071,386.825Z" transform="translate(-375.636 -374.945)" fill="#ffdcae"/>
        <path id="Path_2754" data-name="Path 2754" d="M384.959,384.718a2.777,2.777,0,1,0,2.778-2.777A2.778,2.778,0,0,0,384.959,384.718Z" transform="translate(-371.071 -371.519)" fill="#764582"/>
      </g>
    </g>
    <g id="Group_815" data-name="Group 815" transform="translate(1236.303 494.88)">
      <path id="Path_2756" data-name="Path 2756" d="M334.709,285.2v21.5l50.771,1.322V283Z" transform="translate(-333.227 -278.956)" fill="#ffbe57"/>
      <path id="Path_2757" data-name="Path 2757" d="M368.79,283v25.024l24.2.774V287.376Z" transform="translate(-316.537 -278.956)" fill="#f99441"/>
      <path id="Path_2758" data-name="Path 2758" d="M333.714,282.465l53.434-2.179v6.988L333.714,289.5Z" transform="translate(-333.714 -280.286)" fill="#ffd25a"/>
      <path id="Path_2759" data-name="Path 2759" d="M369.583,287.273l24.775,4.243v-6.626l-24.775-4.605Z" transform="translate(-316.149 -280.286)" fill="#ffbe57"/>
    </g>
    <g id="Group_817" data-name="Group 817" transform="translate(1069.646 617.703)">
      <ellipse id="Ellipse_19" data-name="Ellipse 19" cx="73.427" cy="4.225" rx="73.427" ry="4.225" fill="#764582" opacity="0.2"/>
    </g>
    <g id="Group_840" data-name="Group 840" transform="translate(1073.754 365.179)">
      <g id="Group_822" data-name="Group 822" transform="translate(64.952 125.222)">
        <g id="Group_820" data-name="Group 820" transform="translate(39.338 92.797)">
          <path id="Path_2760" data-name="Path 2760" d="M279.749,354.9c1.186,11.8,11.106,29.071,14.956,38.7,1.134,2.836,6.5,1.251,5.9-1.743-2.068-10.2-3.487-30.859-4.432-41.4C295.059,338.059,278.62,343.666,279.749,354.9Z" transform="translate(-279.694 -343.431)" fill="#ffb072"/>
          <g id="Group_819" data-name="Group 819" transform="translate(14.825 47.044)">
            <path id="Path_2761" data-name="Path 2761" d="M289.98,378.1a10.961,10.961,0,0,0,.809,7.612c-.355.159-.088,1.613.551,1.922.752.364,6.194.274,7.3-.588a1.173,1.173,0,0,0-.036-.976s1.362.515,5.233-.215a19.681,19.681,0,0,0,7.451-2.807c.457-.289.14-1.321-.372-1.155,0,0-.332-2.687-2.58-2.541-4.606.3-7.907-1.578-10.264-3a8.492,8.492,0,0,0-3.063-1.33A5.219,5.219,0,0,0,289.98,378.1Z" transform="translate(-289.646 -375.011)" fill="#ed0c37"/>
            <g id="Group_818" data-name="Group 818" clip-path="url(#clip-path)">
              <path id="Path_2762" data-name="Path 2762" d="M290.908,383.946a43.358,43.358,0,0,0,7.83-.122s8.823-.155,12.3-3.7,6.477.231,6.477.231l-14.44,11.5-9.431-.739-4.213-3.554S289.082,383.736,290.908,383.946Z" transform="translate(-289.765 -373.248)" fill="#ffaec1"/>
              <path id="Path_2763" data-name="Path 2763" d="M289.585,378.763a3.651,3.651,0,0,0,3.863,1.655c2.6-.55,2.86-2.145,2.272-4.922S286.857,374.553,289.585,378.763Z" transform="translate(-289.945 -375.421)" fill="#ffb072"/>
            </g>
          </g>
        </g>
        <g id="Group_821" data-name="Group 821">
          <path id="Path_2765" data-name="Path 2765" d="M254.069,300.942s16.965,30.519,22.57,42.992,12.7,43.275,12.7,43.275,13.951,2.935,21.259-3.609c0,0-2.342-32.5-6.322-47.1s-19.108-50.424-19.108-50.424C279.089,273.216,247.994,288.078,254.069,300.942Z" transform="translate(-253.287 -281.138)" fill="#552f5e"/>
          <path id="Path_2766" data-name="Path 2766" d="M263.129,317.147a57.658,57.658,0,0,1,4.792-11.579c2.991-5.233,10.212-9.342,11-8.7,1.363,1.1-9.412,9.1-11.5,14.875,0,0,11.993-8.724,12.828-7.574C281.035,305.239,267.848,312.437,263.129,317.147Z" transform="translate(-248.467 -273.47)" fill="#3e2344"/>
        </g>
      </g>
      <g id="Group_823" data-name="Group 823" transform="translate(77.442 52.616)">
        <path id="Path_2767" data-name="Path 2767" d="M262.054,249.58c2.8,12.9,7.145,30.089,16.719,38.48s30.361,13.048,31.351,13.048c2.315.533,4.8-11.685,2.96-13.1S294.9,280,292,277.2c-5.189-5-2.978-35.48-8.853-42.128S258.79,234.544,262.054,249.58Z" transform="translate(-261.671 -232.399)" fill="#dd4026"/>
        <path id="Path_2768" data-name="Path 2768" d="M299.927,271.586s7.288,6.056,7.72,7.7.258,4.366-.338,5.056-5.047,2.92-6.748,1.752a29.8,29.8,0,0,1-4.044-3.83l.8-2.981s-.547,2.042-4.962-.725S295.734,267.4,299.927,271.586Z" transform="translate(-247.287 -213.772)" fill="#f29353"/>
      </g>
      <g id="Group_828" data-name="Group 828" transform="translate(0 125.504)">
        <g id="Group_826" data-name="Group 826" transform="translate(0 92.515)">
          <path id="Path_2769" data-name="Path 2769" d="M236.259,346.139c-8.789,7.967-16.787,26.205-22.25,35.024-1.607,2.6,2.857,5.975,4.906,3.708,6.978-7.723,22.752-21.137,30.668-28.155C258.9,348.451,244.626,338.558,236.259,346.139Z" transform="translate(-207.736 -343.431)" fill="#ffb072"/>
          <g id="Group_825" data-name="Group 825" transform="translate(0 36.743)">
            <path id="Path_2770" data-name="Path 2770" d="M216.943,368.2A10.961,10.961,0,0,0,211,373.024c-.326-.21-1.4.806-1.311,1.509.106.83,3.148,5.344,4.474,5.8a1.172,1.172,0,0,0,.8-.563s.31,1.424,3.033,4.271a19.679,19.679,0,0,0,6.415,4.718c.49.225,1.184-.6.764-.943,0,0,2.072-1.743.724-3.548-2.759-3.7-2.988-7.489-3.079-10.24a8.476,8.476,0,0,0-.553-3.294A5.222,5.222,0,0,0,216.943,368.2Z" transform="translate(-209.685 -368.096)" fill="#ed0c37"/>
            <g id="Group_824" data-name="Group 824" clip-path="url(#clip-path-2)">
              <path id="Path_2771" data-name="Path 2771" d="M212.056,371.595a43.337,43.337,0,0,0,4.372,6.5s4.938,7.311,9.8,8.293,3.338,5.556,3.338,5.556l-17.511-5.837-4.523-8.309.682-5.469S211.236,369.949,212.056,371.595Z" transform="translate(-210.739 -366.667)" fill="#ffaec1"/>
              <path id="Path_2772" data-name="Path 2772" d="M214.275,368.423a3.653,3.653,0,0,0,.718,4.141c1.875,1.875,3.358,1.228,5.364-.779S216.318,363.841,214.275,368.423Z" transform="translate(-207.611 -368.766)" fill="#ffb072"/>
            </g>
          </g>
        </g>
        <g id="Group_827" data-name="Group 827" transform="translate(27.021)">
          <path id="Path_2774" data-name="Path 2774" d="M248.571,289.4s2.351,44.75-2.672,56.471-18.074,30.8-18.074,30.8a20.087,20.087,0,0,0,16.814,12.7s19.956-14.055,27.786-35.343,14.393-44.716,11.223-62.075C281.865,282.2,251.09,275.14,248.571,289.4Z" transform="translate(-227.824 -281.327)" fill="#764582"/>
          <path id="Path_2775" data-name="Path 2775" d="M253.768,286.469s.286,37.263-1.454,51.682c-1.688,13.994-23.193,39.745-23.193,39.745" transform="translate(-227.189 -278.809)" fill="none" stroke="#fff" stroke-miterlimit="10" stroke-width="0.499"/>
        </g>
      </g>
      <g id="Group_838" data-name="Group 838" transform="translate(43.034)">
        <g id="Group_836" data-name="Group 836" transform="translate(2.271)">
          <path id="Path_2776" data-name="Path 2776" d="M292.657,239.557c3.446,6.859-2.7,32.9-2.7,44.269,0,9.249,1.518,24.715,2.888,30.552a3.628,3.628,0,0,1-1.706,3.963,44.771,44.771,0,0,1-16.775,5.195c-16.844,1.619-24.981-1.332-28.809-2.781a4.675,4.675,0,0,1-2.978-5.069c.851-5.688,3.249-19.6,1.195-32.4-2.687-16.75-7.074-39.532.784-46.563s22.572-11.407,22.572-11.407S288.4,231.087,292.657,239.557Z" transform="translate(-240.098 -183.252)" fill="#fff"/>
          <g id="Group_835" data-name="Group 835" transform="translate(18.136)">
            <path id="Path_2777" data-name="Path 2777" d="M264.718,231.632s-3.778-.63-8.96-7.069c-3.4-4.222-8.12-23.317,6.857-26.207S282,205.59,282.688,212.209s-6.747,12.077-10.109,14.465S264.718,231.632,264.718,231.632Z" transform="translate(-252.272 -196.701)" fill="#3e2344"/>
            <path id="Path_2778" data-name="Path 2778" d="M260.852,215.363a44.1,44.1,0,0,1-2.163,10.3c-1.709,4.514-3.538,5.9-5.7,7.816s8.606,13.348,18.186,16.246c0,0,6.949-8.464,3.763-13.182s-5.71-5.133-4.569-11.433c.994-5.491,1.588-8.536,1.588-8.536Z" transform="translate(-252.055 -188.125)" fill="#ffb072"/>
            <g id="Group_834" data-name="Group 834" transform="translate(3.261)">
              <g id="Group_830" data-name="Group 830" transform="translate(0 7.303)">
                <g id="Group_829" data-name="Group 829">
                  <path id="Path_2779" data-name="Path 2779" d="M260,221.916s-.483,4.277,1.241,6.109,4.807,6.26,11.842,5.744c9.394-.685,5.746-15.594,5.746-15.594a33.072,33.072,0,0,0,0-10.447c-.982-4.71-10.283-7.179-17.857-4.871,0,0-2.175,2.069-1.341,11.326a2.828,2.828,0,0,0-3.595-.483c-1.668.909-1.844,3.06-1.278,5.087C255.432,221.22,257.969,223.316,260,221.916Z" transform="translate(-254.462 -201.981)" fill="#ffb072" fill-rule="evenodd"/>
                </g>
                <path id="Path_2780" data-name="Path 2780" d="M258.75,216.641l-.827-2.2,1.411-.584s-.916-4.113-3.209-2.6C254.241,212.506,256.395,217.478,258.75,216.641Z" transform="translate(-253.999 -197.602)" fill="#e57e55"/>
              </g>
              <path id="Path_2781" data-name="Path 2781" d="M258.584,212.563a58.66,58.66,0,0,0-.785,8.363c.14,2.58,2.684,10.611,14.448,9.9,11.684-.712,7.5-13.374,5.521-14.243a3.489,3.489,0,0,1-1.166,2.793,3.113,3.113,0,0,0-3.767-1.622c-1.673-.946-3.592-.359-5.61.845l-1.454,1.019c-3.636-.9-5.521-3.286-5.978-6.894Z" transform="translate(-252.834 -189.496)" fill="#3e2344"/>
              <path id="Path_2782" data-name="Path 2782" d="M265.113,217.444s6.176,0,6.324.419-.736,1.26-3.163,1.26A3.307,3.307,0,0,1,265.113,217.444Z" transform="translate(-249.246 -187.106)" fill="#fff" stroke="#e57e55" stroke-miterlimit="10" stroke-width="0.276"/>
              <g id="Group_831" data-name="Group 831" transform="translate(11.143 18.179)">
                <path id="Path_2783" data-name="Path 2783" d="M266.649,212.677c-.043.521-.728.559-1.563.489s-1.5-.22-1.461-.742.757-.888,1.591-.818S266.693,212.156,266.649,212.677Z" transform="translate(-261.119 -208.149)" fill="#3e2344"/>
                <path id="Path_2784" data-name="Path 2784" d="M261.942,211.32a29.2,29.2,0,0,1,3.139-.745c.761.009,3.636.468,3.878.188a4.084,4.084,0,0,0,.431-1.244,31.15,31.15,0,0,0-4.722-.176A5.393,5.393,0,0,0,261.942,211.32Z" transform="translate(-261.942 -209.282)" fill="#3e2344"/>
              </g>
              <g id="Group_832" data-name="Group 832" transform="translate(20.592 18.584)">
                <path id="Path_2785" data-name="Path 2785" d="M271.787,213.107c-.045.521-.728.559-1.564.489s-1.5-.22-1.46-.742.755-.888,1.591-.818S271.83,212.586,271.787,213.107Z" transform="translate(-268.052 -208.343)" fill="#3e2344"/>
                <path id="Path_2786" data-name="Path 2786" d="M273.085,212.378c.007.08-1.031-1.241-1.548-1.339s-3.011.115-3.134-.2a5.618,5.618,0,0,1-.118-1.29,21.071,21.071,0,0,1,3.845.568A3.6,3.6,0,0,1,273.085,212.378Z" transform="translate(-268.285 -209.554)" fill="#3e2344"/>
              </g>
              <g id="Group_833" data-name="Group 833" transform="translate(18.141 19.776)">
                <path id="Path_2787" data-name="Path 2787" d="M268.526,216.219s-1.931-.066-1.886-.594,4.085-1.11,4.308-.728S269.395,215.976,268.526,216.219Z" transform="translate(-266.64 -208.19)" fill="#e57e55" opacity="0.5"/>
                <path id="Path_2788" data-name="Path 2788" d="M268.248,210.354a9.74,9.74,0,0,0-.276,3.291c.291.871,2.062,2.835,2.1,3.249s-2.008,1.429-2.159,1.49,2.915-.41,2.824-1.362-2.367-3.338-2.449-3.806S268.248,210.354,268.248,210.354Z" transform="translate(-266.027 -210.354)" fill="#e57e55"/>
              </g>
              <path id="Path_2789" data-name="Path 2789" d="M260.792,220.856c.6-.405,1.585-3.9.538-7.256a4.185,4.185,0,0,1,3.109-5.418c1.916-.209,8.128,1.554,10.584,1.253,5.385-.661,9.558-2.251,9.549-3.245s-3.951.037-3.951.037,6-1.531,5.46-6.555a24.609,24.609,0,0,1-8.543-1.05c-4.031-1.381-13.683-2.984-18.816.828-3.359,2.494-5.744,10.624-1.294,14.758C259.454,216.094,259.645,221.632,260.792,220.856Z" transform="translate(-254.202 -197.079)" fill="#3e2344"/>
            </g>
          </g>
          <path id="Path_2790" data-name="Path 2790" d="M268.968,234.951s-2.565,50.959-2,55.756-.366,23.212,11.265,26.756c0,0-5.2-26.585-4.463-42.556S268.968,234.951,268.968,234.951Z" transform="translate(-226.98 -178.533)" fill="#a1abad" fill-rule="evenodd" opacity="0.7" style="mix-blend-mode: multiply;isolation: isolate"/>
        </g>
        <path id="Path_2791" data-name="Path 2791" d="M265.79,227.208a130.015,130.015,0,0,1,4.727,36.761c-.279,20.8-1.123,63.474,14.273,62.483,0,0-6.489-26.214-6.093-35.738s5.552-44.522,3.657-50.52C279.611,231.507,265.79,227.208,265.79,227.208Z" transform="translate(-225.245 -182.325)" fill="#fd6141"/>
        <g id="Group_837" data-name="Group 837" transform="translate(0 44.132)">
          <path id="Path_2792" data-name="Path 2792" d="M261.449,226.7s10.38,16.242,13.705,43.77c1.587,13.123-.192,33.919-2.173,47.2-2.281,15.287-32.2,15.263-34.124,11.255s6.651-29.4,3.98-43.827-4.25-37.986-1.059-45.733S261.449,226.7,261.449,226.7Z" transform="translate(-238.573 -226.704)" fill="#fd6141"/>
          <path id="Path_2793" data-name="Path 2793" d="M243.968,245.221s5.092,24.563,4.442,37.564-4.794,39.27-4.794,39.27" transform="translate(-236.104 -217.636)" fill="none" stroke="#fff" stroke-linecap="round" stroke-linejoin="round" stroke-width="0.499"/>
          <path id="Path_2794" data-name="Path 2794" d="M241.89,238.058a24.455,24.455,0,0,0-1.354,6.423c2.805,21.423,14.855,45.432,33.362,54.052.611-6.96.979-14.305.879-20.9-12.4-12.349-21.882-28.4-29.14-44.226A12.553,12.553,0,0,0,241.89,238.058Z" transform="translate(-237.612 -223.421)" fill="#dd4026"/>
        </g>
      </g>
      <g id="Group_839" data-name="Group 839" transform="translate(45.345 50.674)">
        <path id="Path_2795" data-name="Path 2795" d="M292.119,274.136s9.226,2.159,10.35,3.44,3.012,5.667,2.787,6.55-5.1,2.81-7.146,2.525a15.783,15.783,0,0,1-4.268-1.436c.305-1.087.223-2.065-.909-2.416-1.2-.372-2.47.274-4.557,1.213C283.625,286.15,286.5,272.268,292.119,274.136Z" transform="translate(-217.67 -210.103)" fill="#ffb072"/>
        <path id="Path_2796" data-name="Path 2796" d="M240.6,250.476c2.48,13.748,20.062,34.255,27.586,40.71,6.595,5.658,39.161,15.26,40.6,15.336,3.337.711,7.582-11.3,4.99-12.853s-31.619-14.907-34.763-18.4-14.67-34.54-22.858-41.629S237.8,234.959,240.6,250.476Z" transform="translate(-240.124 -231.095)" fill="#ff8976"/>
      </g>
    </g>
    <g id="Group_844" data-name="Group 844" transform="translate(1537.459 404.478)">
      <g id="Group_842" data-name="Group 842" transform="translate(0 0)">
        <path id="Path_2797" data-name="Path 2797" d="M607,237.465c13.348-19.236,27.115-15.062,32.174-6.954s1.409,20.152-9.126,30.11c-7.557,7.572-22.686,12.849-34.838,15.742-8.5-9.153-18.153-21.942-20.234-32.435-3.234-14.13.416-26.174,9.126-30.108S606.574,214.056,607,237.465Z" transform="translate(-573.807 -212.516)" fill="#fd6141" fill-rule="evenodd"/>
      </g>
      <g id="Group_843" data-name="Group 843" transform="translate(3.259 11.2)" opacity="0.5">
        <path id="Path_2798" data-name="Path 2798" d="M638.1,226.83c-4.32-6.924-14.992-10.966-26.329-.024,9.655-7.612,23.5-7.757,24.706,6.166,1.271,14.62-10.447,24.611-23.941,22.058-17.709-3.35-13.355-18.2-21.769-25.469-6.58-5.534-14.383,2.83-14.732,9.689a40.843,40.843,0,0,0,.7,9.178c3.989,8.46,11.021,17.382,17.4,24.254,12.151-2.893,27.281-8.169,34.838-15.742C639.508,246.983,643.157,234.938,638.1,226.83Z" transform="translate(-575.995 -220.034)" fill="#dd4026" fill-rule="evenodd"/>
      </g>
    </g>
    <g id="Group_869" data-name="Group 869" transform="translate(1359.309 355.734)">
      <ellipse id="Ellipse_20" data-name="Ellipse 20" cx="73.427" cy="4.225" rx="73.427" ry="4.225" transform="translate(4.378 281.958)" fill="#764582" opacity="0.2"/>
      <g id="Group_868" data-name="Group 868">
        <g id="Group_867" data-name="Group 867">
          <g id="Group_854" data-name="Group 854" transform="translate(57.022 93.896)">
            <g id="Group_848" data-name="Group 848" transform="translate(1.029 9.534)">
              <g id="Group_847" data-name="Group 847" transform="translate(19.044 165.444)">
                <g id="Group_846" data-name="Group 846">
                  <path id="Path_2799" data-name="Path 2799" d="M500.229,371.829a42.022,42.022,0,0,1,3.557,3.423c.505.746,2.467,6.291,2.467,6.291a4.73,4.73,0,0,1-3.066,2.118l-2.47-3.179s-1.265,5.558-2.54,7.362c-1.542,2.181-10.385,4.7-11.706,4.034,0,0-1.625-3.239,1.146-5.016,5.117-3.28,5.242-10.161,5.242-10.161A4.816,4.816,0,0,1,500.229,371.829Z" transform="translate(-485.998 -371.059)" fill="#fd6141"/>
                  <g id="Group_845" data-name="Group 845" clip-path="url(#clip-path-3)">
                    <path id="Path_2800" data-name="Path 2800" d="M485.617,390.012c.156-.082,11.314-1.584,12.633-4.876,1.032-2.576,1.718-6.92,2.315-7.428s3.408-3.834,3.408-3.834l4.465,7.775-16.8,14.136Z" transform="translate(-486.185 -369.681)" fill="#dd4026"/>
                  </g>
                </g>
                <path id="Path_2802" data-name="Path 2802" d="M489.347,380.727l1.524.323a5.172,5.172,0,0,0,.982-2.82l-1.487-.52a.524.524,0,0,0-.664.313l-.737,2.013A.524.524,0,0,0,489.347,380.727Z" transform="translate(-484.561 -367.816)" fill="#f7b614"/>
              </g>
              <path id="Path_2803" data-name="Path 2803" d="M486.883,272.292c-.036-.533-14.162,62.369-13.656,79.281.316,10.537,20.013,59.026,25.892,79.514,1.128,3.931,7.241-.682,6.762-4.761-2.3-19.615-2.16-29.934-10.818-72.557-1.348-6.638,22.473-66.138,20.589-80.077S494.324,252.164,486.883,272.292Z" transform="translate(-473.214 -260)" fill="#ffb072"/>
              <path id="Path_2804" data-name="Path 2804" d="M515.638,273.692c-1.884-13.94-21.328-21.527-28.769-1.4-.034-.508-12.82,56.4-13.628,76.5,6.352-4.822,14.8-2.282,22.1,1.557C498.154,335.831,517.338,286.257,515.638,273.692Z" transform="translate(-473.2 -260)" fill="#ffbe57" opacity="0.5" style="mix-blend-mode: multiply;isolation: isolate"/>
            </g>
            <g id="Group_852" data-name="Group 852" transform="translate(28.638 9.308)">
              <g id="Group_851" data-name="Group 851" transform="translate(7.694 168.56)">
                <g id="Group_850" data-name="Group 850">
                  <path id="Path_2805" data-name="Path 2805" d="M515.183,374.97a41.914,41.914,0,0,1,2.108,4.465c.206.876.069,6.756.069,6.756a4.715,4.715,0,0,1-3.617.891l-1.18-3.849s-1.819,3.758-3.653,4.992c-2.217,1.49-10.112,3.318-11.439,2.665,0,0-1.82-3.522,1.108-5.025,7.334-3.762,7.983-8.959,7.983-8.959A4.817,4.817,0,0,1,515.183,374.97Z" transform="translate(-496.912 -373)" fill="#fd6141"/>
                  <g id="Group_849" data-name="Group 849" clip-path="url(#clip-path-4)">
                    <path id="Path_2806" data-name="Path 2806" d="M496.682,388.423c.176-.021,9.2-.88,11.368-2.611s4.065-5.859,4.806-6.121,4.548-2.372,4.548-2.372l1.409,8.853-20.727,7.241Z" transform="translate(-497.024 -370.884)" fill="#dd4026"/>
                  </g>
                </g>
                <path id="Path_2808" data-name="Path 2808" d="M500.674,380.9l1.31.846a5.178,5.178,0,0,0,1.92-2.287L502.7,378.44a.522.522,0,0,0-.732.057l-1.4,1.618A.522.522,0,0,0,500.674,380.9Z" transform="translate(-495.187 -370.396)" fill="#f7b614"/>
              </g>
              <path id="Path_2809" data-name="Path 2809" d="M491.756,276.422c-.11,5.475.731,63.875,5.789,79.861,3.152,9.96,9.768,57.773,12.008,74.109.818,5.96,7.285,5.96,7.754.267,1.746-21.155,8.585-50.579.821-76.431-1.94-6.458,7.052-73.13,1.481-85.83S492.166,256.176,491.756,276.422Z" transform="translate(-491.747 -259.848)" fill="#ffb072"/>
              <path id="Path_2810" data-name="Path 2810" d="M517.854,349.9c.179-16.494,6.7-70.237,1.755-81.5-5.571-12.7-27.443-12.221-27.853,8.025-.1,5.04.606,54.9,4.666,75.271C502.738,348.125,510.721,347.827,517.854,349.9Z" transform="translate(-491.747 -259.848)" fill="#ffbe57" opacity="0.5" style="mix-blend-mode: multiply;isolation: isolate"/>
            </g>
            <g id="Group_853" data-name="Group 853">
              <path id="Path_2811" data-name="Path 2811" d="M487.849,268.58l-.627,5.74s-10.271,26.04-14.7,68.308c10.957-3.04,31.647,7.083,62.333,2.775,0,0,12.139-54.128-8.977-78.209S488.96,255.836,487.849,268.58Z" transform="translate(-472.523 -253.6)" fill="#fd6141"/>
              <path id="Path_2812" data-name="Path 2812" d="M482.839,268.374s-.818,8.1,13.206,9.534,27.935-8.7,27.583-11.679S482.839,268.374,482.839,268.374Z" transform="translate(-467.476 -247.872)" fill="#dd4026"/>
              <path id="Path_2813" data-name="Path 2813" d="M506.074,264.667s16.059,26.718,6.179,74.393" transform="translate(-456.094 -248.181)" fill="none" stroke="#fff" stroke-linecap="round" stroke-miterlimit="10" stroke-width="0.499"/>
            </g>
          </g>
          <g id="Group_866" data-name="Group 866">
            <g id="Group_855" data-name="Group 855" transform="translate(0 49.844)">
              <path id="Path_2814" data-name="Path 2814" d="M449.511,253.458c-.107-.013-5.926-.356-6.933-.082a34.754,34.754,0,0,0-4.006,1.756c-1.607.807-.04,1.96,1.177,1.855a20.772,20.772,0,0,1,3.078-.352,5.685,5.685,0,0,1,1.046.267,24.621,24.621,0,0,1-5.312,3.182c-1.143.439-2.175.743-3.828,1.272-.737.237-.617,1.21.225,1.366a10.124,10.124,0,0,0,4.426-.56c.711-.27,1.429-.566,2.086-.871a15.493,15.493,0,0,1-2.27,1.3c-1.083.493-2.175.694-3.758,1.277-.725.268-.529,1.114.317,1.235a8.476,8.476,0,0,0,1.2.063c-.3.386-.086.989.585,1.077a8.15,8.15,0,0,0,1.794-.146.7.7,0,0,0,.638.41c5.92.018,9.453-3.213,12.7-3.967C457.837,257.327,453.371,254.2,449.511,253.458Z" transform="translate(-434.245 -209.71)" fill="#ffb072"/>
              <path id="Path_2815" data-name="Path 2815" d="M512.857,225.59c-4.024-2.284-10.891-3.035-16.3,4.676s-7.8,25.851-13.537,31.988c-3.423,3.659-34.492,4.716-36.7,5.826-1.439.723-.579,7.636-.109,8.919.988,2.686,34.623,4.122,43.774.515S521.5,230.491,512.857,225.59Z" transform="translate(-428.725 -224.029)" fill="#552f5e"/>
            </g>
            <path id="Path_2816" data-name="Path 2816" d="M482.695,207.635c.247-2.813.232-7.49,3.586-11.548s16.425-8.125,23.275-3.38c8.421,5.831,5.671,11.29,16.171,15.526s7.323,8.934,4.323,13.73-1.946,5.592,2.909,10.621,11.292,17.557,0,24.7-35.745,2.471-45.541-6.97,1.765-15.657-.955-21.283-5.911-4.386-5.911-10.365C480.551,214.088,482.313,211.973,482.695,207.635Z" transform="translate(-411.57 -190.569)" fill="#3e2344"/>
            <path id="Path_2817" data-name="Path 2817" d="M503.783,220.653s-22.272,3.714-23.017,10.511c-.311,2.848,3.571,8.593,2.568,11.511-1.464,4.265-3.8,6.741.507,16.866,3.48,8.186-2.494,25.127-2.312,27.144.678,7.539,12.633,8.919,17.537,8.8,6.991-.167,27.1-4.666,27.1-9.071,0-3.818-9.311-12.023-10.213-18.567s16.132-32.776,12.75-38.489C522.154,218.3,503.783,220.653,503.783,220.653Z" transform="translate(-411.473 -175.94)" fill="#764582"/>
            <g id="Group_856" data-name="Group 856" transform="translate(101.719 47.233)">
              <path id="Path_2818" data-name="Path 2818" d="M514.488,267.754c-.106.021-5.752,1.473-6.626,2.042a35.284,35.284,0,0,0-3.277,2.9c-1.283,1.26.562,1.88,1.688,1.406a20.866,20.866,0,0,1,2.823-1.275,5.661,5.661,0,0,1,1.077-.066,24.563,24.563,0,0,1-4.085,4.654c-.953.767-1.844,1.372-3.255,2.382-.63.45-.217,1.339.63,1.232a10.14,10.14,0,0,0,4.043-1.887c.594-.474,1.187-.976,1.719-1.467a15.425,15.425,0,0,1-1.762,1.935c-.88.8-1.859,1.327-3.188,2.366-.609.477-.162,1.223.679,1.079a8.775,8.775,0,0,0,1.165-.308c-.167.459.219.968.885.846a7.969,7.969,0,0,0,1.664-.687.756.756,0,0,0,.733.2c3.508-.806,9.513-5.844,10.873-7.66C523.6,268.892,518.388,267.277,514.488,267.754Z" transform="translate(-502.527 -200.044)" fill="#ffb072"/>
              <path id="Path_2819" data-name="Path 2819" d="M508.718,222.985c-3.6,2.9-6.815,9.019-1.627,16.883s19.965,16.038,23.571,23.628c2.15,4.526-17.812,23.938-17.851,26.412s3.757,8.5,5.209,9.2c2.576,1.248,30.618-25.97,30.618-35.806S516.445,216.745,508.718,222.985Z" transform="translate(-501.621 -222.276)" fill="#764582"/>
            </g>
            <path id="Path_2820" data-name="Path 2820" d="M503.4,209.052a44.011,44.011,0,0,0,2.163,10.3c1.707,4.512,3.538,5.9,5.694,7.816s-8.6,13.348-18.186,16.247c0,0-6.948-8.464-3.761-13.182s5.71-5.133,4.569-11.433c-1-5.491-1.588-8.536-1.588-8.536Z" transform="translate(-407.692 -181.519)" fill="#ffb072"/>
            <g id="Group_865" data-name="Group 865" transform="translate(75.179 7.598)">
              <g id="Group_857" data-name="Group 857" transform="translate(0.396 18.237)">
                <path id="Path_2821" data-name="Path 2821" d="M490.305,212.538c0,2.705-1.111,4.907-2.477,4.907s-2.477-2.2-2.477-4.907a6.639,6.639,0,0,1,1.268-4.256c.232-.3-.064-.529-.3-.229a6.989,6.989,0,0,0-1.344,4.485c0,2.96,1.253,5.278,2.85,5.278s2.848-2.318,2.848-5.278a7.173,7.173,0,0,0-.8-3.69c-.061.071-.215.194-.282.268A7.585,7.585,0,0,1,490.305,212.538Z" transform="translate(-484.978 -207.912)" fill="#fff"/>
              </g>
              <g id="Group_859" data-name="Group 859" transform="translate(0.969)">
                <path id="Path_2822" data-name="Path 2822" d="M504.92,215.605s-1.554,11.764-12.607,10.931c-5.551-.419-8.388-11.81-6.222-14.673a33.064,33.064,0,0,1,0-10.446c.983-4.712,10.285-7.179,17.858-4.873,0,0,2.175,2.071,1.341,11.328a2.828,2.828,0,0,1,3.595-.484c1.667.909,1.843,3.06,1.277,5.089C509.483,214.908,506.946,217,504.92,215.605Z" transform="translate(-485.362 -195.669)" fill="#ffb072" fill-rule="evenodd"/>
                <path id="Path_2823" data-name="Path 2823" d="M499.21,210.331l.825-2.2-1.411-.585s.916-4.113,3.21-2.6C503.719,206.194,501.563,211.166,499.21,210.331Z" transform="translate(-478.868 -191.29)" fill="#e57e55"/>
                <g id="Group_858" data-name="Group 858" transform="translate(18.536 18.237)">
                  <path id="Path_2824" data-name="Path 2824" d="M503.132,212.538c0,2.705-1.111,4.907-2.477,4.907s-2.477-2.2-2.477-4.907a6.648,6.648,0,0,1,1.268-4.256c.232-.3-.064-.529-.3-.229a6.989,6.989,0,0,0-1.344,4.485c0,2.96,1.253,5.278,2.85,5.278s2.848-2.318,2.848-5.278a7.173,7.173,0,0,0-.8-3.69c-.061.071-.215.194-.282.268A7.565,7.565,0,0,1,503.132,212.538Z" transform="translate(-497.805 -207.912)" fill="#fff"/>
                </g>
              </g>
              <g id="Group_864" data-name="Group 864" transform="translate(0 10.471)">
                <g id="Group_860" data-name="Group 860" transform="translate(5.004 11.699)">
                  <path id="Path_2825" data-name="Path 2825" d="M488.071,211.908s.752-1.835,6.555-1.235C493.966,213.743,488.536,215.255,488.071,211.908Z" transform="translate(-488.071 -210.552)" fill="#fd6141"/>
                  <path id="Path_2826" data-name="Path 2826" d="M488.071,211.868a19.531,19.531,0,0,0,6.555-1.235" transform="translate(-488.071 -210.512)" fill="#e57e55" stroke="#e57e55" stroke-miterlimit="10" stroke-width="0.249" style="mix-blend-mode: multiply;isolation: isolate"/>
                </g>
                <g id="Group_861" data-name="Group 861" transform="translate(0 1)">
                  <path id="Path_2827" data-name="Path 2827" d="M485.877,206.794c.043.521.728.559,1.563.49s1.5-.222,1.461-.743-.757-.886-1.591-.816S485.833,206.273,485.877,206.794Z" transform="translate(-484.142 -202.221)" fill="#3e2344"/>
                  <path id="Path_2828" data-name="Path 2828" d="M484.712,205.77c-.025.076,1.938-1.674,2.464-1.645s2.485.757,2.68.486a4.1,4.1,0,0,0,.384-.866,15.4,15.4,0,0,0-3.337-.337A6.035,6.035,0,0,0,484.712,205.77Z" transform="translate(-484.712 -203.37)" fill="#3e2344"/>
                </g>
                <g id="Group_862" data-name="Group 862" transform="translate(7.452)">
                  <path id="Path_2829" data-name="Path 2829" d="M491.014,206.364c.045.521.729.56,1.564.49s1.5-.222,1.46-.742-.755-.888-1.591-.818S490.97,205.843,491.014,206.364Z" transform="translate(-489.079 -201.431)" fill="#3e2344"/>
                  <path id="Path_2830" data-name="Path 2830" d="M496.608,204.31c.042.069-2.6-1.013-3.255-.846s-2.765,1.233-3.045,1.014a3.45,3.45,0,0,1-.594-.764,23.37,23.37,0,0,1,3.833-1.014A5.973,5.973,0,0,1,496.608,204.31Z" transform="translate(-489.714 -202.699)" fill="#3e2344"/>
                </g>
                <g id="Group_863" data-name="Group 863" transform="translate(3.206 2.003)">
                  <path id="Path_2831" data-name="Path 2831" d="M489.563,209.907s1.931-.064,1.888-.593-4.086-1.11-4.308-.728S488.7,209.665,489.563,209.907Z" transform="translate(-486.737 -201.879)" fill="#e57e55" opacity="0.5"/>
                  <path id="Path_2832" data-name="Path 2832" d="M489.358,204.043a9.743,9.743,0,0,1,.274,3.289c-.289.871-2.062,2.835-2.1,3.249s2.007,1.43,2.157,1.49-2.914-.41-2.824-1.36,2.369-3.34,2.451-3.806S489.358,204.043,489.358,204.043Z" transform="translate(-486.864 -204.043)" fill="#e57e55"/>
                </g>
              </g>
            </g>
            <path id="Path_2833" data-name="Path 2833" d="M503.063,199.131c-9.211.974-13.3,9.646-20.044,9.653-4.176-7.256,8.585-25.673,23.638-11.375,6.9,6.555.678,11.579.678,11.579l-1.537,5.3s.134-3.977-1.281-5.5A8.669,8.669,0,0,1,503.063,199.131Z" transform="translate(-410.754 -189.811)" fill="#3e2344"/>
          </g>
        </g>
      </g>
    </g>
    <g id="Group_873" data-name="Group 873" transform="translate(1272.071 312.632)">
      <path id="Path_2834" data-name="Path 2834" d="M499.025,172.754l-94.658-23.3h0l-11.97-2.945a8.689,8.689,0,0,0-10.516,6.361l-9.4,38.206h0l-.535,2.175-4.3,17.474A8.69,8.69,0,0,0,374,221.242l104.932,25.825a8.689,8.689,0,0,0,10.514-6.361l1.256-5.1h0l3.581-14.547h0l5.22-21.21h0l4.6-18.693A6.942,6.942,0,0,0,499.025,172.754Z" transform="translate(-363.874 -140.975)" fill="#764582" opacity="0.3"/>
      <g id="Group_872" data-name="Group 872" transform="translate(0 0)">
        <rect id="Rectangle_306" data-name="Rectangle 306" width="125.442" height="76.961" rx="5.833" transform="translate(18.392 0) rotate(13.826)" fill="#ffbe57"/>
        <path id="Path_2835" data-name="Path 2835" d="M381.428,163.982c-3.571,9.522-2.38,22.613,7.142,27.374,34.1,20.316,70.415,18.517,103.277,5.117l4.6-18.693a6.942,6.942,0,0,0-5.081-8.4l-94.658-23.3C389.616,150.11,384.516,157.035,381.428,163.982Z" transform="translate(-357.906 -141.061)" fill="#ffd25a"/>
        <rect id="Rectangle_307" data-name="Rectangle 307" width="125.443" height="14.98" transform="matrix(0.971, 0.239, -0.239, 0.971, 6.912, 46.644)" fill="#764582"/>
        <rect id="Rectangle_308" data-name="Rectangle 308" width="44.879" height="7.49" rx="2.341" transform="translate(21.326 9.39) rotate(13.826)" fill="#764582"/>
        <path id="Rectangle_309" data-name="Rectangle 309" d="M1.17,0H77.045a1.17,1.17,0,0,1,1.17,1.17v1.4a1.17,1.17,0,0,1-1.17,1.17H1.171A1.171,1.171,0,0,1,0,2.574V1.17A1.17,1.17,0,0,1,1.17,0Z" transform="translate(18.641 20.3) rotate(13.826)" fill="#764582"/>
        <g id="Group_870" data-name="Group 870" transform="translate(72.384 49.731)">
          <rect id="Rectangle_310" data-name="Rectangle 310" width="7.339" height="5.266" rx="1.646" transform="translate(1.258 0) rotate(13.825)" fill="#fff"/>
          <rect id="Rectangle_311" data-name="Rectangle 311" width="7.339" height="5.266" rx="1.646" transform="translate(10.328 2.232) rotate(13.825)" fill="#fff"/>
          <rect id="Rectangle_312" data-name="Rectangle 312" width="7.339" height="5.266" rx="1.646" transform="translate(19.398 4.464) rotate(13.826)" fill="#fff"/>
        </g>
        <g id="Group_871" data-name="Group 871" transform="translate(101.462 29.529)">
          <path id="Path_2836" data-name="Path 2836" d="M448.38,166.65a8.161,8.161,0,1,0-2.686,10.916,8.134,8.134,0,0,1,2.686-10.916Z" transform="translate(-433.139 -162.534)" fill="#fd6141"/>
          <path id="Path_2837" data-name="Path 2837" d="M450.595,164.667a8.127,8.127,0,0,0-6.342,1.055,8.135,8.135,0,0,1-2.686,10.916,8.158,8.158,0,1,0,9.028-11.971Z" transform="translate(-429.012 -161.606)" fill="#fd6141"/>
        </g>
      </g>
    </g>
  </g>
</svg>
