<svg xmlns="http://www.w3.org/2000/svg" width="869.33" height="476.143" viewBox="0 0 869.33 476.143">
  <path id="Path_4321" data-name="Path 4321" d="M154.886,127.089c1.726,0,1.938.627,3.418,0s5.844-3.5,7.323-3.9,2.426.129.247,1.343-6.552,3.837-5.77,3.638a54.454,54.454,0,0,0,6.125-2.62c3.132-1.477,2.846-.821,3.654-2.392l1.235-2.4s4.96,5.083,5.419,5.28.637-.031.881-.656.774-1.511,1.479-1.212.1,1.506.525,1.671,1.125-.031,2.429-.459.635-1.374.635-1.374-.139-.037,1.374-.165,6.264,1.605,7.672,2.164,5.671,1.018,6.867,1.406,1.65-.687,3.31.2,2.885,2.064,1.652,2.686-4.33,1.083-2.746,1.477a24.3,24.3,0,0,0,6.266.821c2.287-.068,6.405-.918,7.669-.918s2.043.787,3.242,2.786,2.143,2.786,2.6,2.951-.459-.949-.212-1.936a7.7,7.7,0,0,0-.527-3.57c-.278-.658,0-.986-.564-1.938s-1.477-.787.215-1.6,2.848-2.03,4.892-1.77,2.6,2.854,4.365,3.045,2.08.884,5.1,1.117,1.763.034,5.141.262,2.148-.365,2.851-2.1,1.479-2.067,2.287-2,3.659.459,3.659.821-1.2,2.224-.6,3.142a14.041,14.041,0,0,0,3.032,2.426s-.527-2.1-.527-2.327-.178-1.865.176-2.164,2.358.165,3.625-2.3-.85-2.327-.85-2.327-.774.037-.386-.984,2.639-1.637,2.639-1.637.144.459-.142-.365-1.755-.653-3.342-.753-2.673-.323-2.956-1.671a38.7,38.7,0,0,1-.388-6.1c0-1.936,1.553-1.249,1.831-2.329a27.978,27.978,0,0,0-.456-7.439c-.388-1.081.561-3.41.776-4.949s1.794-.855,1.794-.855c-.283-.525.454-2,2.568-2.62s6.127.031,6.127.031-.354.034-1.34,1.311-.349,3.544-1.831,5.146-5.243,1.083-5.243,1.083,1.162,2.657.669,3.5a10.483,10.483,0,0,0-.808,2.594s3.307.915,3.483,3.014,1.828,2.458,2.216,4.391-1.618,3.541-1.2,3.835.561.428,1.763.493,2.814.294,2.814.294a2.018,2.018,0,0,0-.071,2.033c.6,1.049.142,1.7.21,2.82s.74,2.064,1.018,1.87a16.928,16.928,0,0,0,1.87-4.328c.278-1.28.49-1.967,1.052-1.967s2.466,1.739,2.678,2.361.351,1.477-.7,3.179-.95,2.492-.034,3.148a13.268,13.268,0,0,0,2.6,1.246c1.652.787,1.34.719,2.358.425s-.422-2.883-.317-2.948,2.431-.328,1.907-1.642-1.062-1.965.029-2.62,1.868-1.18,1.868-1.18a12.613,12.613,0,0,1-1.372-3.082c-.774-2.2.666-1.6,3.7-1.377s3.163,1.277,4.784,2.1.6,1.115,1.125,2.426-1.338,1.508-1.338,1.508-1.233.228-.949,1.243a18.191,18.191,0,0,0,1.726,3.8c.879,1.576-.244,2.657-1.621,3.934a6.615,6.615,0,0,1-4.609,1.671c-1.621.031-2.324.687-2.426.228a1.476,1.476,0,0,0-1.763-.687c-.884.2-2.89.986-2.185,1.246s2.57.2,1.8,1.639-1.445,1.443-2.993,1.277-2.99-.163-3.982-.231-5.841-.359-5.841-.359a33.35,33.35,0,0,0,5.883,2.82,12.682,12.682,0,0,0,5.351.328s-1.06,1.965-2.329,4.063-2.463,1.183-3.515,1.314-1.692.984-3.662,1.243-6.09-.556-5.458-.26.915.816,2.043.984a4.787,4.787,0,0,1,2.814,1.18c.986.818-.635,1.018-1.933,1.243a2.746,2.746,0,0,0-2.253,1.277c-.6.824-2.82,4-3.523,4.984a10.825,10.825,0,0,0-1.618,4.556c-.286,1.938-1.933,4.262-1.193,4.753s3.515.559,4.679,1.28,2.466,4.26,3.342,5.605,1.584,2.361,2.568,1.311,2.925-.787,4.755-.131a27.944,27.944,0,0,1,6.725,4.388c1.159,1.149,3.2.955,5.487,1.283s2.547,1.188,2.547,1.188,2.382.123,1.4,1.138-1.27.031-.283,1.736a7.728,7.728,0,0,1,.672,5.146c-.286,1.149,3.153.569,4.6,1.422s1.521,4.317,2.266,3.89,1.967-1.183,2.109-2.1a17.729,17.729,0,0,0-.176-3.7c-.142-1.576-.53-4.462-1.3-5.605s1.4-1.605,1.044-2.1-.27-1.474,1.209-1.87,1.587-.031,2.395-.656.949-3.538,1.088-4.588a11.457,11.457,0,0,0-.6-4.163,27.088,27.088,0,0,0-2.321-4.163c-.535-.59-1.2-.755.249-2.589s.593-1.443.383-2-.527-1.933-.808-3.176.6-2.626.068-4.4-1.088-1.374-.984-1.77,3.446-.294,5.915-.031a14.019,14.019,0,0,0,4.149-.262,8.562,8.562,0,0,1,3.347,1.576c1.369.881,1.9.656,2.6,1.736s1.089,1.671,2.529,1.605a7.738,7.738,0,0,1,3,.622s-1.023.593-.844,2.526a29.026,29.026,0,0,1-.178,4.128c.034.787.427.821,1.089.921s2.471,1.7,4.33,2.358,2.358.456,2.956-1.049.742-1.377,1.482-1.474.984.165,1.3-.165-.564-.984-.354-2.03a7.337,7.337,0,0,1,2.08-3.216c.842-.784,1.443.789,2.182,2.232s3.307,6.127,4.047,7.667,1.689,1.639.808,3.085-1.3,2.062.071,2.717,2.607,1.8,2.5,2.885-.393,1.115.068,1.411,2.111-.59,3.307-.066a11.681,11.681,0,0,1,3.486,1.867c.842.852.776,1.149-.425,1.571a21.008,21.008,0,0,0-2.993,1.214c-.6.362-1.548,1.052-1.513,1.608s-.247,1.474.706.753a12.71,12.71,0,0,1,3.625-1.77c1.125-.325.281-.034,1.3-.163s2,.49,3.415.884,1.018,1.277.666,2.1a2.5,2.5,0,0,0-.1,2.526c.567.915-.244,1.736-1.479,2.851s-2.146,1.277-4.152,1.54-2.961,1.474-4.365,2.783-2.111.984-4.155,1.083-1.23-1.015-1.862-.787a8.508,8.508,0,0,1-2.746,1.052c-1.306.131-5.708.2-7.4.687s-1.157,1.639-1.582,2.589-1.091.556-2.358.984-2.783,2.3-4.257,4.852a15.929,15.929,0,0,1-3.486,4.128,11.05,11.05,0,0,0,3.517-2.623c1.023-1.246,5.28-4.194,6.583-5.109s4.118-2.264,4.784-2.069,2.329,1.477,2.329,2.132-.5,1.18-1.692,2.3-2.78,0-2.675.456a3.084,3.084,0,0,0,1.865,1.736c.918.231.876,1.348.876,1.9s-.525,1.277,1.584,3.048a6.426,6.426,0,0,0,5.143,1.8c1.548-.1.737.527,1.372.462s.774-1.28.984-2.264a4.086,4.086,0,0,1,1.128-2.327c.567-.428.984-1.214,1.165.3s-.635,3.572-1.451,4.029-.627,1.049-.627,1.508-.918.493-3.1,1.7-2.885,1.508-3.273,1.343-1.2.2-2.25,1.149-2.18,2.232-2.953,2.2-1.445-.359-.391-1.443,1.411-2.589,2.463-3.113a4.26,4.26,0,0,1,2.429-.459c.881,0,.459-.525,1.162-1.047s-.53-.365-1.726-.559-.281-1.249-.281-1.249l-1.235.656a15.589,15.589,0,0,1-2.358,1.054c-.488.06-.383.388-.525.588a7.327,7.327,0,0,1-1.9.328s-.915,1.865-2.29,2.13-.417.163-1.409.588-.8-.491-1.018-.231a6.385,6.385,0,0,1-1.477,1.314c-1.091.824-1.729,1.083-2.5,4.065a7.27,7.27,0,0,0,.1,4.525c-.034.459-1.374-.3-1.757.063a6.267,6.267,0,0,1-2.434,1.8c-1.159.328-3.447.918-3.976,1.477s-.564,1.343-.81,2.487a24.886,24.886,0,0,1-1.618,3.837,1.851,1.851,0,0,0-.635-1.867c-.95-.787-.805-1.508-.805-1.508a4.918,4.918,0,0,0,.139,2.2c.357,1.112,1.052,2.23.74,3.441s-.918,2.723-1.652,3.148.173-.821.173-1.8-.49-1.049-.811-1.537-.317-1.742.244-3.415-.525-.653-1.159.462-1.086,3.179-.1,4.525-.632,1.209.037,3.145-.808,2.883-.532,3.182,1.06-.131,1.411.816-.7.527-1.054.789-.181.622.034,1.149.635.191.456.359a3.815,3.815,0,0,1-1.584,1.115c-.913.294-.986-.168-1.55.49s-.981,1.246-1.582,2-1.018.5-1.652,1.018-.879.952-1.658,1.608a19.237,19.237,0,0,0-3.483,2.948c-.95,1.28-.706,1.608-1.165,3.675s1.165,5.671,2.185,9.081,1.443,2.458,1.3,3.536a5.834,5.834,0,0,1-1.34,3.147c-.732.755-1.154-.525-2.174-1.28s-.215-1.275-1.2-2.848a5.518,5.518,0,0,1-1.02-3.279,14.625,14.625,0,0,0-.808-4.031c-.53-1.249-1.66-2.822-3.347-2.2s-1.267.328-2.182.06-3.342-1.241-4.577-.588-5.133-.2-5.949,0-1.411.268-1.411.824-.346.65,1.1,1.047,1.233.818,1.13,1.443-1.167-.328-1.731-.559-1.089.459-2.075.459-1.162-.949-2.043-1.081a7.5,7.5,0,0,1-2.077-.328,7.544,7.544,0,0,0-2.956-.821c-.984.068-4.787,2.591-6.584,3.934s-3.169,2.654-3.586,3.735-.462,1.183.984,2.788.774,1.348.493,2.264-1.128,2.03-2.146,4.391-.425,3.507.805,5.77a21.092,21.092,0,0,0,3.31,4.847c.989.952,1.687,1.97,2.534,2.329a3.338,3.338,0,0,1,1.409.884c.388.4.283.559,1.624.2a15.282,15.282,0,0,1,3.271-.887,3.463,3.463,0,0,1,2.358.527c.527.488.6.2.6-.068a6.615,6.615,0,0,1,.561-1.508,14.131,14.131,0,0,0,1.621-3.048c.21-.984.21-2.953,1.445-3.082a32.126,32.126,0,0,1,6.264-.588c2.392.16,1.338,1.343.706,2.586s-.887,1.377-.887,2.327.286.955-.485,1.511-.283-.328-.6.231a4.9,4.9,0,0,1-1.3,1.212c.139-.129.493.947.493,1.474s-.1.784-.1,2.067-2.5,2.586-2.5,2.586a4.889,4.889,0,0,0,2.25.527,10.284,10.284,0,0,1,4.365.656c1.409.653,4.084-.525,6.056.459s1.269,1.571,1.406,2.492a28.439,28.439,0,0,1,.218,4.784c-.147.721-1.062,2.751-1.555,4.2s1.409,2.492,3.174,3.669a14.723,14.723,0,0,0,4.223,1.967c.907.262,2.6-1.38,5.7-1.18a4.872,4.872,0,0,1,4.149,2.82,13.379,13.379,0,0,1,1.763-3.869c1.411-2.229,1.474-2.885,3.376-3.607s2.536-.85,5.637-1.833,2.531-.262,4.147-.131a45.235,45.235,0,0,1,9.086,1.571c3.73,1.115,9.437,1.443,11.614,2.361s3.171,3.478,5.424,5.574,5.065,4,6.264,4.981,7.884,1.9,9.364,2.492,3.52,3.014,3.659,4.456,1.618,2.164,3.659,3.016,2.675,1.839,4.016,4.459.913,3.342,2.744,4,14.5,4.065,17.668,5.311,7.184,4.59,8.239,4.984,2.959-.331,3.8.129-.5,2.951.564,4.721,1.125,1.9.49,3.213-3.169,4.459-4.149,6.03-3.1,2.557-4.3,3.216-2.256,0-1.2,1.309.071,2.424-.844,3.607.071,1.047-.215,4.852,0,7.929-.422,9.568-2.883-1.44-5.7,2.1-3.588,6.227-5.277,6.618a22.543,22.543,0,0,0-6.969,3.607,8.477,8.477,0,0,0-2.466,3.541c-.842,1.831-1.689,5.571-2.6,7.866s-2.392,3.606-5.77,6.686-4.86,6.229-7.045,8.656-1.618,1.9-2.072,2.358c-1.167,1.17-5.972-1.886-4.729-.194.915,1.243-.517,0,.257,1.175s1.34,1.642-.351,3.74-3.638,1.684-4.976,2.012-3.334-1.377-3.473-.525-.913,2.972-1.972,3.494-3.869,1.314-3.8,1.642c1.33,6.211,4.063,6.859,1.17,6.573-7.94-.774-2.277-2.66-7.793,8.894-.842,1.773-1.687.855-1.548,2.953s0,3.669,1.128,4.983.351,1.243-1.55,3.014-2.043,1.511-3.8,4.2-3.452,2.555-2.82,4.59.776,5.046,1.833,8.06,3.237,2.489,6.688,4.59,3.871.981,5.561,1.508-1.2.656-4.228,1.178-4.994,1.115-7.108.661-7.105-3.347-8.8-4.593-4.43-3.473-5.419-5.637-1.689-4.325-2.956-7.276-.354-4.787.212-11.279.986-11.536,1.9-15.008,3.732-18.948,4.5-22.951,4.367-20.254,4.648-22.812a61.587,61.587,0,0,1,1.054-7.082c.564-2.555.215-7.738.215-8s-.215-.456-.992-2.883a7.221,7.221,0,0,0-3.8-4.456c-1.757-1.054-3.591-2.363-5-3.347a21.348,21.348,0,0,1-4.506-4.128c-1.411-1.77-2.749-5.377-3.452-6.885a92.215,92.215,0,0,0-5.7-10.159c-2.392-3.541-2.536-3.609-3.732-7.347s1.054-3.8,1.479-5.9,1.828-4.2,3.378-7.142,3.591-3.806,4.789-6.426.281-2.626-.144-5.18.144-2.161-.637-3.541-1.191-3.077-1.9-3.538-1.757-.79-2.392-.063-1.76,2.814-2.463,2.948-.989-.658-1.409-1.117-2.463-.459-2.888-.915-1.477-.527-2.18-.852a31.93,31.93,0,0,1-4.228-2.426,5.622,5.622,0,0,1-1.757-3.934c0-1.7-1.477-2.361-4.784-4.719s-4.719-2.689-8.734-3.672-5.629-3.8-6.969-4.587-1.193-1.639-4.152-1.311-6.547-1.314-8.8-2.23-6.264-1.571-7.958-2.686-4.637-1.511-5.907-4.2-1.06-1.642-.564-4-2.888-4.325-4.931-6.555-3.588-2.555-4.645-5.311-2.6-2.623-4.645-4.588-2.114-4.462-2.959-6.688-6.471-5.443-6.471-5.443,1.471,3.74,2.106,5.246a56.841,56.841,0,0,0,3.806,7.8c1.687,2.686,3.168,3.342,4.716,6.03s.071,4.325-.5,3.279-2.817-1.511-2.817-2.754a6.22,6.22,0,0,0-1.054-3.014c-.491-.984-2.675-2.1-4.789-3.806s-3.586-2.489-2.25-2.489,3.239,1.243,2.885.459-2.744-3.213-3.871-4.918-1.482-3.607-2.6-6.492-5.277-5.639-7.323-5.833-2.6-1.178-3.3-3.276-.845-4.328-1.763-5.967-4.858-7.145-4.926-9.243-1.2-8.194.21-11.6,1.057-11.014.845-12.522-2.746-4.391-2.746-5.508,1.482-.456,2.607-.131,3.517,1.311,3.517,1.311a30.579,30.579,0,0,0-2.953-4.588,16.2,16.2,0,0,0-5.915-3.016c-1.482-.325-3.378-.852-4.152-2.1s-1.618-2.885-2.185-3.937-2.959-2.29-3.517-3.407-.422-3.279-1.2-4.391a2.7,2.7,0,0,0-3.174-1.314c-1.269.459-1.684-.656-2.67-2.3a7.174,7.174,0,0,0-3.8-2.618c-.635-.2-2.814-3.082-2.956-3.8s-3.593-4.527-4.716-5.311-12.039-4.328-12.32-4.328-3.452.459-4.294.2-3.732-2.754-5.206-3.279-2.542.588-3.239,2.229-4.157,4.456-6.056,5.7-3.452,1.38-3.313.724a12.313,12.313,0,0,1,.708-3.279c.632-1.574.984-2.033,2.953-3.016s1.9-1.049,1.13-.984-1.34-.128.21-1.047,2.182-1.052,2.111-1.839-3.381,1.054-5.5,2.757a19.188,19.188,0,0,0-5.206,5.9c-1.831,3.019.212,1.9-1.338,3.869s-6.827,5.967-8.375,7.475-7.955,4.85-10.562,5.639-3.659,1.115-4.928,2.164-4.433,1.374-3.378.656,3.027-2.366,4.365-3.15a56.745,56.745,0,0,1,5.983-2.62,19.376,19.376,0,0,0,5.5-3.869,34.259,34.259,0,0,0,3.447-5.112c.984-1.574,1.2-2.3-.842-1.639a8.66,8.66,0,0,1-5.212,0c-1.054-.393-3.8,1.243-4.787.525s.071-2.229-.567-2.951-2.814-.26-4.223-.527-3.376-1.374-3.376-3.342-1.408-3.672-.637-5.178,1.907-1.9,3.168-2.751a18.332,18.332,0,0,1,5.492-1.97,4.126,4.126,0,0,0,2.324-1.377c.635-.653-1.479-3.016-1.479-3.016s.351-.26,1.2-.787.215-1.637-1.269-1.443-4.645,1.71-6.615,2.229-4.643.2-4.574-.653.49-1.377-.21-2.033-1.269-1.377-.564-1.7,5.07-2.757,5.07-2.757a6.359,6.359,0,0,0,3.237,1.9c1.689.2,5.277-2.948,5.277-2.948-2.25-1.38-1.76-1.77-1.76-1.77s-3.662-.066-4.506-.593a3.718,3.718,0,0,1-1.335-2.487c-.212-.921-3.8-1.642-2.814-3.153s2.814-2.03,4.01-3.536,2.253-4.33,5.7-5.9,7.6-3.016,9.432-4.328,2.675-.063,3.381.131,5.07-.194,6.757-.194,1.97,1.9,2.534,2.355,15.418.921,15.418.921,12.6.2,15.134.918,7.111,2.623,7.111,2.623C153.412,130.47,153.165,127.089,154.886,127.089ZM324.161,51.046s-1.27,5.246-6.332,6.688A135.443,135.443,0,0,0,303.042,63.5c-.422.26.564,3.145,1.831,4.587s2.463,2.426,3.588,3.869,3.1,1.311,4.65,2.82,2.67.981,6.9,1.049,3.1.393,7.814.656,9.647.656,11.265,2.1,3.94,7.082,5.419,10.489,4.086,9.046,4.086,9.571-1.624,4.656-1.624,5.309.845,1.77,1.624,2.688.349,1.637.207,2.489.845,3.016.986,3.281,2.25-2.1,3.591-2.492,4.648,2.361,4.648,4.262c0,4.307,1.172,2.841-5.844,7.932-.923.671-1.828,5.833-1.125,8.322s2.392,5.443,3.73,8.984,5.28,8.519,6.544,10.817,1.621,5.44,4.435,6.164,5.492,1.7,7.533,2.161,3.381,1.115,4.365-.787,2.959-9.112,4.58-14.358-.144-6.817,3.659-8,9.854-3.538,11.473-4.26,1.34-5.9,4.928-7.609,4.084-1.568,7.6-2.686a47.885,47.885,0,0,0,11.971-5.833c3.52-2.492,4.5-1.18,5.773-3.475s-1.269-5.639-1.548-9.046,1.128-3.607,1.826-6.688,1.06-5.112,3.8-7.21,4.223-3.273,3.732-5.243-1.9-4.918-1.9-7.082.49-.915-.635-3.929-1.128-3.41-.073-6.229,3.874-2.1,3.664-3.347-4.506-3.145-4.574-6.62.774-4.522,1.477-5.374,7.884-6.555,8.378-7.082-.139-1.965,3.378-3.669,4.716-2.817,6.054-3.344,3.452-.456-.635-1.639-4.994-1.7-7.672-1.374-3.586,1.836-8.378,2.3a42.554,42.554,0,0,0-10.211,2.688s1.624-1.443.215-2.822,3.662-5.9,4.509-6.426-6.62-2.358-10.494-3.077-11.473-3.016-15.837-2.691-10.77.265-12.955.984-1.9,3.541-4.365,3.672-7.037-1.443-10.56-.918-9.154,2.953-9.786,3.082,2.185,1.836,4.016,2.229,4.22,4.2,4.22,4.2-4.923-1.642-9.925-3.019-10.843,0-12.884.593a32.567,32.567,0,0,1-8.8,1.9c-4.084.2-8.727,3.541-11.05,5.112s-9.574,5.77-11.4,6.754-1.128,1.443.845,1.967S324.161,51.046,324.161,51.046ZM219.832,105.24c.561,2.4.561,5.854-.755,4.37s-2.392-4.5-4.5-3.281-4.412.879-4.037.616-.047-1.576-1.13-1.967-1.731.218-2.856.876-4.7,1.527-3.239.388.984-1.744.467-3.058-4.225.918-6.2,2.319-3.142,3.538-4.317,4.981-.328,2.363,1.453,2.883,4.65.876,2.253,1.752-4.223,1.482-3,2.229,3.334.873,5.443.609,3.9-.826,7.276.092a21.152,21.152,0,0,0,5.4.871,10.723,10.723,0,0,1-3.52,1.183c-2.253.391-6.384,0-8.5.391s-5.44.957-4.6,1.747a8.648,8.648,0,0,0,4.412,2.927c2.909.921,3.428.047,5.162.48s.8,2.405,1.267,2.712,3.759-.26,7.043-.873,2.064-1.138,4.648-1.794,2.67-2.618,4.176-3.058.422,1.007,2.2,1.443.8.569,2.723.876,1.548,1.049,3.425.915,4.084-1.4,3.8-1.618a1.637,1.637,0,0,1-.37-1.658c.186-.873-1.886.173-2.631.611s-.7-1.18.889-1.967,3.011,0,3.945,0,.1-2.712-1.6-3.145-2.439-1.49-4.976-2.885-1.22-2.012-1.97-3.843-2.348-7.26-3.756-8.22-2.909-.7-4.315-1.66A9.621,9.621,0,0,0,219.832,105.24Zm-38.956-3.714c.614,1.744.7.653-.517,2.576s-.517,2.623-1.361,4.066-3.1,3.368-2.392,4.328,2.956,1.529,3.9,2.271,1.875,2.271,3.562,1.7a18.409,18.409,0,0,0,3.428-1.576c1.178-.608,2.161-1.309,2.111-2.841s-.092-2.269.38-2.138,1.217.829,1.592-.176a9.21,9.21,0,0,1,1.831-3.1c.795-.784,3.1-1.574,4.176-2.492s2.911-1.92,3.426-2.707-.942-1.4-1.828-1.752-1.923-1.744-3.989-1.744-3.192,1.571-3.1.871-1.409-1.049-2.25-1.353a7.258,7.258,0,0,0-4.32-.48,30.137,30.137,0,0,0-5.915,1.091C177.779,98.6,180.268,99.774,180.877,101.526Zm61.106,20.934c-.278.391-1.5.787-2.25,1.66s1.595.4,2.345.656,1.314,1,1.925,1.225a11.178,11.178,0,0,0,5.256-.31c1.359-.653,1.5-.873,1.359-1.175a20.494,20.494,0,0,0-4.787-3.982c-1.972-1.049-2.017-1.088-2.439-.829S242.266,122.064,241.983,122.46Zm-8.873-20.454c-1.272.635-2.2,1.4-.042,2.492s2.862,2.012,4.317,2.927,2.064,3.541,5.115,2.361,4.273-2.578,4.7-3.8-.425-1.485-1.175-2.626-.936-1.613-2.489-1.44-2.067.176-2.067.176a8.7,8.7,0,0,1,2.723-2.143c1.692-.831.281-1.4,1.078-2.185s-2.014-1.178-3.234-.876-1.269-.087-3.286-.173-5.209,1.749-5.07,2.4,1.645.4,3.053,1.183,1.828.7.42,2.927-2.156-.525-2.628-.876S234.429,101.351,233.109,102.006Zm-9-4.021c-2.109.2-2.82,1.66-2.02,1.878s1.314-.218,2.578,1.136,2.4,2.1,2.909-.129S227.342,97.676,224.1,97.985ZM190.214,81.07c-2.35,1.881-2.812,3.365-4.643,4.548s-1.411,2.185-.8,2.835,2.439-.039,3.284-.477,1.548-1.529,2.064-.873,2.678-2.227,3.523-3.192a7.285,7.285,0,0,1,2.395-1.92c.236.045-.805,1.136-.425,2.054s2.062.96,3.567-.611.142-3.016,1.314-4.239,2.159-1.054-.139-2.146a3.343,3.343,0,0,0-4.228.7C195.662,78.319,194.817,77.4,190.214,81.07Zm14.316,2.974c-1.332.06-1.923.262-4.131,1.222s-3.142,3.452-3.656,4.808.231,1.356,2.253,2.143,4.834-.218,5.487-2.1,1.461.435,1.083,1.4,1.408.087,2.253-.354a13.537,13.537,0,0,1,3.565-.609A12.845,12.845,0,0,1,207.111,93a31.247,31.247,0,0,1-4.6,1.225c-.609.089.569,1,3.145,1.532s4.131-1.576,7.843-2.974,3.52-1.663,4.74-1.309,2.534-.614,4.034-.968,2.111.223,2.772-2.007,1.828-4.37-.283-4.5-2.253-.131-2.534,2.274-.472.918-.472.918-1.409-2.1-2.253-3.192-1.453-2.8-2.392-3.714-1.361.393-2.817,2.012-.281,2.227,1.175,2.927,2.487,2.492,1.784,2.972-1.5-.087-4.178.22-2.581-.831-3.331-1.18,1.264-1.091-1.6-2.271S205.472,84,204.53,84.045Zm-8.682,2.274c.3-.509-3.562,2.271-4.149,3.166s.588.742,1.76.7S194.867,88,195.848,86.319Zm7.418-5.794c-.965.433-.965.763.606.936s2.492-.522,2.161-1.178S204.04,80.176,203.266,80.525Zm8-8.3c-1.031.17-4.081,1.246-4.249,1.765a4.17,4.17,0,0,0,.5,2.56c.469.894.637,1.026,3.26.328s4.438-2.056,3.565-2.3a18.284,18.284,0,0,0-2.177-.74c-.776-.11.679-.525,2.416-1.07S216.9,71.279,211.266,72.223ZM202.374,73.6c-.742.341-1.01.346.54.942s3.216.546,3,.066A2.581,2.581,0,0,0,202.374,73.6Zm6.051-4.3a4.262,4.262,0,0,0-2.132,2.051c-.328.42,1.666-.3,2.578-.522s1.128.325,2.022-.462,2.652.024,4.249-.328,1.849-1.4,1.5-2.311S212.627,67.63,208.425,69.293Zm15.911,3.955c-.433.207-.281.894.1,1.7s.469.609,1.264.915A6.174,6.174,0,0,1,227.481,77c.191.2.3.265.635-.522s-.165-.656-1.054-1.7S225.466,72.7,224.336,73.249Zm5.422,6.862a2.767,2.767,0,0,0-2.348.588c-.446.22.236.721.54,1.658s.047,1.251,1.831,1.382,2.324-.2,2.463-1.335S230.885,80.417,229.757,80.11Zm6.924,2.054c-1.1-.81-1.645-1.466-2.77-1s-.189,1.023-.189,1.332,1.361-.042,1.388.7.441,1.047-1.2,1.136-2.093.021-2.723.5,1.222-.066,1.784.679,1.527.829,3.1.59,3.709-.59,3.709-.59a12.452,12.452,0,0,0-1.618,1.857c-.467.763-.656,1.857.163,2.4s.918-.564,3.195-.609,2.956-1.222,2.956-1.222a2.149,2.149,0,0,1-.446-1.642,4.6,4.6,0,0,0-.024-1.4,9.467,9.467,0,0,1,1.125.918s-.163-.677-.493-1.9-.066-1.314-.422-2.972-.283-2.012-1.993-1.967-2.888.637-4.3.637-2.017.26-.981.784,1.175,1.159,1.666,1.747a3.852,3.852,0,0,1,.422,1.946C239.05,84.021,236.682,82.164,236.682,82.164Zm-8.566,6.227c-.029.008-.05.024-.073.031a2.041,2.041,0,0,0-1.007,1.7c-.047.569.942.239,2.513-.307S230.347,87.675,228.115,88.391Zm22.153-2.969a11.5,11.5,0,0,0-3.1,2.513c-.75.85-.094.957,1.854,1.944s4.034,1.178,4.947.15S253.552,83.625,250.268,85.422Zm9.054-7.627c-2.5.249-1.723.619-4.611-.328a27.136,27.136,0,0,0-7.5-1.052c-.986,0-.525.462.5,2.135s1.3,2.258,3.415,1.734,3.835-.881,5.385,1.343,2.358,2.922,1.089,3.738-.672,2.13.071,3.837,2.426,1.634,4.789,1.634,17.28-.226,19.606-.65,4.4-2.395,5.631-3.279,1.9-2.264.21-3.281a13.036,13.036,0,0,0-5.986-1.965c-1.9,0-3.517.984-6.405,1.277s-2.25,1.676-4.855,1.739-1.34,1.214-4.546-.1-5.561-2.953-4.042-3.182,2.744-.425,1.9-1.146S261.649,77.563,259.323,77.794ZM229.477,65.6c1.548.525,1.938.915.21,1.374s-3.064,1.671-1.335,1.443,3.2.165,5.419.527,2.038.129,3.027,1.377,2.041,1.243,3.559.884,1.721-.462.74-1.545-2.009-3.077-3.347-3.864-2.463-1.9-3.8-1.768-1.652.16-2.817-1.411-2.072-.824-3.767-.4-2.227,1.634-2.885,2.167C223.142,65.472,227.929,65.076,229.477,65.6Zm20.278-16.063c-1.831,2.3-3.31,4.228-1.238,4.456s2.993-.163,3.134.5S251.3,55.6,248.2,55.6s-2.146.69-.422,2.72,1.9,1.343,4.54,1.277,3.52-1.018,5.7-.454,2.851,1.115.879,1.7-6.62,1.7-5.561,2.686,4.328,3.342,5.807,3.575,1.794-.984,5-.624,2.429.69,2.778-.2,2.114-3.145,2.466-3.966,1.235-1.346,2.993-1.736,2.324-.952.669-1.542-3.52-.852-3.344-1.309,1.2-1.8.491-2.494-1.826-.656-2.746-1.015-1.933-2.03-3.1-2.751-2.18-.79-3.591-1.87-3.656-3.719-6.473-3.572C252.4,46.128,251.58,47.242,249.754,49.537Zm-3.6,19.176c-.7.359-2.46.425-1.157,1.506s.949,1.117,2.6.493a13.231,13.231,0,0,0,4.265-2.623c.207-.459-1.658-1.343-2.925-1.736s-2.146-1.409-4.789-2.132C240.314,63.174,246.864,68.349,246.158,68.714Zm86.121-34.1c-2.909-.79-13.327-2.8-16.705-2.017s-3.195-1.744-7.887-1.13-11.919.26-14.172.609,1.125,1.311,2.348,2.1-5.818-.873-11.174.614-8.823,2.271-3.092,4.456,6.476,2.8,6.476,2.8-7.323-1.311-10.421-2.534-1.406-1.136-7.229.525-11.449,2.536-11.168,4.283,4.7,4.11,7.6,4.719,8.921-.873,9.39-1.049-2.348,2.361-2.348,2.361,3-.611,6.382-1.487,6.007-1.833,9.2-2.972a28.128,28.128,0,0,0,3.753-1.485s-5.537,4.286-9.387,5.768a42.075,42.075,0,0,1-11.168,2.539c-2.345.087-1.975,1.571.375,2.8s4.128,3.845,5.351,4.719a3.7,3.7,0,0,1,1.409,2.274,6.507,6.507,0,0,0-7.7,0c-4.039,2.88-3.475,4.37-2.442,4.719s4.6.7,5.256,1.923S280.28,68,280.28,68s-2.342,2.972-4.6,2.972-2.156-1.923-5.443-1.574-3.1,1.138-1.687,2.271,2.534,1.49.092,2.626-3.567,1.485-3.662,2.885,3.192,1.4,5.256,1.4,4.037-.181,7.793-.262S281.313,77,282.722,77s2.817.438,2.253,1.836.559.527,4.7-.96,2.245-3.764,1.97-4.546-1.784-1.049-2.723-1.485,2.817-4.288,2.25-5.595,4.6-.265,6.945-3.323,1.5-5.332-.186-5.854,3.1-.173,4.6-1.054,4.792-1.917,6.1-3.58,1.784-2.274-1.406-1.92,4.593-1.4,8.351-3.85,8.073-5.33,9.01-6.03,1.789-.351-2.628-.087-9.668-.349-6.757-.7,11.546-1.4,13.8-3.056A26.757,26.757,0,0,1,332.279,34.616ZM279.719,95.273c-4.7-.438-11.544-1.571-12.955,2.447a125.24,125.24,0,0,0-3.753,14.6c-.186,1.658,5.631,4.1,9.668,4.278s10.61.438,9.293-.522-.189-1.485,3.567-1.311,4.131-.787,4.131-1.574.656.96,3.284,2.358,4.884,5.338,7.229,7.609,7.6,5.33,6.57,7.079,1.123,7.869-6.951,9.267-8.54.433-8.443,2.271.464,2.623,3.659,2.623,7.6-2.623,9.1-.7a9.652,9.652,0,0,0,4.884,3.061c1.311.435-1.6,1.22-2.35,1.485s1.6.525,6.2,2.709,10.135,2.447,7.412.876-4.034-4.456-5.256-5.424-.092-.173,2.067.354a13.61,13.61,0,0,1,5.068,3.058c.936.784,1.409-.26,2.064-3.326s-.278-3.056-3.942-5.5-4.787-4.372-5.165-6.122,1.881-2.1,2.82-3.326,3.57,2.19,5.351,4.2,3.281,5.511,4.692,2.974a31.914,31.914,0,0,0,2.717-9.529c0-1.309-1.4.087-7.41-2.883s-9.107-4.107-9.668-4.107,1.595-1.136,4.226-2.45,3.751-1.13-1.881-6.468-7.229-6.468-10.888-6.817-4.692-4.2-7.32-5.506-8.732,1.571-10.515,2.012-1.22,1.133-3.473-2.1S279.719,95.273,279.719,95.273Zm4.223,0c-2.334.281,1.406,4.546,4.409,4.724s5.54-1.311,6.2-1.49S287.6,94.835,283.941,95.273Zm-10.536,43.354a22.355,22.355,0,0,0-1.479,5.38,9.66,9.66,0,0,1-.774,3.145c-.349,1.112,1.128-.2,2.114,1.44s.556,2.1,2.321.2a5.5,5.5,0,0,1,6.193-1.77c2.468.787,4.367,1.115,3.523-.391s-1.972-1.38-3.662-3.41a9.9,9.9,0,0,0-5.068-3.344C274.462,139.089,274.247,136.6,273.405,138.628Zm17.713,153.165c-.727-1.516-1.82-3.974-6.384-4.821s-6.106.847-7.793,1.416,1.574.85,3.748,0,3.824-.181,4.121.207-.732.629-1.1.215-.443,1.018,2.012,1.9,3.053,1.309,3.3,2.363a6.624,6.624,0,0,0,.782,2.494c.561.879.771,1.249-.26,1.634s-.669.333.092.805a10.07,10.07,0,0,0,4.438,1.43c2.143.181,2.854.582,1.361-1.382S291.346,292.27,291.118,291.793Zm6.817,9.6a3.432,3.432,0,0,1,.763,3.245c-.084.7-1.367.157-3.725-.464s-2-.32.052.787,3.373.834,3.284,2.308,1.881.136,2.751-.719.811-.094,4.451.451,4.388,1.209,3.808-.388,1.668-1.466-1.566-2.99S296.587,300.008,297.935,301.393Zm-10.363.91c-1.372-1.516-3.082-1.736-3.1-.446s.464,1.214,1.726,1.566S288.448,303.268,287.572,302.3Zm26.439,6.578c-1.49-.511-1.794.608-.805,1.542s2.513.611,4.01.54S316.61,309.776,314.011,308.881ZM296.883,125.946c-1.975.831-3.132,1.409-1.409,3.669s2.749,3.672,3.412,2.033S300.227,124.535,296.883,125.946Zm-15.8,24.267c-2.972.477-3.945.567-3.475,2.229s1.27,1.4,3.284.391S284.319,149.688,281.08,150.213Zm6.2,2.534c-.509.155-.658,1.311,0,2.358s1.92-.346,2.487-1.616S289.153,152.178,287.275,152.747ZM254.8,72.068c-2.812.094-7.04,1.091-4.7,1.133s4.275.527,8.079.31,4.17-.483,4.267-2.319S259.96,71.893,254.8,72.068ZM237.2,56.64c-2.872.892-2.161,1.487,1.217,2.972s3.475.787,3.1-2.012S238.888,56.116,237.2,56.64ZM437.815,129.8c-3.557.991-4.747.4-5.422,2.2s-2.067.834-2.872,1.057-1.941,5.256-2.5,4.506a13.674,13.674,0,0,1-1.587-2.885c-.818-1.729.27-1.422-1.293-3.245s-4.656-1.616-4.876-.871,2.135,1.374,1.338,2.216a41.474,41.474,0,0,1-3.441,2.492c-.724.609,1.393.344,2.723.031s2.243,1,2.786,1.928-.609,1.833-1.186,2.287,1.936.344,2.938.53,1.529,1.028.845,2.167,2.985.16,5.018.042,2.563,1.393,5.631.43,4.535-.894,7.334-2.964,2.581-1.589,4.438-2.925,1.411-1.747,1.487-3.226,1.227.414.79-1.82-2.725-1.626-4.325-1.8-1.545-1.432-2.35-1.828S441.422,128.789,437.815,129.8ZM675.428,322.358a6.986,6.986,0,0,0-.378,2.316c0,1.183-.139,2.45-.045,3.627s.163,2.012.818,2.274a2.182,2.182,0,0,0,2.185.021c1.081-.5,2.09-1.4,1.55-2.754a37.185,37.185,0,0,0-2.138-4.215C676.836,322.625,675.711,321.356,675.428,322.358Zm-.86-1.621c.115.5.275.4.514.742s.493.045.165-.414-.289-.514-.289-.514-.417-.142-.417.273M775.906,390.5c-.016.052-.076.081-.115.123-1.928,1.951-3.677,1.406-6.99,2.434-3.376,1.047-9.222,4.456-9.647,5.967s0,1.7-.42,1.5a5.113,5.113,0,0,1-1.13-1.112,7.151,7.151,0,0,0-.7,3.473c.21,1.639.984,2.623.916,4.721s-.845,3.342-.774,4.784,2.46,4.2,3.1,5.9,1.057,1.246,1.406,4.328,1.972,4.782.351,6.421-2.814,1.309-.842,3.016,3.591,2.82,6.754,1.7,2.329-2.1,4.792-2.626,2.956-1.047,5.068-1.178,3.588.063,4.37-1.44.207-1.443,2.316-2.494,1.9-1.311,3.313-1.571,2.321.724,4.22-.787.493-1.642,4.719-1.642a20.164,20.164,0,0,1,7.533,1.115c1.55.527,4.084,1.9,4.716,2.885s1.479,2.167,1.757,2.167.638.06,1.621-.918a42.267,42.267,0,0,1,3.8-2.951,7.006,7.006,0,0,1-.774,2.885,3.7,3.7,0,0,0-.637,2.3c0,.391,1.624-1.251,1.836-1.311s.42,2.885.632,3.145.847.128,1.479.984a10.825,10.825,0,0,1,2.114,3.148c.63,1.637,3.308,3.279,5,3.538a14.04,14.04,0,0,0,4.435-.066c1.267-.194,1.338-1.7,2.673-1.112s-.068,1.833,3.1,1.574a8.487,8.487,0,0,0,5.28-2.167c1.264-.85,1.406,1.18,3.027-1.047s1.9-1.7,2.18-4.4.212-3.21,1.76-5.768,1.9-1.311,2.961-5.044,2.392-7.281,2.253-10.36.066-1.049-.637-4.527-.212-3.077-2.463-4.519-2.815-1.052-3.381-3.082.142-2.623-.915-2.623-1.973.456-2.6-.918-.559-1.9-1.758-3.21-2.321-1.049-4.506-2.03-1.062-1.249-1.062-2.953.126-3.517-1.613-4.3-.7.435-.7-2.363,0-2.4-1.409-2.88-1.878-.438-2.77-2.146-2.064-4.5-2.486-5.631-.936.129-1.5.957a8.8,8.8,0,0,0-1.361,4.37c0,1.7.75,2.67.75,4.942s-1.592,4.543-2.581,5.854-1.781.131-2.631-.22-1.031-1.618-2.812-2.492-5.068-1.658-6.57-3.014-.472-1.4,0-2.8a7.112,7.112,0,0,1,2.253-3.452c1.125-.918.8-1.27-.611-2.056s-3.378-.829-5.773-.829-3.8-.173-3.662,1.183,1.548,1.875-.464,1.485-3.759-.569-4.651.391-1.083,1.534-1.595,3.586.142,2.182-.7,2.182-4.178-1.616-5.306-2.09-1.731-.441-3.048.784a72.01,72.01,0,0,1-7.557,6.159C777.525,385.342,777.619,385.124,775.906,390.5Zm-62.627-59.086c-1-.136-1.55-.4-.33,1.175a18.586,18.586,0,0,0,2.723,2.974c1.172,1.094,1.6-.79,2.489,1.309s.561,2.143,1.453,2.927,1.645,1.01,1.875,1.8a5.484,5.484,0,0,0,1.55,2.885c1.036.871,1.036.742,1.642,2.445s1.55,2.927,2.02,4.37,3.145,2.8,4.5,4.545,3.664,4.283,4.039,3.583,1.359,0,2.064-.26.936-1.267,1.408-3.717-.425-3.583-1.083-4.152-1.876-.7-2.2-1.222-.892-2.316-1.689-2.885-.992.042-.992-1.356.942-1.264-.231-2.051a6.236,6.236,0,0,1-1.694-1.75c-.37-.393-2.906-1-3.565-1.7s-3.423-1.967-4.74-3.281-2.77-2.358-3.19-3.318S717.594,331.979,713.279,331.415ZM740.592,359.6c-1.123,0-1.687-.656-2.439.7s-.656,1.356.517,1.356.939.614.889.787-.561-.134,1.831.829a5.884,5.884,0,0,0,4.742.218c.656-.351.892.876,4.178,1.4s5.02-.3,7.129.22,1.6-.262.1-1.4-1.361-.527-2.867-1.618-3.612-1.136-4.6-1.314.842,1.049-2.156.653-1.925.268-3.475-.74-1.55-1.178-2.586-1.356S740.592,359.6,740.592,359.6Zm23.842,4.805c-.845.262-2.581.748-1.784,1.094s.184.569,2.675.349,4.648-.522,4.973-1.049-.42-.173-1.458-.483-.936.22-2.345.4A3.026,3.026,0,0,1,764.434,364.408Zm8.732-.176c-1.666.2-1.458.569-.144.965a6.789,6.789,0,0,0,3.52.3,16.244,16.244,0,0,1,2.959-.831c1.828-.3,2.439-.262,3.89-.438l1.461-.173s-.142-.3-1.128-.26-1.684.087-2.675.087-2.673.871-3.378.829-2.062-.48-2.395-.262S774.952,364.015,773.166,364.233Zm9.385,2.14a.4.4,0,0,0-.06.045c-1.162.795-1.209,1.015-1.1,1.647a1.182,1.182,0,0,1-.128.915,4.986,4.986,0,0,0,3.011-1.393,4.931,4.931,0,0,1,2.691-1.77,10.206,10.206,0,0,0,2.854-1.93,8.41,8.41,0,0,1-2.216.129,4.18,4.18,0,0,0-2.678.918C784.552,365.245,785.284,365.329,782.55,366.373Zm-9.81.692c-1.222-.876-2.408-.753-2.5-.215s-1.06.509.666,1.149,3.363,1.477,3.239.6S773.271,367.438,772.741,367.065Zm-11.216-36.44c-.706,1,.656.742-.378,1.618s-1.825.48-2.856,1.789a14.83,14.83,0,0,1-3.239,2.712c-.658.483-2.775,1.044-3.711,2.316a1.252,1.252,0,0,0,.331,1.967s-.567.26-2.067-.307-1.595-1.267-1.595-1.267-1.081-.042-1.687,1.574-.944,1.789.134,2.754-.748,1-.514,1.658.239,1.883.892,2.012.8-.611,1.6.393.139,3.845,1.17,3.976,1.781-.3,2.673.087a3.22,3.22,0,0,0,2.725.351,4.025,4.025,0,0,1,3.05.349,10.042,10.042,0,0,0,3.892,1.007c1.083-.087,1.267.176,1.456-1.356s.05-2.972,1.361-4.152,1.361-1.18,1.456-2.274a6.132,6.132,0,0,1,.894-3.363c.792-1.141,1.264.656,1.689-.22s.845-.871.606-1.309-1.453-.441-1.923-1.27.144-1.269-.422-2.972-.889-1.049-.094-2.012,1.456-1.136,1.548-1.878.422-.79,1.411-1.485-.157-.372-1.094-1.073-2.7-3.321-3.788-3.3C764.455,326.964,762.228,329.618,761.525,330.625ZM900.2,423.411c-.451-.333-.839-.089.194,1.136s1.125.871,1.781.915,1.222,2.45,1.592,3.064a10.724,10.724,0,0,0,1.081,1.353,13.254,13.254,0,0,1,.05,3.8c-.328,1.178-1.033,1.7-1.267,2.8s1.078.787,1.925,1.136.7.352.375,1.311-1.314,1.4-1.314,1.574,1.925,1.267,2.911.087a17.582,17.582,0,0,0,2.959-4.194c.417-1.267-.755-.7.606-1.618s1.175-.483,1.878-1.618,1.453-2.313.658-2.927-1.686.742-2.4,1a2.458,2.458,0,0,1-2.25-.176c-.984-.48-1.172-.48-1.547-1.356a4.9,4.9,0,0,0-.845-1.353s-.283,1.485-.984,1.007-.519-1.007-1.034-1.839a17.142,17.142,0,0,1-.847-1.7c-.325-.611-.047-1.794-1.686-1.967S900.626,423.715,900.2,423.411Zm.283,15.866A17.825,17.825,0,0,0,898,442.028a12.146,12.146,0,0,0-1.736,3.1c-.375.873-1.736,1.923-3.989,3.1s-3.1,1.66-3.851,2.754-3.426,4.5-3.751,4.9,1.264.784,2.909.784,4.223,1.487,5.631-.042,2.814-5.159,3.706-6.468a16.378,16.378,0,0,1,3.145-3.061c1.406-1.267,3.753-3.627,3.753-4.548a8.475,8.475,0,0,0-.609-2.4,1.768,1.768,0,0,1-1.739.873C900.254,440.893,900.487,439.277,900.487,439.277Zm-11.066,16.787c-1.65-.873-1.973.753-2.237,2.421s.711.249,2.146-.5S890.051,456.4,889.421,456.064Zm-55.811-11.457c-1.857-.619-1.547,1.138-1.267,2.447a9.731,9.731,0,0,0,1.364,3.452c.7,1.1,3.329,1.485,4.367,1.01s1.779-2.1,2.812-3.633a6.6,6.6,0,0,0,1.317-4.191c-.189-.921-1.5.829-2.35,1.222s-1.973,1.4-3.565.963A13.717,13.717,0,0,1,833.611,444.607Zm-23.37-93.835c-1.5.351-2.253-.963-3.475-3.5s-2.156-2.883-5.254-1.75-2.628.876-.564,1.663a27.911,27.911,0,0,0,2.628,1.049c.281,0,3.286.435,2.628.873s-3.473.871-1.692,2.1,1.033.349,5.728,2.709,5.445.614,6.948,3.672,1.5,2.534.281,3.323-2.817,1.571-2.159,1.658a42.927,42.927,0,0,0,5.068.527c3.192.173.189,2.009,3.753,2.009s4.506-1.136,5.915-2.8,1.689-.787,4.692-.087,4.037,3.321,7.793,4.37,5.348,2.45,3,.262-3.19-3.756-6.384-6.295-3.376-2.8-4.315-4.719-4.223-4.2-7.882-5.681-5.757-1.694-10.046-2.885C812.491,346.053,811.744,350.423,810.24,350.772Zm-24.692-8.74c-1.406.981-1.579.38-2.631-.267s-.758,1.359-3.1.267-3.213-1.634-5.731.22-.934,2.612-.994,3.919-2.106,5.007-2.867,6.368-.753,1.852-.173,2.723,1.406.543,1.755.978,0,3.866-.412,5.007,1,1.364,2.457,1.036.176-.435.176-1.631.7-1.744.7-3.979v-3.26s.412-.22.936.54,1.288,2.888,1.928,3.979,1.285,1.9,2.282,1.138,1.925-1.631,1.925-1.631-1.925-.6-1.925-1.254.818-1.193-.53-3.373-2.041-2.287-.346-2.395,1.637-1.8,2.628-2.287a4.994,4.994,0,0,1,2.4-.325,2.615,2.615,0,0,0-2.513-.6,19.132,19.132,0,0,0-4.152,1.361c-1.285.706-2.4,1.146-2.631-.163a8.981,8.981,0,0,1-.233-3.433c.178-1.794,2.219-.433,3.743-.866s1.521-.33,4.852-.113,3.565-.546,4.559-1.9a13.879,13.879,0,0,0,1.576-2.943S786.949,341.051,785.548,342.032Zm7.892-4.763c.3-.543-2.442,1.875-2.956,2.358s0,1.18.37,1.883.286,3.1.425,3.622,1.55,1.007,1.55,1.007a5.067,5.067,0,0,1,.467-2.358c.517-.742,0-1.663,0-3.014S792.549,338.885,793.441,337.269Zm-5.4,14.347c-2.156-.821-2.959-.281-2.959.847s-.239,1.687,2.054,1.687S792.027,353.138,788.043,351.616Zm4.289-.729c-.53.168-1.086,1.857-.782,2.867s.661.338,1.87.113,1.023-1.178,2.534-1.293a16.222,16.222,0,0,1,4.65,1.068s.666-.787-1.744-2.3S795.345,349.93,792.331,350.887Zm-42.937-55.6s-2.159.06-2.489.06-1.081.837-1.618,1.165-.54.782-.162,1.634,1.007.9,2.062,1.183.682-.459,1.458-.745a2.021,2.021,0,0,0,1.151-1.616,2.447,2.447,0,0,1,.866-1.138c.186-.215-.609-.96-.609-1.028A4.594,4.594,0,0,0,749.394,295.292Zm25.413,3.035c-.847-.627-1.314,1.576-1.55,2.71s-.517,1.881-.092,2.709.233,1.1.233,1.1l-1.222-.923a7.834,7.834,0,0,0-.328,1.97c0,.918-.378,1.311,1.033,1.967s1.881.3,2.062,1.311.189,1.44,1.131,1.616a3.77,3.77,0,0,1,2.392,1.183c.375.611.186-1.621.845-1.487a3.774,3.774,0,0,1,1.878,1.7,1.62,1.62,0,0,0,1.17.784s-1.075-1.791-.606-2.012.606-.388-.614-1.136a6.511,6.511,0,0,0-3.14-.7c-.939-.131-.939.656-1.645-1.18a5.39,5.39,0,0,1-.139-3.368c0-.388.514.614,1.081-.656a6.645,6.645,0,0,0,.606-3.494c-.092-1.222.845-1.7.139-1.75S775.275,298.675,774.808,298.327Zm11.166,23.488c.144.884-.839-.249-1.212.26s-.564.409-1.162.656a12.572,12.572,0,0,0-2.038,1.589s-.019-.866.016-1.065-.44-1.212-.879-.525a4.032,4.032,0,0,1-1.852,1.621,2.842,2.842,0,0,0-1.721,2.1c-.126.887.6.855.6.855a5.639,5.639,0,0,0,1.039-1.311c.651-1.015.771-.986,1.952-1.133s1.088-.131,1.463.506.087,1.61.121,2.316-.034,1.553,1.175,1.965.637.034,1.747-.066,1.091-.068.931-.624a9.659,9.659,0,0,1-.566-1.7c-.068-.656.64-.934.865-1.065s.372.656.706,1.474.475.784.616.163a9.437,9.437,0,0,0,.388-2.883,10.88,10.88,0,0,1-.212-2.051,2.559,2.559,0,0,0-.863-1.671c-.317-.231-1.409-1.193-1.409-1.193S785.839,320.928,785.973,321.815Zm-5.4-5.351s.026-.559-.991-1.558-1.047-1.29-2.6-1.561-3.106.136-2.45,1.8.847,1.912,2.164,2.114a2.694,2.694,0,0,0,2.109-.514s.1.268-1.141,1.047-1.382,2.269-.412,2.849.947,1.466,1.508,1.02.968-1.978,2.109-3.045,1.214-1.222,1.364-2.358a9,9,0,0,0,.024-2.046Zm2.66-3.205c-.142.113-.952-.084-.108.737s1.618,1,1.513,1.6-.034.724-.509.656-.619-.178-.829-.194-.241.393-.1.771.1-.05.509.588a3.108,3.108,0,0,1,.422,1.592c.123.734.441.378.441.378s-.1-1.77-.053-2.13-.144-1.233.454-.955.441,1.332.792.346a4.479,4.479,0,0,0,.021-2.639c-.176-.789-.795-.821-1.516-.821A5.553,5.553,0,0,0,783.232,313.259Zm-12.141,3.03c-.349.087-.566.428-.776,1.626a4.436,4.436,0,0,1-1.6,2.523,23.765,23.765,0,0,0-2.783,2.967c-.11.375-.126.147,1.338-.546s2.62-1.6,2.791-2.536-.171-.359,1.117-.965.632-.805.685-1.757S771.736,316.126,771.091,316.288ZM848.8,352.081c-.157,1.217.349,1.579-.776,2.471a6.964,6.964,0,0,1-3.594,1.1c-1.193.194-.323-.2-1.8-.241s-1.857.066-1.172.808.514,1.464,2.7,1.377,3.99-1.267,5.4-1.7,1.29-1.576,1.406-2.1S848.958,350.772,848.8,352.081Zm6.1,2.626c.6.858.372.724,1.146,1.857a4.837,4.837,0,0,0,2.914,1.639c.913.3,0-.328-.679-1.243a10.644,10.644,0,0,0-1.739-2.34C855.528,353.7,853.839,353.2,854.9,354.706Zm-79.267-73.492c-3.009,1.912-4.365,1.77-3.166,4.2s1.946,3.454,2.112,3.913.774-.307,1.589-2.229.918-4.438,1.249-5.2S776.659,280.559,775.629,281.215Zm51.509-94.291c.331,1.269.656,3.234-.094,3.452s-1.267,1.618-1.453,3.064-.564,3.273.231,4.412.236,1.22.236,2.188.281,3.407-.189,4.847-.75,1.794-.561,3.323a28.537,28.537,0,0,1,0,4.021c0,2.188-.139,3.932-.045,4.805s.559-.435.887-.74a1.934,1.934,0,0,1,2.3.262l.708.742s1.125.48-.422-2.841-1.831-2.62-1.408-5.639.656-3.058,2.248-3.368,2.439,1.883,2.631,2.1-.142-.742-.705-2.445-1.078-2.271-1.264-4.412-.847-3.937-1.689-4.548-.422-1.618-.047-2.447a6.871,6.871,0,0,0,.33-3.541,37.4,37.4,0,0,0-.845-4.239c-.239-.787-1.175.477-1.175.477ZM825.729,220.4a4.2,4.2,0,0,1-.467,2.925c-.661,1.091-.189,1.356-.564,2.883s-2.206,0-2.206.31a3.183,3.183,0,0,1-.753,1.789c-.467.393-2.067.483-1.6,2.012a21.484,21.484,0,0,0,1.319,3.145,7.536,7.536,0,0,1,1.214-.96c.286-.087,1.033-.3,1.033-.3s-.139-.441-1.172-.921a1.411,1.411,0,0,1-.8-1.791c.142-.31,1.453.087,2.3,0s1.55-.525,2.584.3a6.868,6.868,0,0,0,2.534,1.138,7.735,7.735,0,0,1,.653-2.1c.472-.873,1.833-.483,3.195-.873s2.392-.611,1.925-1.183-.425-1.833-.708-2.8-1.175-.045-1.878.307a2.637,2.637,0,0,1-2.534-.525,18.859,18.859,0,0,1-3.237-3.845S825.632,219.442,825.729,220.4Zm-4.2,14.332a3.077,3.077,0,0,0-.913,2.654c.105,1.28,1.2-.1-.212,3.835s-2.114,4.818-3.486,5.839a3.357,3.357,0,0,1-3.166.75c-.527-.26.144-1.149.53-1.411s-1.2-.359-1.865-.26-.039.855-.11,1.474-1.369,2.3-1.228,3.05.139.984-.706,1.246-1.406-.627-1.652-.755a19.909,19.909,0,0,0-3.171.456,3.135,3.135,0,0,0-2.778,2c-.706,1.212-2.361,1.408-3.557,1.865s-.74,2.167-2.043,2.754-1.3,1.671-1.409,2.557.808.262.952.2.142-1.246.952-1.112.913.16.491,1.078-.666,1.38-1.089,2.164.142,1.149.771,1.938,1.235-.233,2.571-1.639,1.445-1.742,1.338-3.347-.637-1.639-1.618-2.1-1.2,0-.107-1.251,1.584-.029,2.324-.588,2.536-.525,4.259-.949,3.381-.981,3.449-.428.6,2.426.666,2.82,1.2-.556,2.358-.984.076-.619-.034-1.374a1.29,1.29,0,0,1,.53-1.183s.6,1.249,2.463.362,2.009-1.246,2.5-1.117.811.627,1.582.134.918-.034.776.362,2.253-.755,2.778-1.115.249-.034.034-1.411-.879-1.471-.488-3.242a15.681,15.681,0,0,0,.385-3.053c.1-1.112.527-1.275.808-1.343s.286-1.54.879-2.324.459-1.149.459-2.951-.986-1.477-1.052-2.751a9.622,9.622,0,0,1,.241-2.526s-2.007.755-2.214,1.212l-.215.459S822.2,234.409,821.524,234.737Zm-13.135,19.7a36.541,36.541,0,0,0-4.779.963c-1.235.4-1.5.939-1.306,2.169a25.467,25.467,0,0,0,.844,3.108c.171.64.845,0,2.007-.616s1.086-2.416,2.2-2.416.7,1.283,2.2-.517.362-1.951.409-2.862S808.389,254.435,808.389,254.435Zm131.526-97.077c-2.227-.433-2.87-.915-3.074-.11s-.448,1.073.96,1.574,2.111-.37,3.428.614,1.686.936,2.7.808a2.177,2.177,0,0,0,1.409-.635A31.783,31.783,0,0,0,939.915,157.358Zm-25.421-35.019c-.818.228-1.482-.556-1.27,1.443s.666,2.229,3.234,1.865a32.162,32.162,0,0,1,4.157-.357c3.517-.262,4.254-.755,4.254-.755a6.189,6.189,0,0,0-1.686-1.9c-1.2-.915-2.783.627-5.492.165A29.785,29.785,0,0,0,914.494,122.339ZM835.187,92.805c.034.769,3.517,2.914,4.784,3.541s2.25.359,4.931.066,2.885-1.44,3.2-2.1-1.267-.428-3.058-.787-3.276.325-3.908,0,.95-.656-.635-1.246-1.972.194-2.324-.066-.422-.824-1.2-.887S835.15,92.086,835.187,92.805Zm-13.8,4.49c-1.212.485-1.125.918.247,2.064s.918.887.317,1.7,0-.034,1.972.852,2.783,2.494,4.013,2.854a2.919,2.919,0,0,0,2.077-.1,11.262,11.262,0,0,0-1.584-2.885c-1.162-1.571-3.664-2.03-4.123-3.407S823.111,96.606,821.385,97.3Zm12.567-6.421s-1.791-1.083-4.506-2.788-3.73-2.164-4.645-2.3-.771.955-1.128,1.8-.6.687-2.007,0-2.817-1.736-4.257-2.067-2.321.852-3.976,2.494-.7,2.1,1.3,4.522,2.888,2.557,4.5,1.605,1.162-1.571,2.327-1.115,5.172-.456,5.317-.456-.249,2.227,1.513,1.639,3.376-.887,4.186-1.77S833.952,90.875,833.952,90.875ZM712.057,44.053c-.514.435-3.52.176-5.07,2.62s-2.623.745-3.426,2.229a31.26,31.26,0,0,0-1.456,3.279s1.411,1.663,2.914,1.532a6.657,6.657,0,0,1,5.581,2.534c1.456,2.009,2.536,2.009,6.054,2.576s1.923,1.052,3.759.879,4.359.218,3.8-.7a3.957,3.957,0,0,1-.75-3.276c.231-1.791,1.873-1.7-.05-2.885a4.03,4.03,0,0,0-3.19-.435c.094-.22,1.736-.876,1.078-.921s-3.9-.215-4.27-2.051.889-1.972,1.545-2.1.472-.346-1.409-1.7a51.331,51.331,0,0,0-4.406-2.754C711.59,43.484,712.574,43.615,712.057,44.053ZM729.7,57.293c-1.361.262-2.489,1.618-3.284,2.8a21.175,21.175,0,0,1-3.381,3.756c-.986.787-.706,1.01.892,1.579s4.412-1.01,5.209-1.052,1.408,1.183,3.942.873,6.382-.787,4.506-2.143a39.04,39.04,0,0,1-3.286-2.358,9.087,9.087,0,0,0-4.692-1.791s4.273-1.443,3.242-1.529S729.7,57.293,729.7,57.293ZM621.2,35.749c-2.458.881-1.6,1.311-3.192,2.581s-.522,1.613,2.911.784a21.442,21.442,0,0,0,5.818-2.185C628.939,35.922,624.861,34.435,621.2,35.749Zm5.443,6.164c-2.306,1.02-1.692,2.1-1.078,2.972s2.3-.527,2.765.438.611.564,2.773-.879,1.361-1,.519-2.531S630.586,40.163,626.642,41.913Zm-12.823-.635c-1.477.7-1.477.622-.074,1.277s4.824,1.18,6.584.031,1.624-.915-.6-1.243S615.468,40.488,613.818,41.278ZM592.064,43.93a33.732,33.732,0,0,1,6.235-.094c1.826.2,1.157,1.77-2.222,2.132s.317.884,2.709.784.845-2.067,2.854-2.754,3.271-.262,5.663-1.112-1.369-1.673-4.152-1.608a55.16,55.16,0,0,1-6.054.066c-2.358-.165-4.262.9-6.689,1.311C585.409,43.507,589.776,44.129,592.064,43.93Zm17.949.627c-2.012,0-6.862,1.112-2.78,1.506s3.769.656,5.456.034S612.129,44.557,610.012,44.557Zm14.227.852c-2.867-.947-2.927-.559-5.143-.462s-3.1,1.477-1.65,2.064a5.8,5.8,0,0,0,3.622.168c1.193-.2,1.125-.556.352-.852S625.925,45.968,624.239,45.409Zm12.037-3.541c-2.2.273-2.324.658-2.536,1.374s.317.559,2.641.265a12.007,12.007,0,0,0,4.926-1.443c1.513-.821-.315-2.82-.315-3.182s-2.146,1.086-2.746,1.605S638.875,41.54,636.276,41.868ZM463.895,167.6c-1.107,3.056-2.932,4.467-.771,3.62s4.317-3.478,4.207-1.222-2.216,1.928-1.553,4.139.168,2.022,3.767,2.822.661.519,1.55,2.636,1.492,2.772.551,3.386-3.709-1.928-3.871-.847.383,1.881,1.049,3.386-.443,2.35-2.544,3.339-.278,1.6,1.327,1.506,5.645-.847,4.981.564-2.6-.236-3.982,2.117-6.484,4.372-3.824,4.233,2.271-.847,10.19-1.972,2.431-.1,7.635-1.7,3.544-2.025.666-1.55,1.886-2.828,1.22-5.878-2.544-.142-3.766-2.072-1.052-2.492,1.275-1.791,2.106-.467-2.382-3.334-1.716-2.308-3.764-4.706-5.534-2.117-5.534-2.117a7.04,7.04,0,0,0,2.376-2.633c.887-1.739,1.052-1.6,1.993-3.714s-.942-1.928-3.318-1.414-3.161.755-2.657-.186a9.78,9.78,0,0,1,1.936-2.494c1.109-1.178,1.325-1.786-.721-1.317a15.048,15.048,0,0,0-4.094,1.222C463.179,162.853,465,164.545,463.895,167.6ZM458.3,174.8c-3.617,1.427-2.6,2.355-1.988,2.869s1.713-.472-1.663,1.461-3.433,4.042-1.663,4.464,1.553-1.033-.328,2.494-3.155,5.928.666,5.033,4.868-2.869,6.694-3.1,2.161-1.694,2.161-3.906-1.217-2.258.223-4.092,1.548-3.764-1.28-4.656S460.574,173.9,458.3,174.8Zm45.471,49.363c-.194.5.239,1.836-1.222,2.751s.706,1.752,1.172,2.626,1.081-2.972.939-4.81S504.382,222.587,503.774,224.161Zm-.7,7.255c-2.387,1.13-2.531,1.965-2.82,3.759s1.928.349,1.361,1.92-.042,2.405,2.442.923,1.081-2.843,1.456-4.724S506.215,229.931,503.071,231.416Zm36.792,19.315c-2.1-.2-3.027,1.115.564,1.511s5.209.456,6.549.129.207-.066-1.555-1.243S542.538,250.993,539.862,250.731Zm19.989,1.115c-2.89-.624-2.106,2.885.85,2.363s1.828.194,3.169-1.967S562.884,252.5,559.852,251.846Zm-71.9-16.28c-2.347.3-2.531,1.1-.7,1.576s1.595-.087,2.628-.834S488.993,235.437,487.955,235.565ZM345.774,192.778a20.11,20.11,0,0,0-5.141,6.492c-2.041,3.669-1.826,3.281-3.8,5.311s-.984,1.571,5.141,2.754,5.629,2.1,7.04,1.7,1.689.782,1.689,2.033,1.335.519,1.97-1.443-.635-5.508-1.9-7.538-1.555-2.035-3.523-1.511-1.34-.459-2.041-2.03-1.836-.328-.142-2.688S347.183,191.668,345.774,192.778ZM158.4,188.586c0,1.949,2.059,5.285,3.612,6.382s1.222.483.517-1.839-.139-2.316-.472-3.8S158.4,187.886,158.4,188.586Zm10.277,10.665a18.168,18.168,0,0,0,3.8,3.628,13.4,13.4,0,0,0,4.976,2.271c2.253.656,3.237-.22,1.784-1.529s-.236-1.183-2.864-1.8-3.187-.388-4.506-1.222S167.783,198.33,168.677,199.251Zm-57.224-21.744c-1.692-.386-2.358-.459-3.523.456s-1.477,1.7-.842,2.723.247.459,1.721-.556.782-1.149,2.644-1.608,1.479-1.083,1.479-1.083A2.043,2.043,0,0,1,111.453,177.507Zm-.6-2.261c-1.138.685-1.516,1.246-.247.981s1.089-.981,1.9-.818,1.094-.163,1.094-.163A3.267,3.267,0,0,0,110.855,175.246Zm-32.49-5.214c-1.548.755-3.014-.131-2.056.443a5.88,5.88,0,0,0,3.271,1c1.02-.115,1.692-.131,1.322-.622a1.593,1.593,0,0,1-.493-1.13C80.372,169.032,79.918,169.279,78.365,170.032ZM597.921,383.637c-1.786,3.937-5.545,2.012-8.545,4.9s-2.534,2.012-.281,6.033-1.873,3.583-2.914,8.3,1.222,3.848,2.442,7.869,1.786,2.8,4.039,2.271a13.157,13.157,0,0,0,3.848-1.574,56.349,56.349,0,0,1,1.875-8.653c1.5-5.157,2.534-8.915,2.817-12.322s.561-5.857,1.317-4.81.842,1.049.842-.611-.9-6.334-2.345-7.428C598.477,375.684,599.7,379.708,597.921,383.637Zm2.631-268.87c-2.46.561-3.628,2.067-1.836,2.654s1.618.268,4.577-.787S602.975,114.208,600.551,114.767ZM646.539,70.1c-.839-1.311-1.592.438-10.227,4.2s-8.545.522-16.616,6.9-6.29,5.592-6.759,9.443-2.348,2.182-3.1,5.681-4.879,3.672-2.817,6.557,4.784,4.543,9.1,5.768,5.54-.087,4.606-.525-4.226-5.6-3.57-11.452,2.817-4.984,4.7-7.168,6.757-7.866,9.951-9.791c3.1-1.87,11.357-4.483,15.517-5.912.118-.045.268-.034.344-.118C650.951,70.015,647.386,71.413,646.539,70.1ZM623.263,109.39c-1.02.147-1.5.176.378,2.012s3.52,3.234,2.906.787S624.2,109.261,623.263,109.39ZM654.1,91.6c-1.372-.64-2.109-1.311-2.439-.262s1.55,2.447,3.381,2.8S655.41,92.218,654.1,91.6ZM330.965,201.609c-2.088-1.047-4.126-1.878-5.487-1.878s.281,1.437,2.437,2.62S332.187,202.22,330.965,201.609Zm-4.97,8.787c.11-1.734-1.154,1.988.4,2.82s2.35,1.044,3.336.039.181-.372-1.178-.609S325.9,211.838,325.995,210.4Zm614.927-60.227a10.565,10.565,0,0,1-4.433-.462,6.858,6.858,0,0,1-.915,3.019,1.929,1.929,0,0,0-.215,2.033s-2.531-1.115-4.008-1.639-2.817-.066-3.664-2.3-3.378-1.833-5.348-1.833-1.406-2.555-1.406-2.555l-1.2.06c-1.2.068-.986,2.953-2.534,3.869s-6.41,1.511-6.41,1.511,3.1,2.229,3.738,4.063a17.623,17.623,0,0,0,1.828,3.607s-.286.855-4.018.131-3.515.724-7.528,2.358a55.73,55.73,0,0,0-9.715,5.049c-1.13.918-1.2.393-4.716-.456s-4.223.981-5.141,1.443-.561-2.1-.561-2.1a6.887,6.887,0,0,0-2.82.784c-16.047,8.152-4.978,7.722-5.487,9.372l-1.692,6.363c-2.358,7.027-3.992,3.347-5.983,8.913-6.334,17.7-10-2.728-10-7.4,0-2.888-.632-6.62,1.2-7.475,15.751-7.334,1.477-1.018,16.262-11.145,4.789-3.276,2.182-5.246,3.237-6.161a6.369,6.369,0,0,1,2.749-1.183l-2.607-.26c-2.6-.26-2.676.328-4.719,2.557s-3.659,2.623-3.236.915.49-3.473-1.054-2.552-2.185.782-5.068,1.377a14.16,14.16,0,0,0-8.59,5.243c-2.6,3.279-1.125,2.883-.281,3.669s-4.157.588-6.547.4-1.131-.656.281-1.117-2.114-.852-5.212-1.508-1.9.527-3.727,1.246-1.76-.653-2.678-.852-5-.456-7.882-.79-2.678.2-3.452,1.183-6.125,5.707-8.448,8.393-5.209,3.279-7.814,5.768-3.027,2.361-.918,2.757,2.4.191,2.746,2.159,1.34,2.623,3.594,2.623,1.618.59,2.04-1.115-.564-3.667,1.34-2.164,3.446,2.626,4.01,4.787-.144,3.738-1.128,7.344-1.338,8.784-2.675,11.407-2.392,4.588-3.871,7.473-8.661,10.161-10.277,10.817-2.673.721-3.452-.721-1.335-1.183-3.169.459a9.059,9.059,0,0,0-3.376,5.243c-.706,2.623-2.256,2.623-3.874,4.587s-2.041,1.511-.847,3.74,3.166,4.59,3.381,6.749-.986,5.311-1.757,6.691-4.435,2.03-4.367,1.374a52.08,52.08,0,0,0,0-5.833c-.142-1.9-1.55-1.9-1.06-2.492s2.539-1.571,1.06-2.953-2.536-.194-3.166-1.831.281-2.953-.068-3.541-1.411-1.243-3.593-1.443-2.678,1.965-3.174.063.218-2.1-.769-2.883-1.833-.262-4.362,1.9-3.032,1.7-5.143,2.62-2.112,1.443-1.618,2.167,2.253,3.866,3.73,4.194,2.536-.656,4.787-.656,2.678.328,2.114,1.178-2.114,1.71-4.855,4.459-1.907,2.232-.989,3.347a19.435,19.435,0,0,1,3.237,4.656c.989,2.159,0,2.946-.139,4.189a5.749,5.749,0,0,0,1.479,5.12c1.831,1.962.561,1.309.351,2.03s-3.31,6.358-4.716,9.18-1.414,3.079-5.983,6.29-6.62,3.541-9.083,4a30.681,30.681,0,0,0-5.844,1.708c-1.267.527-.776,1.574-.91,2.229-.149.656-1.34.066-1.133-.921s.074-1.7-.559-1.965a4,4,0,0,0-4.648.915c-2.041,1.97-4.509,2.1-5.353,4.593s-.7,1.642.218,2.686,5.348,5.311,6.4,7.6a14.817,14.817,0,0,1,1.34,6.494c.068,2.492-5.073,7.082-7.323,8.587s-2.749,2.951-2.395.588-.984-3.735-2.6-5.506-6.547-3.213-7.465-3.41.352-1.634-.286-1.571-2.106-.328-1.9,1.967-1.477,1.571-1.831,3.869-.776,4.65.7,4.456,1.2,2.033,2.324,4.525.7,1.115,3.52,3.407,2.111,1.9,2.749,4.2.42,3.607,1.831,5.7,1.477,2.557-.847,1.374a13.357,13.357,0,0,1-5.141-4.063c-.915-1.443-1.474-5.117-2.038-6.948s-4.365-4-5.631-5.311-.5-2.358.139-5.377-.281-5.9-.5-7.732a53.6,53.6,0,0,0-2.395-8.721c-.7-1.736-.42-1.508-1.513,0s-1.93,2.426-2.99,2.426-2.6-.165-2.463-.855,1.2-3.307.884-4.294-1.309-4.131-2.783-5.246A11.3,11.3,0,0,1,704,289.839c-.95-2.589-1.2-1.836-3.027-.493s-6.022,1.508-8.029,1.671-.349,1.149-.839,2.132-2.851,2.258-7.6,7.21-5.469,5.115-6.7,5.639-2,.359-1.959,2.389a30.187,30.187,0,0,1-.016,4.952,10.549,10.549,0,0,1-1.293,3.714,21.773,21.773,0,0,0-1.238,4.351c-.162,1.089-1.222,2.358-2.77,3.473s-1.548.915-2.253-.721-4.364-7.932-7.321-13.831-2.253-6.951-2.536-8.658-.338-11.937-.21-12.716c.074-.435-1.43,1.2-1.854,2.03s-.4,1.839-2.085,1.991-2.043.176-3.638-1.422-2.327-2.489-2.049-2.445a8.779,8.779,0,0,0,3.176-.7c1.052-.525.7-1.094.7-1.094s-1.144.129-2.51.2-.75-.307-2.555-1.028-2.211-.784-2.513-1.592-.75-1.946-1.01-2.56-.467-.656-.771-1.416-1.172.129-3.121.173-1.506.129-3.85,1.049-2.7.59-5.351.5-4.5-1.225-5.844-1.684-1.548-.262-3.52-.548-1.548-1.288-2.041-2.119-1.314-1.028-3.9-.829a8.25,8.25,0,0,1-4.126-.328c-1.453-.391-1.574-.918-2.793-2.143s-.821-.26-1.618-.9a6.8,6.8,0,0,1-2.23-3.21c-.635-1.7-.493-2.075-1.222-2.862s-.677-.59-2.959-.59-1.238.15-1.524.3a15.605,15.605,0,0,0-1.618,1.944c-.63.787.514,1.883,1.43,2.953s.118.96,1.576,2.578.96,1.464,1.993,3.714,1.689,2.82,1.922,3.5.449-.262.682-.876a9.972,9.972,0,0,0-.092-2.8,13.942,13.942,0,0,1,.842,2.536c.4,1.616.118,1.637.4,2.668s0,.892,1.763.892a17.451,17.451,0,0,0,4.787-.391c1.949-.456,2.788-2.227,3.7-2.754s.921-2.361,1.526-2.164.029,2.164.588,3.452.7.829,2.067,1.4,1.734.9,3.119,1.422.446.59,1.2,1.967.705.611,1.435,1.094.446.131-.073,1.771a5.513,5.513,0,0,1-1.828,2.993c-1.222,1.335-1.222.918-1.409.876s-.564-.984-.564-.984a10.264,10.264,0,0,0-.889,3.452c-.118,1.857.608,1.178-1.624,2.075s-3.567,1.27-4.43,2.012-.868,1.726-1.361,2.206-1.178.045-2.675.567a5.085,5.085,0,0,0-2.35,1.38c-1.264.96-.142.873-1.757,1.485s-4.551,2.033-6.03,2.188-1.175.543-1.548,1.089-.4.829-2.279,1.115a23.717,23.717,0,0,0-5.374,1.117c-1.151.567-2.838,1.836-4.058,1.595s-.892-.286-1.291-1.377a13.081,13.081,0,0,1-.8-3.672,17.2,17.2,0,0,0-1.857-6.248c-1.031-1.728-1.007-1.839-2.132-3.654s-1.878-3.342-2.862-4.042-1.477-.742-1.952-1.264-.189-2.319-.677-3.848a12.36,12.36,0,0,0-1.55-3.869,18.819,18.819,0,0,1-2.864-3.646c-1-1.815-1.075-2.014-2.529-4.808s-1.978-3.147-2.935-5.026-.333-1.511-.682-2.626-1.269,1.812-1.993,2.382-1.1.286-1.689-1.377-1.083-3.121-1.527-2.466-.8,1.309-.191,3.082.9,1.393,1.692,3.077,2.98,5.9,3.869,7.651a12.116,12.116,0,0,1,1.367,3.541c.824,2.641,1.288,2.969,2.389,4.06s.918.525,1.411,2.319a22.247,22.247,0,0,1,.378,4.984c.068,1.091.677,1.66,1.993,2.751s.656.7,1.264,1.857a26.1,26.1,0,0,1,1.576,3.934,3.463,3.463,0,0,0,1.8,2.426,17.892,17.892,0,0,0,2.348.942c1.031.37.674.632,1.382,1.529s2.067,1.571,2.914,3,.278,1,.228,2.379-.488.742.121,1.464a18.191,18.191,0,0,0,3.446,2.489c1.784,1.183.357.354,1.949.31s1.928-.462,3.641-.832,3.916-1.007,6.028-1.508,4.176-.829,5.259-1.183,1.1.837.278,2.667-1.217,3.365-1.923,4.855-.965,1.616-1.479,2.82-3.992,6.114-4.713,7.667a19.163,19.163,0,0,1-2.652,4.089c-1.057,1.288-4.367,3.625-5.915,4.871s-1.151,1.246-2.3,2.712-4.648,5.526-5.592,6.969a30.008,30.008,0,0,0-2.177,3.386c-.7,1.422-2.7,3.428-2.817,4.456s-1.241,1.162-.4,2.059,1.291,1.047,1.6,2.182-.942,2.426-.139,4.5.231.593,1.432,2.25,1.149,2.712,1.262,5.138a26.543,26.543,0,0,1-.139,6.4,29.945,29.945,0,0,1-1.429,4.024c-.538,1.416-3.5,2.384-5.235,3.145s-1.663.459-2.466,1.419-3.095,2.972-3.866,4.459-1.364,1.332-1.057,2.274.957,2.164,1.757,3.911.236,1.616.047,3.127-.163,1.269-.375,3.1-2.371,1.881-4.834,2.841-1.571.483-1.857,1.815a54.416,54.416,0,0,0-.21,5.526c-.092,1.576-.842.942-2.182,2.885s-1.875,2.867-3.307,5.2a8.555,8.555,0,0,1-3.124,3.473c-1.8,1.464-3.237,1.833-4.031,3.517s-1.715.569-5.587,1.812-1.054.637-4.737,1.049-5,.7-6.948,1.049-1.694-.1-2.888-1.416-1.385-1.207-1.92-2.3-.142-1.353-.31-3.323a5.2,5.2,0,0,0-1.052-3.255,18.771,18.771,0,0,1-1.479-3.365,15.926,15.926,0,0,0-2.046-3.8c-.889-1.311-1.149-.894-1.97-1.747a4.292,4.292,0,0,1-1.033-2.8c-.184-1.2-.47-4.042-.866-7.037s-.047-1.4-.519-2.665-1.031-2.8-1.831-4.477a24.166,24.166,0,0,0-1.736-3.326,20.148,20.148,0,0,1-1.878-3.6c-.774-1.818-.887-1.01-.934-1.71s.4-1.965.446-3.187.446-2.641.745-4.525-.417-1.857.378-3.147a20.638,20.638,0,0,0,2.14-3.934,6.994,6.994,0,0,0,.441-3.384c0-1.857-.189-1.7-.747-3.258s-.774-3.368-1.456-5.854a14.932,14.932,0,0,1-.755-3.368,23.236,23.236,0,0,0-1.031-4.435c-.467-1.309-.7-.787-1.734-1.637s-.351-.483-1.243-1.424-.727-1.243-1.6-2.271a12.748,12.748,0,0,1-1.692-2.227c-.7-1.159-.323-.459-.228-2.405s.653-5.66,1.007-7.8.425-2.03-.4-2.927-1.411-2.185-2.043-2.4-2.159.218-4.388.173-2.135-.543-3.1-1.66-2.235-2.665-2.681-3.079-1.217-.4-5.015-.113-1.506.354-4.042.748-3.52,1.723-5.466,2.4-2.51.5-5.936-.176-5.138.789-6.877,1.532a3.322,3.322,0,0,1-3.848-.483,24.708,24.708,0,0,0-3.966-2.557c-1.944-.96-1.5-1.485-3.423-2.426s-1.3-.984-2.888-2.489-1.713-3.037-2.817-4.614-2.046-3.777-3.523-5.44-2.93-5-3.659-6.007-1.285-1.1-1.267-1.576,1.432-3.3,2.02-4.763.75-1.267,1.007-2.185-.352-3.562-.913-5-1.2-4.48-1.642-5.9.231-1.443.774-2.245a48.245,48.245,0,0,0,3.166-4.984c1.338-2.494,2.09-3.717,2.793-4.879s2.321-4.716,3.381-5.679a33.472,33.472,0,0,1,4.9-3.475c1.149-.588,2.09-.915,2.279-1.443s.677-4.85,1.007-6.662-.113-2.82,1.2-3.52,3.426-2.012,4.53-2.623,1.267-1.529,1.828-2.862.8-3.014,1.645-3.565.611.241,1.713.984a4.548,4.548,0,0,0,1.807.921c.517.131.984-.42,2.277-.438a3.192,3.192,0,0,1,2.2.569c.771.412.352.414,2.56-.939a35,35,0,0,1,6.854-3.258,29.858,29.858,0,0,1,6.193-1.812c1.335-.155.656.018,2.159.614s1.574.85,1.875.409,1.291-1.66,1.925-1.613,1.361.3,2.98.59a4.074,4.074,0,0,0,2.959-.22c.653-.349,1.5-1.049,1.663-1.049a27.9,27.9,0,0,1,2.678.9c1.125.417,1.149.48.915.763a5.823,5.823,0,0,0-1.1,1.812c-.54,1.225-.286.569.231,1.86s.892,1.222.658,2.164-1.291,1.812-2.064,2.73-.585,1.07,1.314,2.143a27.048,27.048,0,0,0,3.591,1.854c2.135.963,2.227.614,4.716,1.356s2.182.829,3.048,1.839.918,1.965,2.418,2.489,3.1.525,3.969,1.07a7.757,7.757,0,0,0,2.746,1.553c1.17.218,1.167.372,1.734-.483s1.031-1.616.824-2.054-.847-1.115-.708-1.529a28.88,28.88,0,0,1,1.432-2.576c.309-.5,1.083-.637,2.938-.724s3.14-.349,3.446.742.236.59,1.666,1.183,1.576.588,2.77,1.049.588,1.109,1.2,1.068a7.315,7.315,0,0,1,2.72.2,20.286,20.286,0,0,0,5.372,1.4,5.521,5.521,0,0,0,3.36-.724c.328-.149,1.875-2.051,2.793-.74s2.109,1.332,4.407,1.2,2.324-.477,2.841-1.07a15.944,15.944,0,0,0,2.35-4.349c.443-1.529,1.663-4.871,1.991-6.382a9.069,9.069,0,0,0-.139-3.58,4.948,4.948,0,0,1,.448-2.515c.349-1-1.107-.393-1.694-.2s-.748-.3-1.288-.459-1.1-.286-1.5.724-.213,1.506-2.371,1.4-1.757-.241-2.463-1.01a6.129,6.129,0,0,0-2.867-1.243c-.96-.283-1.052-.241-1.123.372s-.092,1.026-.795,1.269a6.131,6.131,0,0,1-3.641-.679,8.758,8.758,0,0,1-3.05-2.232c-1.317-1.285-1.125-1.285-1.665-3.273a8.726,8.726,0,0,1-.3-4.283c.231-.59.611-.763-.4-.459s-1.694.477-1.012-1.026,1.311-1.576,2.022-1.773a18.722,18.722,0,0,1,3.119-.3,7.636,7.636,0,0,0,2.838-.963c.469-.2,1.437-.527.942-.656s-1.972-.286-1.715-.7.425-.393,1.22-.48,2.043-.134,3.1-.194,1.687.129,2.043-.5a5.126,5.126,0,0,1,1.616-2.077c.824-.5,1.715-.241,3.874-.328s1.825.435,2.531.939,1.175.262,2.093.438.349.721,1.052,1,2,.569,3.567,1.073.54.283,2.463.283a13.276,13.276,0,0,0,3.381-.241,6.791,6.791,0,0,0,3.239-1.6c1.078-.761.328-2.426-.068-3.714s-2.093-2.117-2.867-2.707-2.439-2.473-3.331-3.234a15.215,15.215,0,0,0-2.911-1.529c-.984-.551-2.744-1.445-2.909-2.167s.378-.74,1.831-1.089.989-.656,1.264-1.424.4-.742,1.6-1.18-1.382-1.353-1.736-1.852.8-.354,2-.637a1.622,1.622,0,0,0,1.453-1.356c.168-.5.115-.742-1.291-.719a27.242,27.242,0,0,0-5.561,1.243c-2.371.632-1.288.656-2.72,1.77s-1.527.632-1.338,1.243.278,1.2,1.734,1.97.842.787,1.246.9,1.385.26.939.393-.847.826-1.505.826-.939.677-2.062,1.311a5.991,5.991,0,0,1-2.439.855c-.821.131-1.409-.134-1.3-1.532s-.42-.456-1.291-.784a3.226,3.226,0,0,1-1.2-.7,9.921,9.921,0,0,0,1.739-.852,3.354,3.354,0,0,0,1.689-1.944c.422-1.07-.942-.483-1.925-.611s-.706-.22-1.666-.351a1.8,1.8,0,0,1-1.335-.894,2.921,2.921,0,0,0,1.264.087c.821-.087.637-.307.939-.525s.546-.417.307-.417-1.246.11-1.923.066a7.288,7.288,0,0,0-2.067,0c-.989.152-.588.525-1.291.981a2.51,2.51,0,0,0-1.1,1.293c-.375.677-.5.567-.753,1a6.064,6.064,0,0,0-.236,2.274,2.217,2.217,0,0,1-.635,1.595c-.446.611-.446.349-1.2.716s-.257.64-.352,1.382-.351,1.028-.422,1.988-.446,1-1.031,1.681-.915.674-.963,1.377a8.29,8.29,0,0,0,0,2.358c.163,1.356.538,1.007,1.6,2.384s1.618.852,1.241,1.55-.3.441-1.6.286-1.5.042-2.437.939-1.13,1.4-1.621,1.729-.328-.656-.514-1.117-2.348-.611-3.827-1.049a17.754,17.754,0,0,0-2.253-.7,4.2,4.2,0,0,0-2.5.769c-1.548.85-1.2,1.343-1.089,2.458s1.335,1.343.984,3.963,1.3,1.411,2.007,3.016.071,1.474-.349,1.673-.847,1.571-1.164,2.883.034,1.477-.354,1.411-.842.231-1.582-.852-1.335-.063-1.445-.687-1.02-1.671-.666-3.113.915-1.576-.354-2.329-.947-.852-1.548-2.395a8.686,8.686,0,0,0-1.9-3.242c-1.167-1.409-1.062-1.015-.742-2.426s.561-3.245-.144-4.228a23.516,23.516,0,0,0-6.02-4.984c-2.392-1.275-2.883-.294-3.942-2.327s-1.542-4.163-3.3-5.411-.879-1.343-2.57-.716-1.726.884-1.584,1.372a4.2,4.2,0,0,1,.281,2.494c-.249,1.34-.6.918,1.162,1.962s1.023.824,1.9,2.757a9.768,9.768,0,0,0,1.726,3.082,4.026,4.026,0,0,0,2.712,1.868c1.757.393,1.477-.1,1.93.33s-1.233.588-.913.784a15.926,15.926,0,0,0,2.182,1.673c1.479.915,3,1.868,3.384,2.589s1.687,3.439-.215,1.44-1.933-1.078-2.463.3.488,2.426.422,3.441-.952.624-1.553,1.443-.913,1.8-1.618,2.327-.493-.588-.876-.588-.53.488-1.02,1.44,0,1.346.207,2.623.567,1.377-.808,1.314-1.06-1.348-2.321-2.2-2.006-.556-3.064-1.217.456-.816,3.1-1.144,2.956-.59,3.767-1.212.525-.79,1.409-2.033,0-1.739-.6-3.25a5.533,5.533,0,0,0-2.111-2.489,20.714,20.714,0,0,1-2.038-2.03c-.779-.852-1.59-.984-2.927-1.311s-1.089-1.542-1.828-1.9-1.479-1.414-3.168-2.985-1.052-2.754-1.828-4.128-1.547-2.426-3.242-2.426-2.956,1.18-4.645,2.817-1.338,2.426-3.307,1.18-2.673-1.112-4.086.066-1.687,2.363-1.687,4.721-1.689,1.377-3.027,2.03-2.534,2.3-4.574,6.164.139,2.03-.283,3.342.142,2.363-1.76,4.066-1.057-.2-2.18,1.183a5.5,5.5,0,0,1-5.353,2.161c-2.675-.328-1.9.721-3.591,1.115s-2.6.984-2.182-.921.071-1.637-3.166-1.506-4.367.984-4.086.527a11.277,11.277,0,0,0,.779-3.085c.354-1.833.842-2.426.354-2.426s-1.553.268-.776-3.014,1.054-3.869.7-5.768.136-4.462-.281-5.574.842-2.227.281-2.82-1.2-1.374-.774-1.374a29.771,29.771,0,0,1,4.433.456c2.258.393,4.574-.328,5.915-.2s4.155.721,6.966,1.183,2.746-.4,2.468-4.525.21-6.03-.637-6.885-1.755-.784-2.673-1.9-.212-2.754-2.18-3.347-4.16-.129-3.1-.522,1.477-.527.354-1.377-1.414-1.768-.567-1.9,3.237-.129,3.237-.129.215,1.18,1.482.656,2.885-1.047,2.536-1.9-.989-1.9-.782-1.9a4.283,4.283,0,0,0,3.381,1.178c2.678,0,2.463-.393,2.256-1.506s1.763-1.049,3.1-1.97-.5-1.965-.21-2.814,1.828-1.382,4.574-1.574,2.25-.658,1.972-.984.071-1.708.278-3.475-.207-2.363,1.2-3.213.984-.522,3.871-.79,1.123-.915,1.616-1.047,3.942-.984,4.577-1.248.567-.194,0-1.443-1.338-1.962-1.97-7.732-.493-5.768,3.024-6.817,2.749-.721,2.463,2.492-1.828,3.21-2.182,5.571-.066,3.8,1.409,6.295,1.34,1.243,4.506,1.243,2.466.787,4.574,1.508,1.409-1.311,3.454-2.035,1.616.462,6.405-.26c1.826-.275,2.447-.341,2.589-.351-.144.008-.671.016-.126-.3,1.125-.656,1.409-1.836,3.03-2.033s2.741.462,2.67-2.033-.984-2.1-.7-4,.352-1.047.493-2.555-.207-1.77,1.831-2.3.635,1.836,3.095,2.358,2.114.921,2.539-.981,1.76-4.393.561-4.26-1.477-.066-2.675-1.836-1.9-2.164-1.123-2.164a40.9,40.9,0,0,1,7.106-.59c3.73.129,4.789.456,5,.063s-.63-.782.635-1.571,5.424.393,4.79-.328-4.294-1.7-6.757-1.309-8.448,1.115-9.366,1.047a6.538,6.538,0,0,1-3.027-1.178c-.42-.462-1.76-.789-1.76-2.951s.776-3.016-.493-5.115,2.321-3.869,4.789-6.1,1.831-4.068,3.3-4.2,2.049-.915,1.34-1.639-3.307-3.213-4.577-3.473-3.166-1.7-5.138,1.7.139,3.735.5,5.506-2.749,3.082-5.073,4.719-3.163,1.249-3.871,5.443-1.409,4.328,1.2,5.768,3.1,2.164,1.9,3.407-3.732,1.183-5.283,4.136-.913,4.388-1.547,5.7-2.6,1.9-3.168,3.213-.561,3.8-2.956,3.41-1.054-3.609-2.114-5.248-1.9-3.014-3.166-5.044-.278-4-1.479-5.052a5.843,5.843,0,0,1-1.479-3.145l-.422.984c-.42.986-.21,1.574-2.6,4.525a7.109,7.109,0,0,1-7.745,2.424c-1.757-.721-1.477-2.424-1.477-4.59a64.636,64.636,0,0,1-.071-8.454c.352-3.41,1.34-3.147,5.073-5.377s3.8-2.1,4.713-3.541,3.593-3.475,5.136-4.787,4.228-6.292,5.634-9.833,4.011-5.7,6.544-9.5,7.043-7.147,12.813-9.571,4.792-2.688,6.122-4.593,1.907-.784,4.157-1.243,1.9,0-.354,2.229-3.234,4.59-1.335,2.82,3.376-3.869,6.334-3.738,1.76,0,4.648,1.314,3.381,1.437,1.765,2.487a8.206,8.206,0,0,1-4.37.789,4.545,4.545,0,0,0,3.591,2.492c2.675.328,4.152-2.1,5.912-1.183s2.253,1.574-.142,1.377-3.1,1.311-.139,2.361a24.705,24.705,0,0,0,7.108,1.7c3.871.525,5.566,3.342,8.519,4.587s6.405.2,5.424,2.888.771,5.309-4.367,6.555-5-.4-9.29-1.708a76.036,76.036,0,0,1-7.321-2.62,27.86,27.86,0,0,0,3.1,3.344c1.97,1.833,2.182,3.538,1.97,6.885s-1.128,4.26,2.256,5.9,2.888,1.18,3.94.921,2.817-.59,2.392-1.117a5.031,5.031,0,0,0-1.9-2.03,1.247,1.247,0,0,1-.068-2.361c1.122-.593,2.177.522,4.645.391s0-.915,1.193-2.159,1.272-3.344,4.157-4.464,5.978.527,6.759-.716,1.618-2.688,0-4.59-2.888-2.555-1.9-3.475,2.959-3.344,3.874-1.967,3.239,2.888.283,2.623-.921,4.393,1.757,4.131,2.463-1.115,4.648-2.164,6.476-4.525,9.5-5.574,3.662-.787,4.855-.26,1.2,1.508,4.509.852,4.294-1.443,7.391-1.97-.21,1.117,1.193,1.574,1.553.852,2.61.136,4.435-1.9,2.888-3.085-2.681-1.967-2.681-1.967a4.213,4.213,0,0,1,4.086-2.292c2.954.194,7.457,2.948,10.347,4.915a41.612,41.612,0,0,1,6.408,6.159s1.262-2.159.207-5.768-3.73-2.751-3.73-6.159-2.466-2.494-1.618-4.918,3.237-3.344,3.874-6.429,1.2-5.631,3.378-5.631,6.9.653,6.9.653a20.068,20.068,0,0,1-1.763,7.016c-1.757,4.194.918,4.653.5,9.768s-.5,5.768.7,6.948,3.455,2.623,2.6,4.85-1.267,3.606-4.433,4.852-7.182.525-5.707,1.508a14.039,14.039,0,0,0,5.492,2.161c2.114.328,1.054-.128,2.746-1.506s5.492-4.134,5.351-5.445-2.182-3.342-.774-4.328,1.967-2.487,4.152-1.243,4.3,5.9,4.3,5.7-.425-4.59-3.027-7.208-6.9-.136-6.9-2.426,1.2-5.445.913-7.937-1.262-4.984.354-7.142a7.708,7.708,0,0,0,1.689-3.869,9.235,9.235,0,0,1,.139,4.587c-.561,2.555.286,4.066,1.479,4.066s6.547.068,3.661-.787-3.73-1.639-.844-3.21,2.744-.527,6.966.456,5.209,1.7,6.62,1.642,1.2-.2.7-1.443a5.613,5.613,0,0,0-2.466-2.953c-1.34-.85-2.248.2-2.673-1.115s-1.2-4.59-1.55-5.833,1.057-.262,3.307-.262,8.378-.328,13.1-.459.071-5.046-.286-8.522,8.732-3.607,13.162-4.26,9.576-.459,17.883-2.426,2.959-1.639,4.152-4,3.242-2.754,5.7-2.754,4.719.459,3.8.787-3.662,1.7.632,2.626,3.171.847.915,1.637-.349,2.227,4.01,2.227,1.763-.391,1.057-1.833.637-.921,4.228-.328,5,1.18,6.969,3.014,2.321,1.38,3.024,3.937-.068,2.159-3.1,4.522S749.37,89,745,91.759s-3.31,4.194-5.7,6.03-1.76,1.311,3.3,0,7.814-2.164,10.424-1.9,3.869,1.243,5.841,1.243-.139.33,6.056.33,5.272,0,3.024,1.768.422,2.3,3.169,2.3a62.569,62.569,0,0,0,8.656-.262c2.542-.393.357-2.3,3.384-2.426s4.01-.393,7.247-.393,2.253,1.311,3.381,2.492,2.673,1.965,1.618,4.325-1.618,2.424-.989,5.637,2.258,3.669,4.228,4.262,1.97-2.883,3.872-4.066,2.326,2.358,4.506,1.836a12.963,12.963,0,0,1,6.547.325,10.627,10.627,0,0,0,6.2.33c2.675-.59,1.831-1.637.918-3.276s-.989-1.511.7-3.213,2.817-.855,8.307.588,3.732,1.443,6.827,2.3,2.114.656,6.83,2.82,3.806,4.719,5.983,6.093,2.324,0,6.691-.391,4.294.522,9.081,1.77,3.517,2.817,3.517,4.2-1.335,2.426,1.621,3.079,4.152,1.243,6.688.59.281.653,5.915.719,3.732-.653,5.422.527,2.111,3.541,4.855,3.279,2.536-.2,1.409-2.623-1.831-2.822-.21-2.754,4.926.784,11.048,1.77,6.337,2.1,11.342,5.246,6.4,3.407,10.064,6.227a8.42,8.42,0,0,1,1.7,1.464,8.758,8.758,0,0,1,1.891.763c3.934,1.836,3.237,1.249,6.615,2.885a38.418,38.418,0,0,1,6.258,3.934S943.459,149.906,940.922,150.168ZM612.47,216.8s-.375.5,1.6-1.073-.921-.066-2.046-.393-1.479-.855-1.125-2.3-.142-1.445-1.34-3.344c0,0-.635-.391-1.967.393s-2.112-.784-3.732-.2-3.381.328-4.367,2.757-2.111.85-2.46,2.814-3.383,3.016-3.383,3.016,1.2,1.18,2.114,2.3.283.4,1.2,4.066,1.553,3.344,2.82,3.866a28.237,28.237,0,0,1,3.237,1.773s-1.2-.724-1.2,1.246-1.9,3.342-1.692,6.227-2.6,5.571-.349,5.836,1.548,1.243,4.01,1.9a23.208,23.208,0,0,0,7.465,1.112c3.586,0,1.616-1.377,1.123-3.41a27.716,27.716,0,0,1-.913-5.571c-.142-2.227-.986-1.639-1.55-3.014s.281-2.167,1.967-2.167,1.907-.066.989-1.571-.346-2.1-1.482-2.757-1.616,2.167-1.616,2.167-.7-.656-.422-3.41.493-1.443-.349-1.967-1.343.129-2.468-1.7-.139-1.443-1.474-3.672-.64-1.052.839-1.052.7-.328,0-1.047-1.194-1.839.7-1.7,4.367.525,5.28.59S612.47,216.8,612.47,216.8ZM349.827,115.787c-.648,1.12,1.1,2.557,2.371,2.111s1.684.05,2.405-.53.79-1.422-.068-2.253-.511-1.319-.653-1.409C352.263,112.718,350.48,114.667,349.827,115.787Zm348.011-72.28c-1.9.063-4.016.131-2.253.721s1.054,3.538,4.433,1.9,2.675-1.77,5-2.754.976-.511-1.831-1.243C701.429,41.671,699.74,43.442,697.838,43.507Z" transform="translate(-76.004 -23.61)" fill="#f08c02" opacity="0.1"/>
</svg>
