<svg xmlns="http://www.w3.org/2000/svg" width="158.18" height="94.829" viewBox="0 0 158.18 94.829">
  <g id="Group_715" data-name="Group 715" transform="translate(1.656 1.656)">
    <g id="Group_712" data-name="Group 712" transform="translate(32.787 0)">
      <path id="Path_2596" data-name="Path 2596" d="M1030.957,833.3c0,18.442-14.482,33.392-26.7,33.392-10.41,0-26.7-14.95-26.7-33.392s11.955-27.619,26.7-27.619S1030.957,814.863,1030.957,833.3Z" transform="translate(-959.608 -805.684)" fill="none" stroke="#f47b22" stroke-linecap="round" stroke-linejoin="round" stroke-width="3.313"/>
      <path id="Path_2597" data-name="Path 2597" d="M1022.971,858.8a81.788,81.788,0,0,1-15.358,14.27,81.832,81.832,0,0,1-15.358-14.27c-17.091,7.519-29.289,24.7-29.289,24.7a140.183,140.183,0,0,0,89.293,0S1040.063,866.317,1022.971,858.8Z" transform="translate(-962.967 -799.279)" fill="none" stroke="#f47b22" stroke-linecap="round" stroke-linejoin="round" stroke-width="3.313"/>
    </g>
    <g id="Group_713" data-name="Group 713" transform="translate(107.251 17.726)">
      <path id="Path_2598" data-name="Path 2598" d="M1059.384,838.422c0,11.3-8.872,20.455-16.358,20.455-6.377,0-16.358-9.159-16.358-20.455s7.324-16.92,16.358-16.92S1059.384,827.124,1059.384,838.422Z" transform="translate(-1022.76 -821.502)" fill="none" stroke="#f47b22" stroke-linecap="round" stroke-linejoin="round" stroke-width="3.313"/>
      <path id="Path_2599" data-name="Path 2599" d="M1023.492,861.372a41.13,41.13,0,0,1,10.857-7.333,50.1,50.1,0,0,0,9.408,8.743,50.1,50.1,0,0,0,9.408-8.743c10.471,4.607,17.943,15.13,17.943,15.13a88.586,88.586,0,0,1-27.351,4.471,82.6,82.6,0,0,1-8.541-.454S1028.345,865.707,1023.492,861.372Z" transform="translate(-1023.492 -817.578)" fill="none" stroke="#f47b22" stroke-linecap="round" stroke-linejoin="round" stroke-width="3.313"/>
    </g>
    <g id="Group_714" data-name="Group 714" transform="translate(0 17.726)">
      <path id="Path_2600" data-name="Path 2600" d="M945.252,838.422c0,11.3,8.873,20.455,16.358,20.455,6.378,0,16.359-9.159,16.359-20.455s-7.324-16.92-16.359-16.92S945.252,827.124,945.252,838.422Z" transform="translate(-934.259 -821.502)" fill="none" stroke="#f47b22" stroke-linecap="round" stroke-linejoin="round" stroke-width="3.313"/>
      <path id="Path_2601" data-name="Path 2601" d="M983.933,861.372a41.121,41.121,0,0,0-10.856-7.333,50.127,50.127,0,0,1-9.409,8.743,50.142,50.142,0,0,1-9.408-8.743c-10.47,4.607-17.943,15.13-17.943,15.13a88.587,88.587,0,0,0,27.351,4.471,82.577,82.577,0,0,0,8.541-.454S979.081,865.707,983.933,861.372Z" transform="translate(-936.317 -817.578)" fill="none" stroke="#f47b22" stroke-linecap="round" stroke-linejoin="round" stroke-width="3.313"/>
    </g>
  </g>
</svg>
